<svg xmlns="http://www.w3.org/2000/svg" xmlns:xlink="http://www.w3.org/1999/xlink" viewBox="0 0 500 500"><defs><style>.cls-1{fill:url(#linear-gradient);}.cls-2{fill:url(#linear-gradient-2);}.cls-3{fill:url(#linear-gradient-3);}.cls-4{fill:url(#linear-gradient-4);}.cls-5{fill:url(#linear-gradient-5);}.cls-6{fill:url(#linear-gradient-6);}.cls-7{fill:url(#linear-gradient-7);}.cls-8{fill:url(#linear-gradient-8);}.cls-9{fill:url(#linear-gradient-9);}.cls-10{fill:url(#linear-gradient-10);}</style><linearGradient id="linear-gradient" x1="218.79" y1="82.62" x2="218.79" y2="342.63" gradientUnits="userSpaceOnUse"><stop offset="0" stop-color="#7df5d0"/><stop offset="1" stop-color="#209c8c"/></linearGradient><linearGradient id="linear-gradient-2" x1="78.81" y1="370.72" x2="78.81" y2="411.32" xlink:href="#linear-gradient"/><linearGradient id="linear-gradient-3" x1="122" y1="370.72" x2="122" y2="411.32" xlink:href="#linear-gradient"/><linearGradient id="linear-gradient-4" x1="169.42" y1="370.72" x2="169.42" y2="411.32" xlink:href="#linear-gradient"/><linearGradient id="linear-gradient-5" x1="219.79" y1="370.72" x2="219.79" y2="411.32" xlink:href="#linear-gradient"/><linearGradient id="linear-gradient-6" x1="257.01" y1="370.72" x2="257.01" y2="411.32" xlink:href="#linear-gradient"/><linearGradient id="linear-gradient-7" x1="289.95" y1="370.72" x2="289.95" y2="411.32" xlink:href="#linear-gradient"/><linearGradient id="linear-gradient-8" x1="331.31" y1="370.72" x2="331.31" y2="411.32" xlink:href="#linear-gradient"/><linearGradient id="linear-gradient-9" x1="373.13" y1="370.02" x2="373.13" y2="412.02" xlink:href="#linear-gradient"/><linearGradient id="linear-gradient-10" x1="421.05" y1="370.72" x2="421.05" y2="411.32" xlink:href="#linear-gradient"/></defs><title>asset</title><g id="Layer_6" data-name="Layer 6"><path class="cls-1" d="M159.46,265.22l75.43,38.21,24.38,24.38a50.59,50.59,0,0,0,71.54,0l1.62-1.62a50.59,50.59,0,0,0,0-71.54L308.58,230.8c0-.11-.09-.22-.15-.33l-37.8-74.63a3.81,3.81,0,0,0-1.83-3.61l-25.34-50C236.16,87.77,220.35,80,205,83.39c-8.71,1.9-19.69,7.79-22.55,25a44.58,44.58,0,0,0-.6,7.29A46.61,46.61,0,0,0,185,132.46c-10.27-2.36-27.29-4.22-38,5.47-6.18,5.57-9.27,14-9.27,25.19a83.35,83.35,0,0,0,1.73,16,41.94,41.94,0,0,0-27.83-.44C100.49,182.4,93.39,190.11,91.09,201a34.69,34.69,0,0,0-.76,7.21,36.32,36.32,0,0,0,20.08,32.21l4.81,2.43.18.2a3.82,3.82,0,0,0,2.41,1.11l40.72,20.63A3.81,3.81,0,0,0,159.46,265.22ZM124.8,239l36.11-36.11,29.68,23.35L160,256.88Zm136.89-83.86-29,29-23.35-29.68L243.86,120Zm21.48,42.42-22.31,22.31-23.35-29.68,27.83-27.83Zm18.48,36.48-16.6,16.6L265.65,226l21.18-21.18,14.75,29.12ZM262.6,273.14l-24.68-19.42,22.26-22.26,19.42,24.68Zm-30.76-24.2-29.68-23.35L232,195.7l23.35,29.68Zm-4.58-59.32-31.19,31.19-29.68-23.35,37.52-37.52Zm-30.58,41.44,29.68,23.35-23.95,23.95-35.2-17.83Zm42.21,65.79-.14-.08L209.63,282l22.82-22.82,24.68,19.42ZM190,109.68C191.8,99.1,197.23,93,206.65,90.9c11.92-2.6,24.24,3.46,30,14.76l3.6,7.11-35.62,35.62-6.38-8.11a41.42,41.42,0,0,1-2.54-3.61v0A39,39,0,0,1,190,109.68Zm-37.92,34c6.29-5.68,16.3-5.86,23.58-5a74.82,74.82,0,0,1,14.11,3.14q1.11,1.67,2.36,3.26l6.94,8.83L160.3,192.67l-8.52-6.7q-1.7-1.33-3.49-2.48C143.35,163.81,144.63,150.41,152.12,143.64Zm-38.23,89.88A28.62,28.62,0,0,1,98,208.17a27.09,27.09,0,0,1,.59-5.62c1.75-8.27,6.81-13.7,15.47-16.62a34.75,34.75,0,0,1,28.81,3.25l.28.17A37.71,37.71,0,0,1,147,192l7.8,6.13-37.25,37.25Z"/><path class="cls-2" d="M97.43,400.24c0,7-5.57,11.08-16.24,11.08h-21v-40.6H80c10.15,0,15.37,4.23,15.37,10.56A9.76,9.76,0,0,1,90,390.21,10,10,0,0,1,97.43,400.24ZM69.53,377.8v9.57h9.34c4.58,0,7.08-1.62,7.08-4.81s-2.49-4.76-7.08-4.76ZM88,399.26c0-3.42-2.61-5-7.48-5h-11v10h11C85.36,404.25,88,402.74,88,399.26Z"/><path class="cls-3" d="M131.31,402.62H112.45l-3.6,8.7H99.23l18.1-40.6h9.28l18.16,40.6H134.9Zm-3-7.13-6.44-15.55-6.44,15.55Z"/><path class="cls-4" d="M149,370.72h18.45c13.28,0,22.39,8,22.39,20.3s-9.11,20.3-22.39,20.3H149Zm18,32.89c8.06,0,13.34-4.81,13.34-12.59S175,378.43,167,378.43H158.4v25.17Z"/><path class="cls-5" d="M233.86,411.32,233.8,387,221.85,407h-4.23l-11.89-19.55v23.84h-8.82v-40.6h7.77L219.88,396l15-25.23h7.72l.12,40.6Z"/><path class="cls-6" d="M252.31,370.72h9.4v40.6h-9.4Z"/><path class="cls-7" d="M308.57,370.72v40.6h-7.71l-20.24-24.65v24.65h-9.28v-40.6h7.77l20.19,24.65V370.72Z"/><path class="cls-8" d="M326.61,378.38h-13v-7.66H349v7.66H336v32.95h-9.4Z"/><path class="cls-9" d="M350.92,391c0-12.06,9.4-21,22.22-21s22.22,8.87,22.22,21-9.45,21-22.22,21S350.92,403.09,350.92,391Zm34.92,0c0-7.71-5.45-13-12.7-13s-12.7,5.28-12.7,13,5.45,13,12.7,13S385.84,398.73,385.84,391Z"/><path class="cls-10" d="M439.67,370.72v40.6H432l-20.24-24.65v24.65h-9.28v-40.6h7.77l20.19,24.65V370.72Z"/></g></svg>