<svg id="Layer_1" data-name="Layer 1" xmlns="http://www.w3.org/2000/svg" xmlns:xlink="http://www.w3.org/1999/xlink" viewBox="0 0 500 500"><defs><style>.cls-1{fill:url(#linear-gradient);}.cls-2{fill:url(#linear-gradient-2);}.cls-3{fill:url(#linear-gradient-3);}.cls-4{fill:url(#linear-gradient-4);}.cls-5{fill:url(#linear-gradient-5);}.cls-6{fill:url(#linear-gradient-6);}</style><linearGradient id="linear-gradient" x1="76.85" y1="210.06" x2="568.08" y2="226.58" gradientUnits="userSpaceOnUse"><stop offset="0" stop-color="#7df6d2"/><stop offset="1" stop-color="#1f9c8b"/></linearGradient><linearGradient id="linear-gradient-2" x1="76.85" y1="210.06" x2="568.08" y2="226.58" xlink:href="#linear-gradient"/><linearGradient id="linear-gradient-3" x1="187.05" y1="364.08" x2="187.81" y2="449.1" xlink:href="#linear-gradient"/><linearGradient id="linear-gradient-4" x1="225.76" y1="363.73" x2="226.53" y2="448.75" xlink:href="#linear-gradient"/><linearGradient id="linear-gradient-5" x1="266.87" y1="363.36" x2="267.64" y2="448.38" xlink:href="#linear-gradient"/><linearGradient id="linear-gradient-6" x1="310.47" y1="362.97" x2="311.23" y2="447.99" xlink:href="#linear-gradient"/></defs><path class="cls-1" d="M372.68,215.89A122.71,122.71,0,0,1,218.36,334.36c3.91-7.06,7.95-14.27,9.78-17.3,4.12-6.77,12.05-15.72,18.54-18.32s11.28-6.19,12.44-8.95c.42-1,1.67-4.31,3.27-8.48l3.17,1.74-.94,9.37,6.17,3.16A6.74,6.74,0,0,0,276,296a12.52,12.52,0,0,0,6.83-5.91,13.36,13.36,0,0,0,1.31-10,6.69,6.69,0,0,0-3.41-4.1l-6.05-3.1-7.06,6.23L264,277c2.49-6.44,5.36-13.69,7.27-17.81,1.37-2.93,4.78-8.9,8.87-15.7l3.81,2.07-.94,9.38,6.16,3.16a6.74,6.74,0,0,0,5.17.42,12.48,12.48,0,0,0,6.83-5.91,13.31,13.31,0,0,0,1.31-10,6.68,6.68,0,0,0-3.4-4.1l-6.05-3.1L286,241.64l-3.46-2c6.65-10.89,14.29-22.79,17.79-27.48.81-1.1,1.83-2.34,3-3.68l4,2.18-.94,9.37,6.17,3.16a6.67,6.67,0,0,0,5.16.42,12.53,12.53,0,0,0,6.84-5.91,13.45,13.45,0,0,0,1.31-10,6.72,6.72,0,0,0-3.41-4.1l-6.05-3.1-7.06,6.24L306.39,205c7.68-8.56,18.34-19.67,20.94-26.66,3.43-9.19.21-15.73-4-19s-8.61-3.82-16.48-6.31-22.1-9.65-27.64-14.17-8.74-7.82-14.32-8.24-17.87,2.69-19.11,13.14c-.64,5.47-4.47,15.86-9.11,26.86l-3.12-1.71.94-9.37-6.17-3.16a6.69,6.69,0,0,0-5.17-.42,12.52,12.52,0,0,0-6.83,5.91,13.4,13.4,0,0,0-1.31,10,6.72,6.72,0,0,0,3.41,4.1l6.05,3.1,7.06-6.23,3.35,2c-3.76,8.66-7.81,17.35-11,24-1.27,2.64-2.78,5.48-4.45,8.42l-4.22-2.31.94-9.37-6.17-3.16a6.69,6.69,0,0,0-5.17-.42,12.48,12.48,0,0,0-6.83,5.91,13.4,13.4,0,0,0-1.31,10A6.69,6.69,0,0,0,200,212l6.05,3.1,7.06-6.24,3.94,2.32c-6.58,11-14.79,22.89-20.68,30.88l-4.21-2.3.94-9.37L187,227.23a6.7,6.7,0,0,0-5.17-.42,12.44,12.44,0,0,0-6.83,5.91,13.41,13.41,0,0,0-1.32,10,6.75,6.75,0,0,0,3.41,4.1l6.05,3.1,7.06-6.24,3.47,2c-.6.8-1.16,1.52-1.67,2.17-7.06,9-6.62,10.65-6,19.73s-7.37,24.43-7.37,24.43L170,308.78a122.61,122.61,0,1,1,202.64-92.89Z"/><path class="cls-2" d="M250.07,367.56c-83.63,0-151.67-68-151.67-151.67s68-151.67,151.67-151.67,151.67,68,151.67,151.67S333.7,367.56,250.07,367.56Zm0-293.64c-78.28,0-142,63.68-142,142s63.69,142,142,142,142-63.69,142-142S328.35,73.92,250.07,73.92Z"/><path class="cls-3" d="M202.51,411.09a9.13,9.13,0,0,1,1.77,5.7,8.42,8.42,0,0,1-3.72,7.37q-3.72,2.58-10.86,2.58H170.86V390.29h17.8q6.66,0,10.23,2.55a8.08,8.08,0,0,1,3.57,6.93,8.85,8.85,0,0,1-1.28,4.73,9,9,0,0,1-3.56,3.29A9.63,9.63,0,0,1,202.51,411.09Zm-23.27-14.45v8.59h8.38a8.48,8.48,0,0,0,4.74-1.09,3.65,3.65,0,0,0,1.61-3.23,3.59,3.59,0,0,0-1.61-3.2,8.66,8.66,0,0,0-4.74-1.07Zm14.86,22.65a3.74,3.74,0,0,0,1.69-3.38c0-3-2.23-4.53-6.71-4.53h-9.84v9h9.84A9.33,9.33,0,0,0,194.1,419.29Z"/><path class="cls-4" d="M234.69,418.93H217.77l-3.23,7.81h-8.65l16.25-36.45h8.33l16.29,36.45h-8.85ZM232,412.52l-5.78-13.95-5.78,13.95Z"/><path class="cls-5" d="M284,390.29v36.45h-6.93l-18.17-22.13v22.13h-8.33V390.29h7l18.12,22.13V390.29Z"/><path class="cls-6" d="M292.63,390.29h16.56a23.29,23.29,0,0,1,10.49,2.27,16.91,16.91,0,0,1,7.08,6.37,19.4,19.4,0,0,1,0,19.16,16.87,16.87,0,0,1-7.08,6.38,23.29,23.29,0,0,1-10.49,2.27H292.63Zm16.14,29.52a12.24,12.24,0,0,0,8.72-3,12.08,12.08,0,0,0,0-16.51,12.24,12.24,0,0,0-8.72-3h-7.7v22.59Z"/></svg>