<svg xmlns="http://www.w3.org/2000/svg" xmlns:xlink="http://www.w3.org/1999/xlink" viewBox="0 0 500 500"><defs><style>.cls-1{fill:url(#linear-gradient);}.cls-2{fill:url(#linear-gradient-2);}.cls-3{fill:url(#linear-gradient-3);}.cls-4{fill:url(#linear-gradient-4);}.cls-5{fill:url(#linear-gradient-5);}.cls-6{fill:url(#linear-gradient-6);}.cls-7{fill:url(#linear-gradient-7);}.cls-8{fill:url(#linear-gradient-8);}.cls-9{fill:url(#linear-gradient-9);}</style><linearGradient id="linear-gradient" x1="247.12" y1="70.67" x2="247.12" y2="142.98" gradientUnits="userSpaceOnUse"><stop offset="0" stop-color="#7df5d0"/><stop offset="1" stop-color="#209c8c"/></linearGradient><linearGradient id="linear-gradient-2" x1="247.12" y1="78.65" x2="247.12" y2="135.01" xlink:href="#linear-gradient"/><linearGradient id="linear-gradient-3" x1="247.13" y1="154.68" x2="247.13" y2="342.36" xlink:href="#linear-gradient"/><linearGradient id="linear-gradient-4" x1="247.13" y1="162.68" x2="247.13" y2="334.34" xlink:href="#linear-gradient"/><linearGradient id="linear-gradient-5" x1="154.04" y1="374.17" x2="154.04" y2="423.96" xlink:href="#linear-gradient"/><linearGradient id="linear-gradient-6" x1="204.21" y1="375" x2="204.21" y2="423.14" xlink:href="#linear-gradient"/><linearGradient id="linear-gradient-7" x1="249.36" y1="375" x2="249.36" y2="423.14" xlink:href="#linear-gradient"/><linearGradient id="linear-gradient-8" x1="296.88" y1="375" x2="296.88" y2="423.96" xlink:href="#linear-gradient"/><linearGradient id="linear-gradient-9" x1="351" y1="375" x2="351" y2="423.14" xlink:href="#linear-gradient"/></defs><title>asset</title><g id="Layer_5" data-name="Layer 5"><path class="cls-1" d="M318.63,143h-143a4,4,0,0,1-4-4V74.66a4,4,0,0,1,4-4h33.5a4,4,0,0,1,4,4v28.18h11.17V74.66a4,4,0,0,1,4-4h34.56a4,4,0,0,1,4,4v27.78h11.7V74.66a4,4,0,0,1,4-4h36.15a4,4,0,0,1,4,4V139A4,4,0,0,1,318.63,143Z"/><path class="cls-2" d="M179.6,135h135V78.65H286.47v27.78a4,4,0,0,1-4,4H262.81a4,4,0,0,1-4-4V78.65H232.24v28.18a4,4,0,0,1-4,4H209.11a4,4,0,0,1-4-4V78.65H179.6Z"/><path class="cls-3" d="M163.73,342.36a4,4,0,0,1-3.65-2.38,24.2,24.2,0,0,1,2.58-24.19,23.51,23.51,0,0,1,12.05-8.4,21.09,21.09,0,0,1,17.1-32l16.79-86.44a21.85,21.85,0,0,1-9.94-32.43,4,4,0,0,1,3.4-1.82l87.73,1.06a4,4,0,0,1,3.08,1.52c1.14,1.44,6.66,9.13,3.9,19a21.22,21.22,0,0,1-12.42,13.85l19.72,85.79a21.44,21.44,0,0,1,17.67,31.54,21,21,0,0,1,11.9,30.22,4,4,0,0,1-3.44,2.08L163.8,342.36Z"/><path class="cls-4" d="M193.54,283.28A13.85,13.85,0,0,0,181.92,289c-3.63,5.38-2.47,13.25,2.68,18.32a4,4,0,0,1-2.76,6.83c-.83,0-8.24.26-12.79,6.37a16.09,16.09,0,0,0-2.53,13.79l161-2.57a13.25,13.25,0,0,0-1.3-11.46c-3.89-6.13-11.16-6.13-11.46-6.13h0a4,4,0,0,1-2.77-6.87,13.57,13.57,0,0,0-10.69-23.45,4,4,0,0,1-4.27-3.08l-21.27-92.51a4,4,0,0,1,3.06-4.79,13.43,13.43,0,0,0,10.28-9.41,13.6,13.6,0,0,0-1.5-10.38l-83.24-1a14,14,0,0,0-1.1,8.95,14.81,14.81,0,0,0,11,10.83,4,4,0,0,1,2.89,4.61l-18.08,93a4,4,0,0,1-4.22,3.22Q194.16,283.28,193.54,283.28Z"/><path class="cls-5" d="M131.07,399.07c0-14.51,11.14-24.9,26.13-24.9,8.32,0,15.27,3,19.81,8.53l-7.15,6.6a15.49,15.49,0,0,0-12.1-5.64c-9,0-15.4,6.33-15.4,15.4s6.4,15.4,15.4,15.4a15.34,15.34,0,0,0,12.1-5.71l7.15,6.6c-4.54,5.57-11.49,8.6-19.87,8.6C142.21,424,131.07,413.58,131.07,399.07Z"/><path class="cls-6" d="M215.25,412.82H192.9l-4.26,10.32H177.22L198.67,375h11l21.52,48.14H219.51Zm-3.51-8.46-7.63-18.43-7.63,18.43Z"/><path class="cls-7" d="M243.79,384.07h-15.4V375h42v9.08h-15.4v39.06H243.79Z"/><path class="cls-8" d="M275.08,402V375h11.14v26.55c0,9.15,4,12.93,10.73,12.93s10.73-3.78,10.73-12.93V375h11v27c0,14.17-8.12,22-21.8,22S275.08,416.12,275.08,402Z"/><path class="cls-9" d="M360.36,423.14l-9.28-13.41H340.83v13.41H329.69V375h20.84c12.86,0,20.91,6.67,20.91,17.47,0,7.22-3.64,12.52-9.9,15.2l10.8,15.47ZM349.9,384.07h-9.08v16.78h9.08c6.81,0,10.25-3.16,10.25-8.39S356.71,384.07,349.9,384.07Z"/></g></svg>