<svg id="Layer_1" data-name="Layer 1" xmlns="http://www.w3.org/2000/svg" xmlns:xlink="http://www.w3.org/1999/xlink" viewBox="0 0 500 500"><defs><style>.cls-1{fill:url(#linear-gradient);}.cls-2{fill:url(#linear-gradient-2);}.cls-3{fill:url(#linear-gradient-3);}.cls-4{fill:url(#linear-gradient-4);}.cls-5{fill:url(#linear-gradient-5);}.cls-6{fill:url(#linear-gradient-6);}.cls-7{fill:url(#linear-gradient-7);}.cls-8{fill:url(#linear-gradient-8);}.cls-9{fill:url(#linear-gradient-9);}.cls-10{fill:url(#linear-gradient-10);}.cls-11{fill:url(#linear-gradient-11);}.cls-12{fill:url(#linear-gradient-12);}.cls-13{fill:url(#linear-gradient-13);}.cls-14{fill:url(#linear-gradient-14);}</style><linearGradient id="linear-gradient" x1="170.32" y1="401.34" x2="390.85" y2="248.88" gradientUnits="userSpaceOnUse"><stop offset="0" stop-color="#7df6d2"/><stop offset="1" stop-color="#1f9c8b"/></linearGradient><linearGradient id="linear-gradient-2" x1="105.17" y1="187.62" x2="437.61" y2="182.19" xlink:href="#linear-gradient"/><linearGradient id="linear-gradient-3" x1="334.04" y1="143.77" x2="407.36" y2="214.76" xlink:href="#linear-gradient"/><linearGradient id="linear-gradient-4" x1="367.91" y1="340.34" x2="366.75" y2="174.51" xlink:href="#linear-gradient"/><linearGradient id="linear-gradient-5" x1="103.85" y1="107.36" x2="436.3" y2="101.92" xlink:href="#linear-gradient"/><linearGradient id="linear-gradient-6" x1="103.89" y1="367.91" x2="108.48" y2="470.55" xlink:href="#linear-gradient"/><linearGradient id="linear-gradient-7" x1="130.85" y1="366.71" x2="135.44" y2="469.34" xlink:href="#linear-gradient"/><linearGradient id="linear-gradient-8" x1="159.16" y1="365.44" x2="163.76" y2="468.08" xlink:href="#linear-gradient"/><linearGradient id="linear-gradient-9" x1="192.61" y1="363.94" x2="197.21" y2="466.58" xlink:href="#linear-gradient"/><linearGradient id="linear-gradient-10" x1="225.3" y1="362.48" x2="229.9" y2="465.11" xlink:href="#linear-gradient"/><linearGradient id="linear-gradient-11" x1="277.67" y1="360.13" x2="282.27" y2="462.77" xlink:href="#linear-gradient"/><linearGradient id="linear-gradient-12" x1="311.5" y1="358.62" x2="316.1" y2="461.26" xlink:href="#linear-gradient"/><linearGradient id="linear-gradient-13" x1="351.58" y1="356.82" x2="356.17" y2="459.46" xlink:href="#linear-gradient"/><linearGradient id="linear-gradient-14" x1="392.55" y1="354.99" x2="397.14" y2="457.63" xlink:href="#linear-gradient"/></defs><path class="cls-1" d="M292.2,364.25a205.22,205.22,0,0,1-64.57-10.42c-3.85-1.29-7.72-2.71-11.45-4.08-9.58-3.51-18.62-6.83-28.2-8.39-14.88-2.43-28.21.57-36.58,8.23a3.8,3.8,0,1,1-5.13-5.61c10.1-9.24,25.75-12.93,42.93-10.12,10.3,1.68,20.11,5.28,29.59,8.76,3.69,1.35,7.5,2.75,11.25,4a197.14,197.14,0,0,0,82.23,9c10.93-1.14,24.81-3.5,35.25-11.71,9.05-7.11,15.61-21.92,15.61-35.22a3.8,3.8,0,0,1,7.6,0c0,15.69-7.61,32.63-18.51,41.19-12,9.42-27.22,12.05-39.16,13.3A201.39,201.39,0,0,1,292.2,364.25Z"/><path class="cls-2" d="M140.37,63.16V308.1H313.56V63.16ZM187.6,92.58h78.89a3.8,3.8,0,1,1,0,7.6H187.6a3.8,3.8,0,1,1,0-7.6Zm106.57,192.7H161.05a3.8,3.8,0,1,1,0-7.59H294.17a3.8,3.8,0,1,1,0,7.59Zm0-26.44H161.05a3.8,3.8,0,0,1,0-7.6H294.17a3.8,3.8,0,1,1,0,7.6Zm0-26.44H161.05a3.8,3.8,0,1,1,0-7.59H294.17a3.8,3.8,0,1,1,0,7.59Zm0-26.44H161.05a3.8,3.8,0,0,1,0-7.6H294.17a3.8,3.8,0,1,1,0,7.6Zm0-26.45H161.05a3.8,3.8,0,1,1,0-7.59H294.17a3.8,3.8,0,1,1,0,7.59Zm0-26.44H161.05a3.8,3.8,0,0,1,0-7.6H294.17a3.8,3.8,0,1,1,0,7.6Zm0-26.45H161.05a3.8,3.8,0,1,1,0-7.59H294.17a3.8,3.8,0,1,1,0,7.59Z"/><path class="cls-3" d="M395.54,176.29a27.91,27.91,0,1,1-27.91-27.9A27.87,27.87,0,0,1,395.54,176.29Z"/><path class="cls-4" d="M380.47,201.06l-1.66,107.63H355.06l-1.66-108.4a27.84,27.84,0,0,0,27.07.77Z"/><path class="cls-5" d="M394.31,118.44q3.4-9.15,6.05-18.54,1.49-5.33,2.71-10.72c.55-2.41,2-5.76-.67-7.31-2.52-1.45-6.33-1.65-9.15-2.24q-5.29-1.12-10.62-2.14-11-2.07-22-3.67c-1.2-.18-6.21,0-6.4,1.75q-1,9.09-2.12,18.17c-.49,3.87-.79,7.92-1.43,11.86-5.88-1.5-13.79-.41-16.91,4.66a8,8,0,0,0-.06,8.48c2,3,5.9,3.35,9.22,3,3.67-.37,7.49-1.55,10.18-4.17,3.12-3,4.15-7.52,4.82-11.66,1.54-9.56,2.61-19.23,3.64-28.87,4.71.74,9.4,1.53,14.08,2.41q4.75.9,9.51,1.89c3,.63,6.86.87,9.67,2.14s1,5.18.48,7.46q-1.11,4.83-2.42,9.59c-1.55,5.59-3.33,11.09-5.3,16.54a4,4,0,0,0-.81.42,22.24,22.24,0,0,0-8.44,1.37c-4.17,1.48-10.62,6-6.18,10.74,3.65,3.85,10.85,2.86,15.24,1.07A11.17,11.17,0,0,0,394.31,118.44Zm-49.62.5c-2.12.86-3.88-1.73-4.34-3.64a7.45,7.45,0,0,1,1.07-6,6.2,6.2,0,0,1,1.08-1.21c.13-.11.71-.42,1-.62.34.06.94.11,1.11.15a10.63,10.63,0,0,1,2.25,1,5.31,5.31,0,0,0,3.19.3c-.23,1-.5,2.08-.82,3.09C348.52,114.23,347.08,118,344.69,118.94Zm40.85,7.74c-.78,1.36-1.92,1.95-3,3h-.14c-.4-.39-1.61-.59-2.12-1-2.47-1.79-2.62-4.54-.55-6.69a10.1,10.1,0,0,1,2.72-2.12c1.26-.24,2.8,1.1,3.63,1.89a1.57,1.57,0,0,0,.71.32A9.89,9.89,0,0,1,385.54,126.68Z"/><path class="cls-6" d="M98.13,434.42a18.17,18.17,0,0,1-7.08-6.72,19.56,19.56,0,0,1,0-19.42,18.17,18.17,0,0,1,7.08-6.72,22.57,22.57,0,0,1,18.69-.75,17.14,17.14,0,0,1,6.43,4.79l-5.41,5a11.64,11.64,0,0,0-9.17-4.27,12.2,12.2,0,0,0-6,1.48A10.61,10.61,0,0,0,98.5,412a13,13,0,0,0,0,12.08,10.61,10.61,0,0,0,4.13,4.14,12.2,12.2,0,0,0,6,1.48,11.6,11.6,0,0,0,9.17-4.32l5.41,5a16.84,16.84,0,0,1-6.45,4.84,21.47,21.47,0,0,1-8.59,1.67A21,21,0,0,1,98.13,434.42Z"/><path class="cls-7" d="M128.93,399.77h8.43v36.44h-8.43Z"/><path class="cls-8" d="M170.19,401.38A13.07,13.07,0,0,1,175.68,420a12.38,12.38,0,0,1-5.49,4.58,20.52,20.52,0,0,1-8.41,1.59h-7.34v10H146V399.77h15.78A20.35,20.35,0,0,1,170.19,401.38Zm-3.1,16.27a5.7,5.7,0,0,0,2-4.66,5.77,5.77,0,0,0-2-4.71,8.89,8.89,0,0,0-5.78-1.64h-6.87v12.65h6.87A8.83,8.83,0,0,0,167.09,417.65Z"/><path class="cls-9" d="M190.15,406.64H178.49v-6.87h31.76v6.87H198.59v29.57h-8.44Z"/><path class="cls-10" d="M237,428.4H220l-3.23,7.81h-8.64l16.24-36.44h8.33L249,436.21h-8.85ZM234.3,422l-5.78-13.95L222.75,422Z"/><path class="cls-11" d="M267.57,399.77H276v29.57h18.27v6.87H267.57Z"/><path class="cls-12" d="M323.33,428.4H306.41l-3.23,7.81h-8.64l16.24-36.44h8.33l16.3,36.44h-8.85Zm-2.66-6.4-5.77-13.95L309.12,422Z"/><path class="cls-13" d="M363.32,417.42H371V432.2a21.94,21.94,0,0,1-6.87,3.44,26.64,26.64,0,0,1-7.86,1.2,21.35,21.35,0,0,1-10.21-2.42,18,18,0,0,1-7.1-6.72,19.56,19.56,0,0,1,0-19.42,18,18,0,0,1,7.15-6.72,21.81,21.81,0,0,1,10.31-2.42,22.51,22.51,0,0,1,8.7,1.62,17.26,17.26,0,0,1,6.56,4.68l-5.42,5a12.51,12.51,0,0,0-9.42-4.11,12.79,12.79,0,0,0-6.2,1.46,10.41,10.41,0,0,0-4.21,4.11,12.94,12.94,0,0,0,0,12.13,10.63,10.63,0,0,0,4.19,4.14,12.4,12.4,0,0,0,6.12,1.48,13.73,13.73,0,0,0,6.56-1.56Z"/><path class="cls-14" d="M382.87,432.52q-4.35-4.32-4.35-12.34V399.77H387v20.1q0,9.78,8.12,9.78a7.61,7.61,0,0,0,6-2.37c1.39-1.57,2.09-4,2.09-7.41v-20.1h8.33v20.41q0,8-4.35,12.34T395,436.84C389.82,436.84,385.76,435.4,382.87,432.52Z"/></svg>