<svg xmlns="http://www.w3.org/2000/svg" xmlns:xlink="http://www.w3.org/1999/xlink" viewBox="0 0 500 500"><defs><style>.cls-1{fill:url(#linear-gradient);}.cls-2{fill:none;stroke-miterlimit:10;stroke:url(#linear-gradient-2);}.cls-3{fill:url(#linear-gradient-3);}.cls-4{fill:url(#linear-gradient-4);}.cls-5{fill:url(#linear-gradient-5);}.cls-6{fill:url(#linear-gradient-6);}.cls-7{fill:url(#linear-gradient-7);}.cls-8{fill:url(#linear-gradient-8);}.cls-9{fill:url(#linear-gradient-9);}</style><linearGradient id="linear-gradient" x1="404.63" y1="354.22" x2="404.63" y2="404.86" gradientUnits="userSpaceOnUse"><stop offset="0" stop-color="#7df5d0"/><stop offset="1" stop-color="#209c8c"/></linearGradient><linearGradient id="linear-gradient-2" x1="149.85" y1="18.1" x2="149.85" y2="188.84" xlink:href="#linear-gradient"/><linearGradient id="linear-gradient-3" x1="198.23" y1="218" x2="393.41" y2="218" xlink:href="#linear-gradient"/><linearGradient id="linear-gradient-4" x1="198.08" y1="354.22" x2="198.08" y2="404.86" xlink:href="#linear-gradient"/><linearGradient id="linear-gradient-5" x1="251.98" y1="354.22" x2="251.98" y2="404.86" xlink:href="#linear-gradient"/><linearGradient id="linear-gradient-6" x1="304.14" y1="354.22" x2="304.14" y2="404.86" xlink:href="#linear-gradient"/><linearGradient id="linear-gradient-7" x1="358" y1="354.22" x2="358" y2="404.86" xlink:href="#linear-gradient"/><linearGradient id="linear-gradient-8" x1="121.81" y1="55.43" x2="121.81" y2="106.07" xlink:href="#linear-gradient"/><linearGradient id="linear-gradient-9" x1="165.14" y1="55.43" x2="165.14" y2="106.07" xlink:href="#linear-gradient"/></defs><title>asset</title><g id="Layer_10" data-name="Layer 10"><path class="cls-1" d="M398.77,363.77h-16.2v-9.55H426.7v9.55h-16.2v41.09H398.77Z"/><path id="_Path_" data-name="&lt;Path&gt;" class="cls-2" d="M203,147.73a23.49,23.49,0,0,0,23.49-23.49V42.09A23.49,23.49,0,0,0,203,18.6H96.66A23.49,23.49,0,0,0,73.16,42.09v82.14a23.49,23.49,0,0,0,23.49,23.49h34.11l56.49,39.73-15.87-39.73Z"/><path id="_Path_2" data-name="&lt;Path&gt;" class="cls-3" d="M328.89,220.31a62.66,62.66,0,1,0-66.14,0c-37.58,15.27-64.52,55.78-64.52,103.24v8H393.41v-8C393.41,276.09,366.47,235.58,328.89,220.31Z"/><path class="cls-4" d="M172.62,354.22h23c16.57,0,27.92,10,27.92,25.32s-11.36,25.32-27.92,25.32h-23Zm22.43,41c10.06,0,16.64-6,16.64-15.7s-6.58-15.7-16.64-15.7H184.34v31.4Z"/><path class="cls-5" d="M271.58,395.45v9.4H232.38V354.22h38.27v9.4H244v11h23.51v9.11H244v11.72Z"/><path class="cls-6" d="M327.36,391c0,8.75-6.94,13.82-20.25,13.82H280.92V354.22h24.74c12.66,0,19.17,5.28,19.17,13.17a12.17,12.17,0,0,1-6.73,11.14C323.74,380.33,327.36,384.67,327.36,391Zm-34.8-28V375h11.65c5.72,0,8.83-2,8.83-6s-3.11-5.93-8.83-5.93Zm23,26.77c0-4.27-3.25-6.29-9.33-6.29H292.56V396h13.67C312.31,396,315.57,394.15,315.57,389.81Z"/><path class="cls-7" d="M369.61,394H346.1l-4.49,10.85h-12l22.57-50.64h11.57l22.64,50.64h-12.3Zm-3.69-8.9-8-19.39-8,19.39Z"/><path class="cls-8" d="M116,55.43h11.72v50.64H116Z"/><path class="cls-9" d="M139.68,55.43h23c16.57,0,27.92,10,27.92,25.32s-11.36,25.32-27.92,25.32h-23Zm22.43,41c10.06,0,16.64-6,16.64-15.7s-6.58-15.7-16.64-15.7H151.4v31.4Z"/></g></svg>