<svg xmlns="http://www.w3.org/2000/svg" xmlns:xlink="http://www.w3.org/1999/xlink" viewBox="0 0 500 500"><defs><style>.cls-1{fill:none;stroke-miterlimit:10;stroke:url(#linear-gradient);}.cls-2{fill:url(#linear-gradient-2);}.cls-3{fill:url(#linear-gradient-3);}.cls-4{fill:url(#linear-gradient-4);}.cls-5{fill:url(#linear-gradient-5);}.cls-6{fill:url(#linear-gradient-6);}.cls-7{fill:url(#linear-gradient-7);}.cls-8{fill:url(#linear-gradient-8);}.cls-9{fill:url(#linear-gradient-9);}</style><linearGradient id="linear-gradient" x1="63.49" y1="103.14" x2="217.27" y2="103.14" gradientUnits="userSpaceOnUse"><stop offset="0" stop-color="#7df5d0"/><stop offset="1" stop-color="#209c8c"/></linearGradient><linearGradient id="linear-gradient-2" x1="188.57" y1="217.22" x2="382.98" y2="217.22" xlink:href="#linear-gradient"/><linearGradient id="linear-gradient-3" x1="188.42" y1="353.14" x2="188.42" y2="403.58" xlink:href="#linear-gradient"/><linearGradient id="linear-gradient-4" x1="242.11" y1="353.14" x2="242.11" y2="403.58" xlink:href="#linear-gradient"/><linearGradient id="linear-gradient-5" x1="294.06" y1="353.14" x2="294.06" y2="403.58" xlink:href="#linear-gradient"/><linearGradient id="linear-gradient-6" x1="347.71" y1="353.14" x2="347.71" y2="403.58" xlink:href="#linear-gradient"/><linearGradient id="linear-gradient-7" x1="395.02" y1="353.14" x2="395.02" y2="403.58" xlink:href="#linear-gradient"/><linearGradient id="linear-gradient-8" x1="111.33" y1="58.49" x2="111.33" y2="108.93" xlink:href="#linear-gradient"/><linearGradient id="linear-gradient-9" x1="163.28" y1="58.49" x2="163.28" y2="108.93" xlink:href="#linear-gradient"/></defs><title>asset</title><g id="Layer_11" data-name="Layer 11"><path id="_Path_" data-name="&lt;Path&gt;" class="cls-1" d="M193.36,147.22a23.4,23.4,0,0,0,23.4-23.4V42a23.4,23.4,0,0,0-23.4-23.4h-106A23.4,23.4,0,0,0,64,42v81.82a23.4,23.4,0,0,0,23.4,23.4h34l56.27,39.58-15.81-39.58Z"/><path id="_Path_2" data-name="&lt;Path&gt;" class="cls-2" d="M318.72,219.52a62.41,62.41,0,1,0-65.88,0c-37.43,15.21-64.27,55.56-64.27,102.84v8H383v-8C383,275.08,356.15,234.73,318.72,219.52Z"/><path class="cls-3" d="M163.06,353.14H186c16.5,0,27.81,9.94,27.81,25.22S202.48,403.58,186,403.58H163.06ZM185.4,394c10,0,16.57-6,16.57-15.64s-6.56-15.64-16.57-15.64H174.73V394Z"/><path class="cls-4" d="M261.64,394.21v9.37H222.58V353.14H260.7v9.37H234.18v11H257.6v9.08H234.18v11.67Z"/><path class="cls-5" d="M317.19,389.81c0,8.72-6.92,13.76-20.18,13.76H270.93V353.14h24.64c12.61,0,19.09,5.26,19.09,13.11a12.13,12.13,0,0,1-6.7,11.1C313.59,379.15,317.19,383.47,317.19,389.81Zm-34.66-27.89v11.89h11.6c5.69,0,8.79-2,8.79-6s-3.1-5.91-8.79-5.91Zm22.91,26.66c0-4.25-3.24-6.27-9.29-6.27H282.53v12.47h13.62C302.21,394.79,305.45,392.91,305.45,388.59Z"/><path class="cls-6" d="M359.28,392.77H335.86l-4.47,10.81h-12l22.48-50.44h11.53L376,403.58H363.75Zm-3.68-8.86-8-19.31-8,19.31Z"/><path class="cls-7" d="M389.19,362.65H373v-9.51h44v9.51H400.86v40.93H389.19Z"/><path class="cls-8" d="M130.86,99.56v9.37H91.8V58.49h38.12v9.37H103.4v11h23.42v9.08H103.4V99.56Z"/><path class="cls-9" d="M186.41,58.49v50.44h-9.58L151.68,78.3v30.62H140.15V58.49h9.66l25.08,30.62V58.49Z"/></g></svg>