<svg id="Layer_1" data-name="Layer 1" xmlns="http://www.w3.org/2000/svg" xmlns:xlink="http://www.w3.org/1999/xlink" viewBox="0 0 500 500"><defs><style>.cls-1{fill:url(#linear-gradient);}.cls-2{fill:url(#linear-gradient-2);}.cls-3{fill:url(#linear-gradient-3);}.cls-4{fill:url(#linear-gradient-4);}.cls-5{fill:url(#linear-gradient-5);}.cls-6{fill:url(#linear-gradient-6);}.cls-7{fill:url(#linear-gradient-7);}.cls-8{fill:url(#linear-gradient-8);}.cls-9{fill:url(#linear-gradient-9);}.cls-10{fill:url(#linear-gradient-10);}.cls-11{fill:url(#linear-gradient-11);}.cls-12{fill:url(#linear-gradient-12);}.cls-13{fill:url(#linear-gradient-13);}</style><linearGradient id="linear-gradient" x1="85.95" y1="182.14" x2="443.36" y2="182.98" gradientUnits="userSpaceOnUse"><stop offset="0" stop-color="#7df6d2"/><stop offset="1" stop-color="#1f9c8b"/></linearGradient><linearGradient id="linear-gradient-2" x1="164.01" y1="327.08" x2="166.05" y2="417.97" xlink:href="#linear-gradient"/><linearGradient id="linear-gradient-3" x1="202.65" y1="326.21" x2="204.69" y2="417.1" xlink:href="#linear-gradient"/><linearGradient id="linear-gradient-4" x1="235.83" y1="325.46" x2="237.87" y2="416.36" xlink:href="#linear-gradient"/><linearGradient id="linear-gradient-5" x1="272.22" y1="324.65" x2="274.26" y2="415.54" xlink:href="#linear-gradient"/><linearGradient id="linear-gradient-6" x1="301.07" y1="324" x2="303.11" y2="414.89" xlink:href="#linear-gradient"/><linearGradient id="linear-gradient-7" x1="330.62" y1="323.33" x2="332.67" y2="414.23" xlink:href="#linear-gradient"/><linearGradient id="linear-gradient-8" x1="158.87" y1="390.54" x2="156.58" y2="477.1" xlink:href="#linear-gradient"/><linearGradient id="linear-gradient-9" x1="199.11" y1="391.61" x2="196.81" y2="478.16" xlink:href="#linear-gradient"/><linearGradient id="linear-gradient-10" x1="237.96" y1="392.64" x2="235.66" y2="479.2" xlink:href="#linear-gradient"/><linearGradient id="linear-gradient-11" x1="269.42" y1="393.48" x2="267.12" y2="480.03" xlink:href="#linear-gradient"/><linearGradient id="linear-gradient-12" x1="304.31" y1="394.4" x2="302.01" y2="480.96" xlink:href="#linear-gradient"/><linearGradient id="linear-gradient-13" x1="341.24" y1="395.38" x2="338.95" y2="481.94" xlink:href="#linear-gradient"/></defs><path class="cls-1" d="M137.31,40.81V324.23H362.69V40.81Zm28.46,118.08,42.89-69A4.09,4.09,0,0,1,212.15,88h0a4.11,4.11,0,0,1,3.49,1.92l23.58,37.43,35.14-51a4.14,4.14,0,0,1,3.34-1.78,4.06,4.06,0,0,1,3.39,1.7l59.7,82.42a4.12,4.12,0,0,1-3.33,6.53H169.27a4.12,4.12,0,0,1-3.5-6.29Zm115.89,48.84a4.11,4.11,0,0,1-4.12,4.12H222.67a4.12,4.12,0,1,1,0-8.23h54.87A4.11,4.11,0,0,1,281.66,207.73Zm55.8,74.13H164.22a4.12,4.12,0,1,1,0-8.23H337.46a4.12,4.12,0,1,1,0,8.23Zm0-23.34H164.22a4.12,4.12,0,1,1,0-8.23H337.46a4.12,4.12,0,1,1,0,8.23Zm0-23.33H164.22a4.12,4.12,0,1,1,0-8.24H337.46a4.12,4.12,0,0,1,0,8.24Z"/><path class="cls-2" d="M147,359.64h16.55a23.23,23.23,0,0,1,10.49,2.27,17,17,0,0,1,7.09,6.37,19.47,19.47,0,0,1,0,19.16,17,17,0,0,1-7.09,6.38,23.23,23.23,0,0,1-10.49,2.27H147Zm16.14,29.52a12.25,12.25,0,0,0,8.72-3,12.11,12.11,0,0,0,0-16.51,12.25,12.25,0,0,0-8.72-3h-7.71v22.59Z"/><path class="cls-3" d="M218.25,389.32v6.77H190V359.64h27.54v6.77H198.41v7.91h16.92v6.56H198.41v8.44Z"/><path class="cls-4" d="M228.58,395.54a19.55,19.55,0,0,1-6.48-3.05l2.87-6.35a19.08,19.08,0,0,0,5.57,2.76,20.71,20.71,0,0,0,6.45,1,10.31,10.31,0,0,0,5.31-1.06A3.23,3.23,0,0,0,244,386a2.72,2.72,0,0,0-1-2.16,7.85,7.85,0,0,0-2.61-1.38c-1.06-.35-2.49-.73-4.29-1.15a59.13,59.13,0,0,1-6.82-2,11,11,0,0,1-4.56-3.17,8.56,8.56,0,0,1-1.9-5.83,10.13,10.13,0,0,1,1.72-5.76,11.52,11.52,0,0,1,5.18-4.08,21.09,21.09,0,0,1,8.46-1.51,28.3,28.3,0,0,1,6.82.83,20.25,20.25,0,0,1,5.83,2.39l-2.6,6.41a20.33,20.33,0,0,0-10.1-2.86,9.48,9.48,0,0,0-5.23,1.14,3.5,3.5,0,0,0-1.7,3,3,3,0,0,0,2,2.79,31,31,0,0,0,6,1.79,59.73,59.73,0,0,1,6.82,2,11.26,11.26,0,0,1,4.55,3.12,8.37,8.37,0,0,1,1.9,5.78,9.93,9.93,0,0,1-1.74,5.7,11.74,11.74,0,0,1-5.23,4.09,21.31,21.31,0,0,1-8.49,1.51A29.88,29.88,0,0,1,228.58,395.54Z"/><path class="cls-5" d="M282.18,388.28H265.26L262,396.09h-8.64l16.25-36.45H278l16.29,36.45h-8.85Zm-2.65-6.41-5.78-13.95L268,381.87Z"/><path class="cls-6" d="M298.06,359.64h8.44v36.45h-8.44Z"/><path class="cls-7" d="M348.56,359.64v36.45h-6.92L323.47,374v22.13h-8.33V359.64h7l18.12,22.13V359.64Z"/><path class="cls-8" d="M166.24,423.73a12.53,12.53,0,0,1,5.49,4.58,13.73,13.73,0,0,1,0,14,12.27,12.27,0,0,1-5.49,4.58,20.52,20.52,0,0,1-8.41,1.59h-7.34v10h-8.44V422.12h15.78A20.35,20.35,0,0,1,166.24,423.73ZM163.14,440a5.7,5.7,0,0,0,2-4.66,5.77,5.77,0,0,0-2-4.71,8.89,8.89,0,0,0-5.78-1.64h-6.87v12.65h6.87A8.83,8.83,0,0,0,163.14,440Z"/><path class="cls-9" d="M187.58,456.74a18.16,18.16,0,0,1-9.71-16.4,18.43,18.43,0,0,1,2.58-9.66,18.22,18.22,0,0,1,7.13-6.74,22.54,22.54,0,0,1,20.44,0,18.59,18.59,0,0,1,0,32.8,22.54,22.54,0,0,1-20.44,0Zm16.07-6.22a10.68,10.68,0,0,0,4.08-4.14,13,13,0,0,0,0-12.08,10.68,10.68,0,0,0-4.08-4.14,12.24,12.24,0,0,0-11.67,0,10.68,10.68,0,0,0-4.08,4.14,13,13,0,0,0,0,12.08,10.68,10.68,0,0,0,4.08,4.14,12.24,12.24,0,0,0,11.67,0Z"/><path class="cls-10" d="M227.72,458a19.55,19.55,0,0,1-6.48-3l2.87-6.35a19.59,19.59,0,0,0,5.57,2.76,21,21,0,0,0,6.45,1,10.3,10.3,0,0,0,5.31-1.07,3.22,3.22,0,0,0,1.72-2.83,2.75,2.75,0,0,0-1-2.17,7.85,7.85,0,0,0-2.61-1.38q-1.59-.51-4.29-1.14a59.13,59.13,0,0,1-6.82-2,11.11,11.11,0,0,1-4.56-3.18,8.54,8.54,0,0,1-1.9-5.83,10.2,10.2,0,0,1,1.72-5.75,11.59,11.59,0,0,1,5.18-4.09,21.26,21.26,0,0,1,8.46-1.51,27.76,27.76,0,0,1,6.82.84,20,20,0,0,1,5.83,2.39l-2.6,6.41a20.35,20.35,0,0,0-10.1-2.87,9.38,9.38,0,0,0-5.23,1.15,3.5,3.5,0,0,0-1.7,3,3,3,0,0,0,2,2.78,30.43,30.43,0,0,0,6,1.8,59.73,59.73,0,0,1,6.82,2,11.26,11.26,0,0,1,4.55,3.12,8.36,8.36,0,0,1,1.9,5.78,10,10,0,0,1-1.74,5.7,11.74,11.74,0,0,1-5.23,4.09,21.49,21.49,0,0,1-8.49,1.51A29.88,29.88,0,0,1,227.72,458Z"/><path class="cls-11" d="M264.35,429H252.69v-6.87h31.76V429H272.79v29.57h-8.44Z"/><path class="cls-12" d="M317.2,451.79v6.77H289V422.12h27.54v6.77H297.36v7.91h16.92v6.56H297.36v8.43Z"/><path class="cls-13" d="M347.13,458.56l-7-10.15h-7.75v10.15h-8.44V422.12h15.78a20.39,20.39,0,0,1,8.41,1.61,12,12,0,0,1,7.41,11.61A11.86,11.86,0,0,1,348,446.85l8.17,11.71ZM345,430.63a8.89,8.89,0,0,0-5.78-1.64h-6.87v12.7h6.87A8.78,8.78,0,0,0,345,440a6.57,6.57,0,0,0,0-9.4Z"/></svg>