<svg xmlns="http://www.w3.org/2000/svg" xmlns:xlink="http://www.w3.org/1999/xlink" viewBox="0 0 500 500"><defs><style>.cls-1,.cls-2,.cls-3,.cls-4,.cls-5,.cls-6{fill-rule:evenodd;}.cls-1{fill:url(#linear-gradient);}.cls-2{fill:url(#linear-gradient-2);}.cls-3{fill:url(#linear-gradient-3);}.cls-4{fill:url(#linear-gradient-4);}.cls-5{fill:url(#linear-gradient-5);}.cls-6{fill:url(#linear-gradient-6);}</style><linearGradient id="linear-gradient" x1="123.72" y1="369.75" x2="123.72" y2="417" gradientUnits="userSpaceOnUse"><stop offset="0" stop-color="#7df5d0"/><stop offset="1" stop-color="#209c8c"/></linearGradient><linearGradient id="linear-gradient-2" x1="191.82" y1="368.86" x2="191.82" y2="416.78" xlink:href="#linear-gradient"/><linearGradient id="linear-gradient-3" x1="252.91" y1="368.97" x2="252.91" y2="415.82" xlink:href="#linear-gradient"/><linearGradient id="linear-gradient-4" x1="310.72" y1="367.94" x2="310.72" y2="415.95" xlink:href="#linear-gradient"/><linearGradient id="linear-gradient-5" x1="382.22" y1="368.95" x2="382.22" y2="415.77" xlink:href="#linear-gradient"/><linearGradient id="linear-gradient-6" x1="248.62" y1="83" x2="248.62" y2="357.44" xlink:href="#linear-gradient"/></defs><title>asset</title><g id="Layer_4" data-name="Layer 4"><path class="cls-1" d="M112.82,373.22l.23,36.85c4,7.26,22.09,3.41,25.68-5.43,4.18-10.28,4.51-33.54-25.91-31.42Zm-13.93-3.47v1.36s5.34-.82,6.25,2.63c.09,2.26-.14,38.18-.14,38.18s-.27,3.26-5.07,3.13a2.16,2.16,0,0,1,0,.66s11.76-.27,17,.68c38.12,6.88,41.86-46,10.62-46.34l-28.67-.29Z"/><path class="cls-2" d="M189.45,371.91c10.11-.68,18.75,9.6,18.75,20,.23,10.73-2.55,21-13.16,22-8.84,0-17.86-4.22-19.94-20.88,0-10.41,2.5-20.32,14.35-21.13Zm2.08-3c13,0,25.48,7.83,25.48,23.14s-12.11,24.78-25.12,24.78-25.27-8.33-25.27-23.64,11.9-24.28,24.91-24.28Z"/><path class="cls-3" d="M233.81,369l-1.4,6.39a5.64,5.64,0,0,0,.09,3.35c.54-1.45.63-3.71,3.85-5,3.26-.14,12.86-.14,12.86-.14L249,412.18s-.07,3.4-4.87,2.94c0,.57,0,.7,0,.7l19.66-.09,0-.72s-6.11.88-6.43-2.81c0-1.95-.36-38.61-.36-38.61l11.32.27s3.9.09,3.85,4.85c.54.32.86-.14.91-.68s.23-6.48.23-6.48,1-2-.27-2.22a11.6,11.6,0,0,1-3.4.63l-32.84,0a8.53,8.53,0,0,0-2.94-1Z"/><path class="cls-4" d="M308.2,381.37l-8.15,21,15.67-.18-7.52-20.83Zm1-12.58L291.64,412a6.84,6.84,0,0,1-6.7,3.28c0,.39,0,.59,0,.59l16.06,0,0-.84s-5.19.41-4.51-2.17c.63-2.17,2.51-7.38,2.51-7.38l18,0,3.53,8.38s.41,1-1.27,1.09c0,.63,0,.71,0,.71l16,.23,0-1s-3.85,1.09-6-1.86c-1.59-2.67-3.85-7.56-3.85-7.56a7.61,7.61,0,0,0,3.85-.63,19.62,19.62,0,0,1,7.2-1.36c.41-.5-.09-1-1.27-1.13s-11.1-.09-11.1-.09L310.55,369s-.72-2.17-1.34-.17Z"/><path class="cls-5" d="M370.15,381.64s-1.45-8-1.09-9.87c12.27-7.2,39.31-1.09,21.83,23.91a104.48,104.48,0,0,1-15.76,14.95c5,.08,13.94-.26,16-.34,5.48-.22,5.29-6.76,7.17-6.81l-1.65,9.62s0,2.85-3.35,2.58c-3.31,0-26.22.09-26.22.09s-2.17,0-.18-1.68c3.29-3.11,21.75-17.32,21.18-32.2-.49-12.67-15.46-14.5-18-.25Z"/><path class="cls-6" d="M164.39,246.9a68.28,68.28,0,0,1,7,5.4l20.94,19.42c4.37,4.16,15.55,15.45,19.85,20.45,2.93,3.41,4.21,3.78,6.36,7.15-.79.29-10.57,2.54-16.26,4.5-11.85,4.07-22.63,10.6-32.95,7.11-1.54-.52-8.57-7.23-11.79-9.5l-5.91-4.14c-6.28-4.39-8.08-1.37.26-20.8,2.18-5.08,4-9.66,6.1-14.64,1.81-4.35,4.31-11.38,6.41-14.94ZM314.83,129.59c4.31,1.5,14.75,7.46,17.31,10.67,2.15,2.7,1.53,3,.73,6.84l-4.25,33.23c-5.88.22-4.18-.49-7.83-2.93-6.12-4.1-27.1-19.6-33.83-25L274,142c1-.89-.33-.43,1.83-1L295,136.65c10-2.5,11.54-3.16,19.82-7.06Zm-171.94,6.69c4.39-2.47,6.73-.59,14.15-6,2-1.44,6.56-1.3,9.33-.92s9.5,5.92,12.54,7.78c1.76,1.08,9.66,7.11,10.95,9.2l3.9,6.3c5.38.26,4.43,0,11.22,4.92l65,42.87c14,9.71,30.27,19.62,44.31,29.4l40,26.2c-1.15,2.48-2.51,11.06-3.26,14.48-3.47,15.74-7.83,22.41-14.89,37.54-10.14.4-18.15.32-28.06.16-3.21-.05-2.42.62-4.17-1.08-5.8-5.62-16.36-18-22.23-23.66-2-2-3.85-3.81-5.86-6-16.23-17.29-8.55-12.08-11.72-16.39l-32.65-30.86c-7.5-7.29-14.25-15.14-22-23.35-2-2.11-3-4.1-5.06-6l-.57-.52a8.47,8.47,0,0,1-.86-.91l-9.49-10.78a24.21,24.21,0,0,1-2.74-2.88l-8.53-8.8c-1.88-2-3.34-4-5.12-6.13l-8.15-8.65c-1.21-1.23-2.09-1.6-3.29-2.85-3.88-4-7.14-7.9-11.05-11.93-3.14-3.23-10.77-9.43-11.67-11.24ZM182,88.05l-67,1.38c-3.61,13.34,0,6.59,0,20.51v25.21c-.55,7.28-2.47,11-2.46,20.73,0,3.28-.72,10.8.85,13.37,2.79,4.55,2.72,8.4,3.9,15,1,5.84,2.18,5.22-.45,9.62L115.62,205l5.73,5.6,0,9.79c-3.41,3.12.41.9-6.8,6.1l.64,29.58,7.1,5.15-1.48,25.22c-7.49,5.37-5.88,11.87-5.64,18.56l.92,25.15L114.47,343c16.77,4.22,13.1,2.91,32.27,2.91,16.94,0,14.76.17,31.5-1.86l.43,2.86c2.6-.17,5.28-.31,7.83-.56,7.13-.69,4.28-1.52,6.73-2.41,1.77-.64,20.87,3.79,24,4.46,1.71-1.92.84-1.14,3.23-2.69,1.29,2.73,6.82,9,9.06,11.71l6.92-6.49,12.1,4.7,3.54-3c1.38,1.63,2.22,3.69,4.69,4,3.59.47,4.18-5.48,12.1-5.63l46-1.53L316.4,348l2.35-1.91c3,1.82,4.31,3.57,8.45,3.3,12.67-.84,6,3.07,22.4,2.19,2.82-.15,2.12-.84,4.61-1.72l5.31-.82c-1.15-3.09-1.89-2.66-4.19-5l29.11,5.89c-.39-34.27-.32-76.07.12-111.33l-7.83.58c.28-2.29,3.69-1.43,4-6,.34-5.8.28-25.65-.57-29.89-.43-2.17-6-8.49-7.43-10.46,1.76-4.78,1.93-4.46,5.18-8.35-.27-2.56-.87-3.25-2-6.16l8.53-2.8c.09-4.91.65-24.6.33-30.82l-3.46-33.62,2.64-8.4.11-8.64c-7.37-4.25-6.41-4.72-11.52-4.68a73.73,73.73,0,0,1-15.18-1.22c-5.65-1.29-4.13-2.21-10.33,4.15l-2.81-6.12c-8.85-.66-37.21-3.13-44-3.13-8.62,0-7.37.65-10.29,10.44L277.6,94.72l-1.65-5.35-11.22-.13,1.19-1.31c2.19-2.09,1.42-1.25,3.14-4.93H224a13,13,0,0,1-7.43,5.92c-4.49,1.49-2.27-.91-5.11,1.63-2.12,1.91-2.49,1.79-5.84,1.72-4.45-.09-9-.23-13.45-.42a34.32,34.32,0,0,1-6.27-.34c-3-.72-2.15-1.5-3.81-3.47Z"/></g></svg>