<svg id="Layer_1" data-name="Layer 1" xmlns="http://www.w3.org/2000/svg" xmlns:xlink="http://www.w3.org/1999/xlink" viewBox="0 0 500 500"><defs><style>.cls-1{fill:url(#linear-gradient);}.cls-2{fill:url(#linear-gradient-2);}.cls-3{fill:url(#linear-gradient-3);}.cls-4{fill:url(#linear-gradient-4);}.cls-5{fill:url(#linear-gradient-5);}.cls-6{fill:url(#linear-gradient-6);}.cls-7{fill:url(#linear-gradient-7);}.cls-8{fill:url(#linear-gradient-8);}.cls-9{fill:url(#linear-gradient-9);}.cls-10{fill:url(#linear-gradient-10);}.cls-11{fill:url(#linear-gradient-11);}.cls-12{fill:url(#linear-gradient-12);}.cls-13{fill:url(#linear-gradient-13);}.cls-14{fill:url(#linear-gradient-14);}.cls-15{fill:url(#linear-gradient-15);}.cls-16{fill:url(#linear-gradient-16);}.cls-17{fill:url(#linear-gradient-17);}.cls-18{fill:url(#linear-gradient-18);}.cls-19{fill:url(#linear-gradient-19);}.cls-20{fill:url(#linear-gradient-20);}.cls-21{fill:url(#linear-gradient-21);}.cls-22{fill:url(#linear-gradient-22);}</style><linearGradient id="linear-gradient" x1="197.84" y1="338.29" x2="197.84" y2="404.16" gradientUnits="userSpaceOnUse"><stop offset="0" stop-color="#7df6d2"/><stop offset="1" stop-color="#1f9c8b"/></linearGradient><linearGradient id="linear-gradient-2" x1="231.47" y1="338.29" x2="231.47" y2="404.16" xlink:href="#linear-gradient"/><linearGradient id="linear-gradient-3" x1="270.28" y1="338.29" x2="270.28" y2="404.16" xlink:href="#linear-gradient"/><linearGradient id="linear-gradient-4" x1="307.46" y1="338.29" x2="307.46" y2="404.16" xlink:href="#linear-gradient"/><linearGradient id="linear-gradient-5" x1="139.02" y1="398.72" x2="138.51" y2="460" xlink:href="#linear-gradient"/><linearGradient id="linear-gradient-6" x1="174.88" y1="399.02" x2="174.37" y2="460.3" xlink:href="#linear-gradient"/><linearGradient id="linear-gradient-7" x1="203.18" y1="399.26" x2="202.67" y2="460.54" xlink:href="#linear-gradient"/><linearGradient id="linear-gradient-8" x1="232.75" y1="399.51" x2="232.24" y2="460.78" xlink:href="#linear-gradient"/><linearGradient id="linear-gradient-9" x1="269.74" y1="399.81" x2="269.23" y2="461.09" xlink:href="#linear-gradient"/><linearGradient id="linear-gradient-10" x1="294.49" y1="400.02" x2="293.98" y2="461.3" xlink:href="#linear-gradient"/><linearGradient id="linear-gradient-11" x1="324.06" y1="400.27" x2="323.55" y2="461.54" xlink:href="#linear-gradient"/><linearGradient id="linear-gradient-12" x1="364.72" y1="400.61" x2="364.21" y2="461.88" xlink:href="#linear-gradient"/><linearGradient id="linear-gradient-13" x1="108.54" y1="253.33" x2="507.61" y2="222.69" xlink:href="#linear-gradient"/><linearGradient id="linear-gradient-14" x1="105.13" y1="208.87" x2="504.19" y2="178.23" xlink:href="#linear-gradient"/><linearGradient id="linear-gradient-15" x1="111.01" y1="285.52" x2="510.08" y2="254.88" xlink:href="#linear-gradient"/><linearGradient id="linear-gradient-16" x1="115.22" y1="340.26" x2="514.28" y2="309.62" xlink:href="#linear-gradient"/><linearGradient id="linear-gradient-17" x1="111.02" y1="285.57" x2="510.08" y2="254.93" xlink:href="#linear-gradient"/><linearGradient id="linear-gradient-18" x1="109.68" y1="268.14" x2="508.74" y2="237.5" xlink:href="#linear-gradient"/><linearGradient id="linear-gradient-19" x1="110.72" y1="281.71" x2="509.78" y2="251.07" xlink:href="#linear-gradient"/><linearGradient id="linear-gradient-20" x1="99.09" y1="130.18" x2="498.15" y2="99.55" xlink:href="#linear-gradient"/><linearGradient id="linear-gradient-21" x1="95.64" y1="85.33" x2="494.71" y2="54.69" xlink:href="#linear-gradient"/><linearGradient id="linear-gradient-22" x1="105.55" y1="214.41" x2="504.62" y2="183.77" xlink:href="#linear-gradient"/></defs><path class="cls-1" d="M192.5,357.23v9.63h16.87v6.77H192.5V386.9h-8.43V350.46h27.54v6.77Z"/><path class="cls-2" d="M239.83,379.09H222.91l-3.23,7.81H211l16.24-36.44h8.33l16.3,36.44h-8.85Zm-2.66-6.4-5.78-13.95-5.78,13.95Z"/><path class="cls-3" d="M262.55,385.11a18.17,18.17,0,0,1-7.08-6.72,19.63,19.63,0,0,1,0-19.42,18.17,18.17,0,0,1,7.08-6.72,22.57,22.57,0,0,1,18.69-.75,17.06,17.06,0,0,1,6.43,4.79l-5.41,5A11.64,11.64,0,0,0,273.1,357a12.15,12.15,0,0,0-6,1.48,10.57,10.57,0,0,0-4.14,4.14,13,13,0,0,0,0,12.08,10.57,10.57,0,0,0,4.14,4.14,12.15,12.15,0,0,0,6,1.48,11.6,11.6,0,0,0,9.16-4.32l5.41,5a16.77,16.77,0,0,1-6.45,4.84,21.44,21.44,0,0,1-8.59,1.67A21,21,0,0,1,262.55,385.11Z"/><path class="cls-4" d="M321.57,380.13v6.77H293.35V350.46h27.54v6.77H301.73v7.91h16.92v6.56H301.73v8.43Z"/><path class="cls-5" d="M147.23,414.55a12,12,0,0,1,7.42,11.61,12.67,12.67,0,0,1-1.92,7,12.29,12.29,0,0,1-5.5,4.58,20.52,20.52,0,0,1-8.41,1.59h-7.34v10.05h-8.43V412.93h15.77A20.19,20.19,0,0,1,147.23,414.55Zm-3.1,16.27a6.53,6.53,0,0,0,0-9.37,8.78,8.78,0,0,0-5.77-1.64h-6.88v12.65h6.88A8.84,8.84,0,0,0,144.13,430.82Z"/><path class="cls-6" d="M182.82,441.57H165.9l-3.23,7.81H154l16.24-36.45h8.33l16.3,36.45h-8.85Zm-2.66-6.4-5.78-14-5.78,14Z"/><path class="cls-7" d="M198.7,412.93h8.43v36.45H198.7Z"/><path class="cls-8" d="M249.2,412.93v36.45h-6.93L224.1,427.25v22.13h-8.33V412.93h7l18.12,22.13V412.93Z"/><path class="cls-9" d="M265.39,419.81H253.73v-6.88h31.76v6.88H273.82v29.57h-8.43Z"/><path class="cls-10" d="M290,412.93h8.43v36.45H290Z"/><path class="cls-11" d="M340.52,412.93v36.45h-6.93l-18.17-22.13v22.13h-8.33V412.93h7l18.12,22.13V412.93Z"/><path class="cls-12" d="M373.79,430.58h7.7v14.79a22.15,22.15,0,0,1-6.87,3.44,27,27,0,0,1-7.86,1.19,21.24,21.24,0,0,1-10.21-2.42,17.93,17.93,0,0,1-7.1-6.71,19.56,19.56,0,0,1,0-19.42,17.82,17.82,0,0,1,7.15-6.72,21.78,21.78,0,0,1,10.31-2.42,22.7,22.7,0,0,1,8.7,1.61,17.28,17.28,0,0,1,6.56,4.69l-5.42,5a12.52,12.52,0,0,0-9.42-4.12,12.9,12.9,0,0,0-6.2,1.46,10.44,10.44,0,0,0-4.21,4.12,12.94,12.94,0,0,0,0,12.13,10.63,10.63,0,0,0,4.19,4.14,12.51,12.51,0,0,0,6.12,1.48,13.73,13.73,0,0,0,6.56-1.56Z"/><path class="cls-13" d="M247,327.79a107.9,107.9,0,0,1-64.83-21.41,108.86,108.86,0,0,1-30.55-139.74,4.51,4.51,0,0,1,6.1-1.78c.87.47,1.78.92,2.71,1.33,11.11,4.87,23.3,4.62,35.09,4.38L321,168c5.44-.1,11.6-.22,17.21-1.71a4.49,4.49,0,0,1,5.14,2.26,108.93,108.93,0,0,1-.23,101.31,4.53,4.53,0,0,1-3.91,2.4,3.27,3.27,0,0,0-2.37.73,4.43,4.43,0,0,1-.82.74c-.27.26-1.28,1.47-.84,4.56a13.07,13.07,0,0,0,.25,1.31,4.53,4.53,0,0,1-.76,3.72l-.3.39a108.63,108.63,0,0,1-87.44,44Zm-89.45-153A99.8,99.8,0,0,0,326.28,279.56h0c-1.09-7.63,2.53-11.52,4.17-12.86a11.52,11.52,0,0,1,5.8-3.09,100,100,0,0,0,.69-87.77A95.19,95.19,0,0,1,321.2,177l-125.55,2.53C183.71,179.82,170.21,180.09,157.5,174.75ZM339.16,267.8h0Z"/><circle class="cls-14" cx="207.19" cy="201.03" r="13.49"/><path class="cls-15" d="M333.89,270.69,330,267.17a5,5,0,0,1,.9-.8Z"/><path class="cls-16" d="M422.36,376.45c-.28,0-.57,0-.88,0-4.14-.35-8.42-3.2-12.72-8.48-3.05-3.77-14.67-14.48-27-25.81C354.6,317,333.47,297.2,329.38,289a35,35,0,0,1-2.69-7.22,21,21,0,0,1-.41-2.17c-1.09-7.63,2.53-11.52,4.17-12.86a12.17,12.17,0,0,1,8.64-3.41c4-.09,8.62,1.43,13.57,4.51,5.66,3.52,16.62,16.26,37.83,44,3.42,4.47,6.82,8.94,10.08,13.23,10.12,13.34,19.68,25.93,23.13,29.33,4.81,4.73,7.25,9.22,7.25,13.35a9.06,9.06,0,0,1-2.57,6.5l-.21.19A8.86,8.86,0,0,1,422.36,376.45ZM335.51,274.58a6.79,6.79,0,0,0-.31,3.75,13.07,13.07,0,0,0,.25,1.31,25.78,25.78,0,0,0,2,5.31c3.67,7.42,30.71,32.35,50.45,50.55,13.63,12.56,24.39,22.48,27.85,26.75,3.08,3.78,5.2,4.9,6.18,5.15-.14-1-1.05-3.21-4.55-6.64-3.91-3.86-12.77-15.53-24-30.3-3.25-4.28-6.64-8.75-10.05-13.21-7.9-10.32-28.87-37.72-35.43-41.81-4.29-2.66-7.06-3.17-8.65-3.14a3.31,3.31,0,0,0-2.4.73Z"/><path class="cls-17" d="M334.28,270.81,330.1,267a5.68,5.68,0,0,1,.77-.72Z"/><path class="cls-18" d="M322.15,279.45a11.92,11.92,0,0,1-1.8-.13,20.3,20.3,0,0,1-13.21-8.45,39.93,39.93,0,0,1-5.72-12.79c-1.28-4.47-2.66-10.39-1.95-16.48.8-6.82,4.13-12.59,9.15-15.84a4.5,4.5,0,0,1,6.66,5.37,8.62,8.62,0,0,0,2.89,9.63c2,1.45,4.81,2.12,7.77,2.83.7.17,1.4.33,2.09.51,4,1,9.77,3,12.88,8.15,2.89,4.79,2.39,10.81-1.38,16.52C335.87,274.31,328.94,279.45,322.15,279.45Zm-13.78-36.39c-.41,4.39.69,9,1.71,12.55a31.69,31.69,0,0,0,4.34,9.95,11.34,11.34,0,0,0,7.18,4.85c2.63.36,7.54-2.25,10.41-6.6.85-1.28,2.65-4.5,1.19-6.91h0c-1.06-1.76-3.42-3-7.41-4.08l-1.94-.47c-3.52-.85-7.5-1.8-11-4.29A16.77,16.77,0,0,1,308.37,243.06Z"/><path class="cls-19" d="M247,291.35c-43.25,0-44.25-36.65-44.26-37l9-.14c0,1.15,1,28.15,35.25,28.15s35.23-27,35.25-28.15l9,.14C291.2,254.7,290.2,291.35,247,291.35Z"/><path class="cls-20" d="M187.84,179.68c-10.08,0-20.85-.76-31.08-5.25-1.16-.51-2.3-1.06-3.39-1.66-13-7-22.59-19.76-26.25-35C119.47,106,139.19,72.62,161.94,64c29.33-11.07,61.51-.86,92,10.55a4.52,4.52,0,0,1,2.92,4,4.5,4.5,0,0,1,4.85-1.09l4.08,1.57c19.8,7.58,38.51,14.75,55.71,17l2.69.33c8.8,1.09,17.89,2.22,26.4,7.61,10.92,6.91,17.94,20.16,17.89,33.75h0c-.07,15.41-9.07,27.73-18,33.11a38.42,38.42,0,0,1-9.93,4.16c-6.67,1.77-13.4,1.9-19.35,2l-125.55,2.53C193.11,179.63,190.5,179.68,187.84,179.68ZM189.29,68.3a67.81,67.81,0,0,0-24.17,4.15c-18.84,7.12-35.72,36.3-29.24,63.24,3.06,12.73,11,23.35,21.77,29.16.89.48,1.8.93,2.73,1.34,11.11,4.87,23.3,4.62,35.09,4.38L321,168c5.44-.1,11.6-.22,17.21-1.71a29.39,29.39,0,0,0,7.6-3.17c6.73-4.07,13.55-13.52,13.6-25.44s-6.84-21.76-13.7-26.1-14.52-5.27-22.68-6.28L320.3,105c-18.26-2.36-37.45-9.72-57.77-17.51l-.88-.33a83.86,83.86,0,0,1-7.82,8.71,4.5,4.5,0,0,1-7.52-4.27,67.53,67.53,0,0,0,1.35-9.73C228.25,74.69,208.24,68.3,189.29,68.3Zm174.64,69.44h0Z"/><path class="cls-21" d="M250.69,97.15a4.59,4.59,0,0,1-2.23-.59,4.51,4.51,0,0,1-2.15-5,70.61,70.61,0,0,0,1.51-12.92c.16-6.31-.52-15.2-4.67-21.78A4.49,4.49,0,0,1,247.48,50L270,52.7A4.49,4.49,0,0,1,274,57c0,.5.24,12.35-10.22,27.27a80.92,80.92,0,0,1-9.92,11.56A4.5,4.5,0,0,1,250.69,97.15Zm3.71-37.23a55.8,55.8,0,0,1,2.43,18.57,47.7,47.7,0,0,0,7.67-17.37Z"/><path class="cls-22" d="M297.71,208.19a4.49,4.49,0,0,1-3.88-2.2s-3.09-4.91-8.11-4.91-7.58,4.6-7.69,4.8a4.5,4.5,0,0,1-7.89-4.34c.21-.39,5.28-9.47,15.58-9.47s15.63,8.94,15.85,9.32a4.5,4.5,0,0,1-1.57,6.17A4.45,4.45,0,0,1,297.71,208.19Z"/></svg>