<svg id="Layer_1" data-name="Layer 1" xmlns="http://www.w3.org/2000/svg" xmlns:xlink="http://www.w3.org/1999/xlink" viewBox="0 0 500 500"><defs><style>.cls-1{fill:url(#linear-gradient);}.cls-2{fill:url(#linear-gradient-2);}.cls-3{fill:url(#linear-gradient-3);}.cls-4{fill:url(#linear-gradient-4);}.cls-5{fill:url(#linear-gradient-5);}.cls-6{fill:url(#linear-gradient-6);}.cls-7{fill:url(#linear-gradient-7);}.cls-8{fill:url(#linear-gradient-8);}.cls-9{fill:url(#linear-gradient-9);}.cls-10{fill:url(#linear-gradient-10);}.cls-11{fill:url(#linear-gradient-11);}.cls-12{fill:url(#linear-gradient-12);}.cls-13{fill:url(#linear-gradient-15);}</style><linearGradient id="linear-gradient" x1="107.81" y1="373.55" x2="107.81" y2="420.88" gradientUnits="userSpaceOnUse"><stop offset="0" stop-color="#7df6d2"/><stop offset="1" stop-color="#1f9c8b"/></linearGradient><linearGradient id="linear-gradient-2" x1="144.6" y1="373.55" x2="144.6" y2="420.88" xlink:href="#linear-gradient"/><linearGradient id="linear-gradient-3" x1="182.13" y1="373.55" x2="182.13" y2="420.88" xlink:href="#linear-gradient"/><linearGradient id="linear-gradient-4" x1="219.67" y1="373.55" x2="219.67" y2="420.88" xlink:href="#linear-gradient"/><linearGradient id="linear-gradient-5" x1="261.32" y1="373.55" x2="261.32" y2="420.88" xlink:href="#linear-gradient"/><linearGradient id="linear-gradient-6" x1="302.25" y1="373.55" x2="302.25" y2="420.88" xlink:href="#linear-gradient"/><linearGradient id="linear-gradient-7" x1="340.02" y1="373.55" x2="340.02" y2="420.88" xlink:href="#linear-gradient"/><linearGradient id="linear-gradient-8" x1="378.02" y1="373.55" x2="378.02" y2="420.88" xlink:href="#linear-gradient"/><linearGradient id="linear-gradient-9" x1="401.74" y1="373.55" x2="401.74" y2="420.88" xlink:href="#linear-gradient"/><linearGradient id="linear-gradient-10" x1="46.92" y1="236.14" x2="455.94" y2="233.84" xlink:href="#linear-gradient"/><linearGradient id="linear-gradient-11" x1="46.92" y1="236.13" x2="455.94" y2="233.83" xlink:href="#linear-gradient"/><linearGradient id="linear-gradient-12" x1="46.15" y1="100.17" x2="455.18" y2="97.87" xlink:href="#linear-gradient"/><linearGradient id="linear-gradient-15" x1="46.24" y1="114.69" x2="455.26" y2="112.4" xlink:href="#linear-gradient"/></defs><path class="cls-1" d="M102.48,388.26v9.63h16.87v6.77H102.48v13.28H94V381.49h27.54v6.77Z"/><path class="cls-2" d="M134.37,416.12a18.14,18.14,0,0,1-7.14-6.75,19.42,19.42,0,0,1,0-19.31,18.18,18.18,0,0,1,7.14-6.74,22.52,22.52,0,0,1,20.43,0,18.6,18.6,0,0,1,0,32.8,22.6,22.6,0,0,1-20.43,0Zm16.06-6.23a10.52,10.52,0,0,0,4.08-4.13,13,13,0,0,0,0-12.08,10.61,10.61,0,0,0-4.08-4.14,12.15,12.15,0,0,0-11.66,0,10.64,10.64,0,0,0-4.09,4.14,13.06,13.06,0,0,0,0,12.08,10.55,10.55,0,0,0,4.09,4.13,12.15,12.15,0,0,0,11.66,0Z"/><path class="cls-3" d="M177.92,388.37H166.25v-6.88H198v6.88H186.35v29.57h-8.43Z"/><path class="cls-4" d="M209.44,416.12a18.18,18.18,0,0,1-7.13-6.75,18.58,18.58,0,0,1,7.13-26.05,22.54,22.54,0,0,1,20.44,0,18.43,18.43,0,0,1,7.13,6.74,18.6,18.6,0,0,1-7.13,26.06,22.62,22.62,0,0,1-20.44,0Zm16.06-6.23a10.55,10.55,0,0,0,4.09-4.13,13,13,0,0,0,0-12.08,10.64,10.64,0,0,0-4.09-4.14,12.15,12.15,0,0,0-11.66,0,10.78,10.78,0,0,0-4.09,4.14,13.06,13.06,0,0,0,0,12.08,10.68,10.68,0,0,0,4.09,4.13,12.15,12.15,0,0,0,11.66,0Z"/><path class="cls-5" d="M270.59,399.14h7.71v14.79a22.1,22.1,0,0,1-6.88,3.44,26.91,26.91,0,0,1-7.86,1.19,21.23,21.23,0,0,1-10.2-2.42,18,18,0,0,1-7.11-6.71,19.56,19.56,0,0,1,0-19.42,17.92,17.92,0,0,1,7.16-6.72,21.76,21.76,0,0,1,10.31-2.42,22.65,22.65,0,0,1,8.69,1.61,17.2,17.2,0,0,1,6.56,4.69l-5.41,5a12.54,12.54,0,0,0-9.42-4.12,12.9,12.9,0,0,0-6.2,1.46,10.46,10.46,0,0,0-4.22,4.12,12.94,12.94,0,0,0,0,12.13,10.67,10.67,0,0,0,4.19,4.13,12.44,12.44,0,0,0,6.12,1.49,13.67,13.67,0,0,0,6.56-1.56Z"/><path class="cls-6" d="M309.33,417.94l-7-10.15h-7.76v10.15h-8.43V381.49h15.77a20.19,20.19,0,0,1,8.41,1.62,12.4,12.4,0,0,1,5.49,4.58,12.58,12.58,0,0,1,1.93,7,11.85,11.85,0,0,1-7.5,11.5l8.18,11.72ZM307.19,390a8.81,8.81,0,0,0-5.78-1.64h-6.87v12.7h6.87a8.76,8.76,0,0,0,5.78-1.67,6.56,6.56,0,0,0,0-9.39Z"/><path class="cls-7" d="M348.37,410.13H331.45l-3.22,7.81h-8.65l16.25-36.45h8.33l16.29,36.45H351.6Zm-2.65-6.41-5.78-14-5.78,14Z"/><path class="cls-8" d="M372.69,388.26v9.63h16.87v6.77H372.69v13.28h-8.44V381.49h27.54v6.77Z"/><path class="cls-9" d="M397.52,381.49H406v36.45h-8.44Z"/><path class="cls-10" d="M306.07,235A56.07,56.07,0,1,1,250,178.93,56.07,56.07,0,0,1,306.07,235Z"/><path class="cls-11" d="M391.52,123.94h-283a38,38,0,0,0-38,38V308a38,38,0,0,0,38,38h283a38,38,0,0,0,38-38V161.94A38,38,0,0,0,391.52,123.94ZM250,314.92A79.93,79.93,0,1,1,329.94,235,79.93,79.93,0,0,1,250,314.92Zm143.73-142.5a12.77,12.77,0,1,1,12.77-12.76A12.77,12.77,0,0,1,393.74,172.42Z"/><path class="cls-12" d="M310.14,116.55h-133l12-26.46a14.76,14.76,0,0,1,13.44-8.65h82a14.75,14.75,0,0,1,13.44,8.65Z"/><path class="cls-10" d="M306.07,235A56.07,56.07,0,1,1,250,178.93,56.07,56.07,0,0,1,306.07,235Z"/><path class="cls-10" d="M306.07,235A56.07,56.07,0,1,1,250,178.93,56.07,56.07,0,0,1,306.07,235Z"/><path class="cls-13" d="M117.51,123.94v-12a7.48,7.48,0,0,1,7.49-7.48h18.21a7.49,7.49,0,0,1,7.49,7.48v12Z"/></svg>