<svg xmlns="http://www.w3.org/2000/svg" xmlns:xlink="http://www.w3.org/1999/xlink" viewBox="0 0 500 500"><defs><style>.cls-1{fill:url(#linear-gradient);}.cls-2{fill:url(#linear-gradient-2);}.cls-3{fill:url(#linear-gradient-3);}.cls-4{fill:url(#linear-gradient-4);}.cls-5{fill:url(#linear-gradient-5);}.cls-6{fill:url(#linear-gradient-6);}.cls-7{fill:url(#linear-gradient-7);}.cls-8{fill:url(#linear-gradient-8);}.cls-9{fill:url(#linear-gradient-9);}.cls-10{fill:url(#linear-gradient-10);}.cls-11{fill:url(#linear-gradient-11);}.cls-12{fill:url(#linear-gradient-12);}.cls-13{fill:url(#linear-gradient-13);}.cls-14{fill:url(#linear-gradient-14);}.cls-15{fill:url(#linear-gradient-15);}.cls-16{fill:url(#linear-gradient-16);}.cls-17{fill:url(#linear-gradient-17);}.cls-18{fill:url(#linear-gradient-18);}</style><linearGradient id="linear-gradient" x1="132.59" y1="163.67" x2="172.34" y2="163.67" gradientUnits="userSpaceOnUse"><stop offset="0" stop-color="#7df5d0"/><stop offset="1" stop-color="#209c8c"/></linearGradient><linearGradient id="linear-gradient-2" x1="159.02" y1="140.5" x2="356.22" y2="140.5" xlink:href="#linear-gradient"/><linearGradient id="linear-gradient-3" x1="74.31" y1="285.59" x2="74.31" y2="325.81" xlink:href="#linear-gradient"/><linearGradient id="linear-gradient-4" x1="113.13" y1="285.59" x2="113.13" y2="325.81" xlink:href="#linear-gradient"/><linearGradient id="linear-gradient-5" x1="157.69" y1="285.59" x2="157.69" y2="325.81" xlink:href="#linear-gradient"/><linearGradient id="linear-gradient-6" x1="196.21" y1="285.59" x2="196.21" y2="325.81" xlink:href="#linear-gradient"/><linearGradient id="linear-gradient-7" x1="235.17" y1="285.59" x2="235.17" y2="325.81" xlink:href="#linear-gradient"/><linearGradient id="linear-gradient-8" x1="291.17" y1="285.59" x2="291.17" y2="325.81" xlink:href="#linear-gradient"/><linearGradient id="linear-gradient-9" x1="330.87" y1="285.59" x2="330.87" y2="326.5" xlink:href="#linear-gradient"/><linearGradient id="linear-gradient-10" x1="373.02" y1="285.59" x2="373.02" y2="325.81" xlink:href="#linear-gradient"/><linearGradient id="linear-gradient-11" x1="397.64" y1="285.59" x2="397.64" y2="325.81" xlink:href="#linear-gradient"/><linearGradient id="linear-gradient-12" x1="425.4" y1="284.9" x2="425.4" y2="326.5" xlink:href="#linear-gradient"/><linearGradient id="linear-gradient-13" x1="147.6" y1="354.54" x2="147.6" y2="394.76" xlink:href="#linear-gradient"/><linearGradient id="linear-gradient-14" x1="176.53" y1="354.54" x2="176.53" y2="394.76" xlink:href="#linear-gradient"/><linearGradient id="linear-gradient-15" x1="219.17" y1="354.54" x2="219.17" y2="394.76" xlink:href="#linear-gradient"/><linearGradient id="linear-gradient-16" x1="256.03" y1="354.54" x2="256.03" y2="394.76" xlink:href="#linear-gradient"/><linearGradient id="linear-gradient-17" x1="287.49" y1="354.54" x2="287.49" y2="394.76" xlink:href="#linear-gradient"/><linearGradient id="linear-gradient-18" x1="332.68" y1="354.54" x2="332.68" y2="394.76" xlink:href="#linear-gradient"/></defs><title>asset</title><g id="Layer_12" data-name="Layer 12"><path class="cls-1" d="M165.57,226.11a6.78,6.78,0,0,0,6.77-6.77V81.54H156.62a24,24,0,0,0-24,24V219.34a33,33,0,0,0,13.32,26.46v0A19.68,19.68,0,0,1,165.57,226.11Z"/><path class="cls-2" d="M332.19,28.69H209.46a24,24,0,0,0-24,24V219.34a19.9,19.9,0,0,1-19.87,19.87,6.55,6.55,0,1,0,0,13.1H314.72a41.54,41.54,0,0,0,41.49-41.49V52.71A24,24,0,0,0,332.19,28.69ZM222.78,90.28h61.15a6.55,6.55,0,0,1,0,13.1H222.78a6.55,6.55,0,0,1,0-13.1Zm96.09,100.46H222.78a6.55,6.55,0,1,1,0-13.1h96.09a6.55,6.55,0,1,1,0,13.1Zm0-46.25H222.78a6.55,6.55,0,1,1,0-13.1h96.09a6.55,6.55,0,1,1,0,13.1Z"/><path class="cls-3" d="M69.77,310l-5.4,5.63v10.17H55.12V285.59h9.25v18.79l17.81-18.79H92.52L75.86,303.52,93.5,325.81H82.64Z"/><path class="cls-4" d="M122.35,317.19H103.67l-3.56,8.62H90.57l17.93-40.22h9.19l18,40.22h-9.77Zm-2.93-7.07L113,294.72l-6.38,15.4Z"/><path class="cls-5" d="M165.5,325.81l-7.76-11.2h-8.56v11.2h-9.31V285.59h17.41c10.74,0,17.47,5.57,17.47,14.59a13.08,13.08,0,0,1-8.27,12.7l9,12.93Zm-8.73-32.64h-7.58v14h7.58c5.69,0,8.56-2.64,8.56-7S162.46,293.17,156.77,293.17Z"/><path class="cls-6" d="M200.84,311.56v14.25h-9.31V311.45L176,285.59h9.88l10.75,17.87,10.74-17.87h9.14Z"/><path class="cls-7" d="M244.4,317.19H225.72l-3.56,8.62h-9.54l17.93-40.22h9.19l18,40.22H248Zm-2.93-7.07-6.38-15.4-6.38,15.4Z"/><path class="cls-8" d="M286.51,293.17H273.64v-7.58h35.05v7.58H295.82v32.64h-9.31Z"/><path class="cls-9" d="M312.66,308.11V285.59H322v22.18c0,7.64,3.33,10.8,9,10.8s9-3.16,9-10.8V285.59h9.19v22.52c0,11.84-6.78,18.39-18.21,18.39S312.66,319.95,312.66,308.11Z"/><path class="cls-10" d="M358.28,285.59h9.31v32.64h20.17v7.58H358.28Z"/><path class="cls-11" d="M393,285.59h9.31v40.22H393Z"/><path class="cls-12" d="M408.68,321.85l3.16-7A23.66,23.66,0,0,0,425.11,319c5.52,0,7.76-1.84,7.76-4.31,0-7.53-23.39-2.36-23.39-17.3,0-6.84,5.52-12.53,17-12.53,5.06,0,10.23,1.21,14,3.56l-2.87,7.07a22.72,22.72,0,0,0-11.15-3.16c-5.52,0-7.64,2.07-7.64,4.6,0,7.41,23.39,2.3,23.39,17.07,0,6.72-5.57,12.47-17.07,12.47C418.67,326.5,412.24,324.6,408.68,321.85Z"/><path class="cls-13" d="M142.95,354.54h9.31v40.22h-9.31Z"/><path class="cls-14" d="M161.79,354.54h9.31v32.64h20.17v7.58H161.79Z"/><path class="cls-15" d="M233.1,394.76,233,370.63l-11.84,19.88H217l-11.78-19.36v23.62H196.5V354.54h7.7l15.05,25,14.82-25h7.64l.12,40.22Z"/><path class="cls-16" d="M251.38,354.54h9.31v40.22h-9.31Z"/><path class="cls-17" d="M296.71,386.15H278l-3.56,8.62h-9.54l17.93-40.22h9.19l18,40.22h-9.77Zm-2.93-7.07-6.38-15.4L281,379.08Z"/><path class="cls-18" d="M351.13,354.54v40.22h-9.31V378.27H323.55v16.49h-9.31V354.54h9.31V370.4h18.27V354.54Z"/></g></svg>