<svg xmlns="http://www.w3.org/2000/svg" xmlns:xlink="http://www.w3.org/1999/xlink" viewBox="0 0 500 500"><defs><style>.cls-1{fill:url(#linear-gradient);}.cls-2{fill:url(#linear-gradient-2);}.cls-3{fill:url(#linear-gradient-3);}.cls-4{fill:url(#linear-gradient-4);}.cls-5{fill:url(#linear-gradient-5);}.cls-6{fill:url(#linear-gradient-6);}.cls-7{fill:url(#linear-gradient-7);}.cls-8{fill:url(#linear-gradient-8);}.cls-9{fill:url(#linear-gradient-9);}.cls-10{fill:url(#linear-gradient-10);}.cls-11{fill:url(#linear-gradient-11);}.cls-12{fill:url(#linear-gradient-12);}</style><linearGradient id="linear-gradient" x1="157.69" y1="347.09" x2="157.69" y2="394" gradientUnits="userSpaceOnUse"><stop offset="0" stop-color="#7df5d0"/><stop offset="1" stop-color="#209c8c"/></linearGradient><linearGradient id="linear-gradient-2" x1="228.33" y1="347.09" x2="228.33" y2="394" xlink:href="#linear-gradient"/><linearGradient id="linear-gradient-3" x1="307.11" y1="347.09" x2="307.11" y2="394" xlink:href="#linear-gradient"/><linearGradient id="linear-gradient-4" x1="367.83" y1="347.09" x2="367.83" y2="394" xlink:href="#linear-gradient"/><linearGradient id="linear-gradient-5" x1="61.51" y1="142.38" x2="349.94" y2="133.17" xlink:href="#linear-gradient"/><linearGradient id="linear-gradient-6" x1="63.92" y1="217.93" x2="352.35" y2="208.72" xlink:href="#linear-gradient"/><linearGradient id="linear-gradient-7" x1="65.49" y1="267.02" x2="353.92" y2="257.81" xlink:href="#linear-gradient"/><linearGradient id="linear-gradient-8" x1="61.53" y1="142.82" x2="349.96" y2="133.62" xlink:href="#linear-gradient"/><linearGradient id="linear-gradient-9" x1="62.86" y1="184.7" x2="351.29" y2="175.5" xlink:href="#linear-gradient"/><linearGradient id="linear-gradient-10" x1="371.32" y1="199.25" x2="268.15" y2="195.96" xlink:href="#linear-gradient"/><linearGradient id="linear-gradient-11" x1="369.8" y1="246.59" x2="266.64" y2="243.3" xlink:href="#linear-gradient"/><linearGradient id="linear-gradient-12" x1="65.89" y1="279.5" x2="354.32" y2="270.3" xlink:href="#linear-gradient"/></defs><title>asset</title><g id="Layer_8" data-name="Layer 8"><path class="cls-1" d="M140.5,347.09h10.86v38.06h23.52V394H140.5Z"/><path class="cls-2" d="M239.09,383.95H217.31L213.15,394H202l20.91-46.91h10.72l21,46.91H243.24Zm-3.42-8.24-7.44-18-7.44,18Z"/><path class="cls-3" d="M316.22,394l-9-13.07h-10V394H286.34V347.09h20.31c12.53,0,20.37,6.5,20.37,17,0,7-3.55,12.2-9.65,14.81L327.89,394ZM306,355.94h-8.85v16.35H306c6.63,0,10-3.08,10-8.18S312.67,355.94,306,355.94Z"/><path class="cls-4" d="M362.4,347.09h10.86V394H362.4Z"/><path class="cls-5" d="M220.54,140.83l11.08,11.08a18.16,18.16,0,0,0,24.8.83l12.69-11.11-24.69-24.69L233.48,106a18.3,18.3,0,0,0-25.88,0l-10.95,10.95-34.24,34.24,23.89,23.89Z"/><path class="cls-6" d="M130.92,179.11,96.68,213.35,85.6,202.27a18.16,18.16,0,0,0-24.8-.83L48.11,212.56l24.69,24.69,10.95,10.95a18.3,18.3,0,0,0,25.88,0l10.95-10.95L154.81,203Z"/><path class="cls-7" d="M266.52,230.42,255.44,241.5l-47-47L184.57,218.4h0l-41.25,40.81-10.95,10.95a18.3,18.3,0,0,0,0,25.88L143.33,307,168,331.69,179.12,319a18.16,18.16,0,0,0-.83-24.8l-11.08-11.08,41.25-40.81,23.08,23.08,10.95,10.95a18.3,18.3,0,0,0,25.88,0l10.95-10.95L304,240.7l-12.69-11.11A18.16,18.16,0,0,0,266.52,230.42Z"/><circle class="cls-8" cx="125.67" cy="140.77" r="28.72"/><path class="cls-9" d="M257.23,176.33a4.92,4.92,0,0,0,4.92,4.92H388.67a4.92,4.92,0,1,0,0-9.85H262.15A4.92,4.92,0,0,0,257.23,176.33Z"/><path class="cls-10" d="M279.24,198.49a4.92,4.92,0,0,0,4.92,4.92H410.68a4.92,4.92,0,0,0,0-9.85H284.17A4.92,4.92,0,0,0,279.24,198.49Z"/><path class="cls-11" d="M444.21,242H317.69a4.92,4.92,0,0,0,0,9.85H444.21a4.92,4.92,0,1,0,0-9.85Z"/><path class="cls-12" d="M428.1,265H301.58a4.92,4.92,0,1,0,0,9.85H428.1a4.92,4.92,0,1,0,0-9.85Z"/></g></svg>