<svg id="Layer_1" data-name="Layer 1" xmlns="http://www.w3.org/2000/svg" xmlns:xlink="http://www.w3.org/1999/xlink" viewBox="0 0 500 500"><defs><style>.cls-1{fill:url(#linear-gradient);}.cls-2{fill:url(#linear-gradient-2);}.cls-3{fill:url(#linear-gradient-3);}.cls-4{fill:url(#linear-gradient-4);}.cls-5{fill:url(#linear-gradient-5);}.cls-6{fill:url(#linear-gradient-6);}.cls-7{fill:url(#linear-gradient-7);}.cls-8{fill:url(#linear-gradient-8);}.cls-9{fill:url(#linear-gradient-9);}.cls-10{fill:url(#linear-gradient-10);}.cls-11{fill:url(#linear-gradient-11);}.cls-12{fill:url(#linear-gradient-12);}.cls-13{fill:url(#linear-gradient-13);}.cls-14{fill:url(#linear-gradient-14);}.cls-15{fill:url(#linear-gradient-15);}.cls-16{fill:url(#linear-gradient-16);}.cls-17{fill:url(#linear-gradient-17);}.cls-18{fill:url(#linear-gradient-18);}.cls-19{fill:url(#linear-gradient-19);}.cls-20{fill:url(#linear-gradient-20);}.cls-21{fill:url(#linear-gradient-21);}.cls-22{fill:url(#linear-gradient-22);}.cls-23{fill:url(#linear-gradient-23);}.cls-24{fill:url(#linear-gradient-24);}.cls-25{fill:url(#linear-gradient-25);}.cls-26{fill:url(#linear-gradient-26);}</style><linearGradient id="linear-gradient" x1="183.44" y1="128.31" x2="362.67" y2="140.57" gradientUnits="userSpaceOnUse"><stop offset="0" stop-color="#7df6d2"/><stop offset="1" stop-color="#1f9c8b"/></linearGradient><linearGradient id="linear-gradient-2" x1="173.24" y1="277.52" x2="352.47" y2="289.77" xlink:href="#linear-gradient"/><linearGradient id="linear-gradient-3" x1="184.05" y1="119.32" x2="363.29" y2="131.57" xlink:href="#linear-gradient"/><linearGradient id="linear-gradient-4" x1="184.3" y1="115.74" x2="363.53" y2="127.99" xlink:href="#linear-gradient"/><linearGradient id="linear-gradient-5" x1="175.56" y1="243.48" x2="354.8" y2="255.74" xlink:href="#linear-gradient"/><linearGradient id="linear-gradient-6" x1="176.88" y1="224.24" x2="356.11" y2="236.49" xlink:href="#linear-gradient"/><linearGradient id="linear-gradient-7" x1="175.77" y1="240.48" x2="355" y2="252.74" xlink:href="#linear-gradient"/><linearGradient id="linear-gradient-8" x1="176.96" y1="223.01" x2="356.2" y2="235.27" xlink:href="#linear-gradient"/><linearGradient id="linear-gradient-9" x1="178.22" y1="204.63" x2="357.45" y2="216.88" xlink:href="#linear-gradient"/><linearGradient id="linear-gradient-10" x1="178.54" y1="199.95" x2="357.77" y2="212.21" xlink:href="#linear-gradient"/><linearGradient id="linear-gradient-11" x1="168.27" y1="350.18" x2="347.5" y2="362.43" xlink:href="#linear-gradient"/><linearGradient id="linear-gradient-12" x1="178.34" y1="202.92" x2="357.57" y2="215.18" xlink:href="#linear-gradient"/><linearGradient id="linear-gradient-13" x1="175.15" y1="249.55" x2="354.38" y2="261.8" xlink:href="#linear-gradient"/><linearGradient id="linear-gradient-14" x1="173.39" y1="275.32" x2="352.62" y2="287.58" xlink:href="#linear-gradient"/><linearGradient id="linear-gradient-15" x1="171.39" y1="304.54" x2="350.62" y2="316.79" xlink:href="#linear-gradient"/><linearGradient id="linear-gradient-16" x1="171.24" y1="306.77" x2="350.47" y2="319.03" xlink:href="#linear-gradient"/><linearGradient id="linear-gradient-17" x1="171.41" y1="304.24" x2="350.64" y2="316.49" xlink:href="#linear-gradient"/><linearGradient id="linear-gradient-18" x1="102.21" y1="386.62" x2="106.04" y2="483.13" xlink:href="#linear-gradient"/><linearGradient id="linear-gradient-19" x1="146.7" y1="384.85" x2="150.53" y2="481.36" xlink:href="#linear-gradient"/><linearGradient id="linear-gradient-20" x1="197.95" y1="382.82" x2="201.78" y2="479.33" xlink:href="#linear-gradient"/><linearGradient id="linear-gradient-21" x1="234.68" y1="381.36" x2="238.51" y2="477.87" xlink:href="#linear-gradient"/><linearGradient id="linear-gradient-22" x1="276.45" y1="379.7" x2="280.28" y2="476.21" xlink:href="#linear-gradient"/><linearGradient id="linear-gradient-23" x1="319.59" y1="377.99" x2="323.42" y2="474.5" xlink:href="#linear-gradient"/><linearGradient id="linear-gradient-24" x1="363.68" y1="376.24" x2="367.51" y2="472.75" xlink:href="#linear-gradient"/><linearGradient id="linear-gradient-25" x1="401.34" y1="374.75" x2="405.17" y2="471.26" xlink:href="#linear-gradient"/><linearGradient id="linear-gradient-26" x1="181.49" y1="156.87" x2="360.72" y2="169.12" xlink:href="#linear-gradient"/></defs><path class="cls-1" d="M269.13,201.79a2.11,2.11,0,0,1-2-1.36A20.58,20.58,0,0,0,248,187.2a20.36,20.36,0,0,0-19,13,2.13,2.13,0,0,1-2.62,1.23,71.12,71.12,0,1,1,63.8-9.89l-.32.23-.11.08a70.83,70.83,0,0,1-19.95,9.89A2.28,2.28,0,0,1,269.13,201.79ZM248,183a24.82,24.82,0,0,1,22.3,14.1,66.64,66.64,0,0,0,16.83-8.62,1,1,0,0,1,.16-.12l.13-.09.21-.15a66.9,66.9,0,1,0-106-54.28,67,67,0,0,0,44.21,62.94A24.56,24.56,0,0,1,248,183Zm40.48,7.1h0Z"/><path class="cls-2" d="M321.74,375.31H174.09a2.1,2.1,0,0,1-2.08-1.77c-13.15-81.46,1.92-132.4,16.88-160.8a125.2,125.2,0,0,1,17-24.9,2.1,2.1,0,0,1,2.83-.29,66.08,66.08,0,0,0,19,9.83,2.1,2.1,0,0,1,1.3,2.79,20.11,20.11,0,0,0-1.43,7.52,21.59,21.59,0,0,0,.16,2.56,20.33,20.33,0,0,0,9.87,15.05,2.11,2.11,0,0,1,1,1.78l.84,54.18a2.11,2.11,0,0,1-.61,1.51,2.09,2.09,0,0,1-1.5.62H204.42V336H288.5V283.39H257.26a2.1,2.1,0,0,1-1.77-3.23l.8-52.45a2.11,2.11,0,0,1,1.14-1.83,20.4,20.4,0,0,0,10.89-15.58,18.66,18.66,0,0,0,.17-2.61,20.21,20.21,0,0,0-1.32-7.25,2.11,2.11,0,0,1,.07-1.67,2.08,2.08,0,0,1,1.27-1.09,66.64,66.64,0,0,0,18.63-9.21,1,1,0,0,1,.16-.12l.13-.09.21-.15a2.11,2.11,0,0,1,2.85.3c15,17.15,26.2,41,32.45,69,7.55,33.85,7.85,72.92.88,116.1A2.1,2.1,0,0,1,321.74,375.31ZM175.88,371.1H320c16.68-106.23-15.35-159.35-31.4-178.49A70.43,70.43,0,0,1,271.79,201a24.33,24.33,0,0,1,.91,6.66,23.16,23.16,0,0,1-.2,3.15,24.62,24.62,0,0,1-12,18.16l-.77,50.18h30.9a2.11,2.11,0,0,1,2.1,2.11v56.76a2.11,2.11,0,0,1-2.1,2.11H202.32a2.12,2.12,0,0,1-2.11-2.11V281.29a2.12,2.12,0,0,1,2.11-2.11h32.86l-.79-50.89a24.52,24.52,0,0,1-10.89-17.51,26.29,26.29,0,0,1-.19-3.09,24.48,24.48,0,0,1,1-7,70.16,70.16,0,0,1-16.56-8.62,123,123,0,0,0-15.15,22.63C178.06,242.33,163.42,291.83,175.88,371.1Z"/><circle class="cls-3" cx="222.24" cy="121.93" r="8.92"/><circle class="cls-4" cx="274.84" cy="121.93" r="8.92"/><path class="cls-5" d="M237.27,280.61a2.11,2.11,0,0,1-1.71-.88L189,215a2.1,2.1,0,0,1,3.42-2.45L239,277.27a2.11,2.11,0,0,1-.48,2.94A2.08,2.08,0,0,1,237.27,280.61Z"/><path class="cls-6" d="M237.07,267.55a2.1,2.1,0,0,1-2-1.35L205.47,190a2.1,2.1,0,0,1,3.92-1.52L239,264.68a2.1,2.1,0,0,1-1.2,2.72A2.06,2.06,0,0,1,237.07,267.55Z"/><path class="cls-7" d="M257.58,283a2.11,2.11,0,0,1-1.71-3.34l47.59-66.27a2.1,2.1,0,0,1,3.42,2.45l-47.59,66.28A2.11,2.11,0,0,1,257.58,283Z"/><path class="cls-8" d="M257.77,271.19a2.06,2.06,0,0,1-.77-.14,2.11,2.11,0,0,1-1.2-2.73l30.71-78.94a2.11,2.11,0,0,1,4.09.7h0a2,2,0,0,1-.15.76l-30.72,79A2.11,2.11,0,0,1,257.77,271.19Z"/><path class="cls-9" d="M225.59,212.62a2.12,2.12,0,0,1-.94-.22l-12.28-6.14a2.1,2.1,0,1,1,1.89-3.76l12.27,6.13a2.1,2.1,0,0,1-.94,4Z"/><path class="cls-10" d="M270.42,212.66a2.1,2.1,0,0,1-1.06-3.92L282.68,201a2.11,2.11,0,1,1,2.17,3.61l-.29.17-13.09,7.58A2.12,2.12,0,0,1,270.42,212.66Z"/><path class="cls-11" d="M248,375.31a2.1,2.1,0,0,1-2.11-2.11V338.05a2.11,2.11,0,0,1,4.21,0V373.2A2.1,2.1,0,0,1,248,375.31Z"/><path class="cls-12" d="M248,232.38a24.7,24.7,0,0,1-24.51-21.6,26.29,26.29,0,0,1-.19-3.09A24.69,24.69,0,0,1,248,183a24.8,24.8,0,0,1,23.09,15.95,24.45,24.45,0,0,1,1.6,8.75,23.16,23.16,0,0,1-.2,3.15,24.63,24.63,0,0,1-13.13,18.77,24.31,24.31,0,0,1-10.91,2.77Zm0-45.18a20.36,20.36,0,0,0-19,13,20,20,0,0,0-1.44,7.53,21.59,21.59,0,0,0,.16,2.56A20.49,20.49,0,0,0,248,228.17a1.62,1.62,0,0,0,.22,0h.12a20.12,20.12,0,0,0,9.07-2.29,20.39,20.39,0,0,0,10.9-15.58,18.66,18.66,0,0,0,.17-2.61,20.21,20.21,0,0,0-1.32-7.25A20.6,20.6,0,0,0,248,187.2Z"/><path class="cls-13" d="M257.26,283.39H237.31a2.1,2.1,0,0,1-2.1-2.07l-.83-54.17a2.09,2.09,0,0,1,1.05-1.86,2.11,2.11,0,0,1,2.13,0A20.36,20.36,0,0,0,248,228.17a1.62,1.62,0,0,0,.22,0h.12a20.12,20.12,0,0,0,9.07-2.29,2.1,2.1,0,0,1,3.08,1.9l-.81,53.1a2.15,2.15,0,0,1-.4,1.19l-.32.45A2.09,2.09,0,0,1,257.26,283.39Zm-17.87-4.21H255.5l.74-48.2a24.55,24.55,0,0,1-7.78,1.4H248a24.64,24.64,0,0,1-9.37-1.84Z"/><path class="cls-14" d="M257.57,283.39h-.31a2.1,2.1,0,0,1-1.71-3.33l.32-.45a2.11,2.11,0,0,1,3.82,1.28v.44A2.11,2.11,0,0,1,257.57,283.39Z"/><path class="cls-15" d="M290.61,340.16H202.32a2.12,2.12,0,0,1-2.11-2.11V281.29a2.12,2.12,0,0,1,2.11-2.11h88.29a2.11,2.11,0,0,1,2.1,2.11v56.76A2.11,2.11,0,0,1,290.61,340.16ZM204.42,336H288.5V283.39H204.42Z"/><path class="cls-16" d="M242.15,325.41l-.05-19.26-9.54,15.94h-2.41L220.6,306.4v19h-5.15V296.35h4.44l11.54,19.26,11.34-19.26h4.44l0,29.06Z"/><path class="cls-17" d="M260.6,323.9a14.21,14.21,0,0,1-5.56-5.34,15.54,15.54,0,0,1,0-15.36,14.24,14.24,0,0,1,5.58-5.33,16.35,16.35,0,0,1,7.95-1.93,16.62,16.62,0,0,1,6.52,1.24,13.32,13.32,0,0,1,5,3.61l-3.49,3.28a10.16,10.16,0,0,0-7.76-3.4,10.83,10.83,0,0,0-5.36,1.31,9.4,9.4,0,0,0-3.69,3.63,11.11,11.11,0,0,0,0,10.54,9.49,9.49,0,0,0,3.69,3.64,10.93,10.93,0,0,0,5.36,1.3,10.09,10.09,0,0,0,7.76-3.44l3.49,3.32a13.24,13.24,0,0,1-5,3.61,16.75,16.75,0,0,1-6.54,1.25A16.41,16.41,0,0,1,260.6,323.9Z"/><path class="cls-18" d="M116.15,436.65l-.06-21.87-10.72,18h-3.8L90.9,415.25v21.4H83V400.21h7l13.64,22.64L117,400.21H124l.1,36.44Z"/><path class="cls-19" d="M140.07,434.86a18.17,18.17,0,0,1-7.08-6.72,19.56,19.56,0,0,1,0-19.42,18.17,18.17,0,0,1,7.08-6.72,22.57,22.57,0,0,1,18.69-.75,17.11,17.11,0,0,1,6.43,4.79l-5.42,5a11.61,11.61,0,0,0-9.16-4.27,12.15,12.15,0,0,0-6,1.48,10.57,10.57,0,0,0-4.14,4.14,13.06,13.06,0,0,0,0,12.08,10.57,10.57,0,0,0,4.14,4.14,12.15,12.15,0,0,0,6,1.48,11.57,11.57,0,0,0,9.16-4.32l5.42,5a16.87,16.87,0,0,1-6.46,4.84,21.44,21.44,0,0,1-8.59,1.67A21,21,0,0,1,140.07,434.86Z"/><path class="cls-20" d="M194,407v9.64H210.9v6.76H194v13.28H185.6V400.21h27.54V407Z"/><path class="cls-21" d="M225.92,434.83a18.16,18.16,0,0,1-7.13-6.74,19.37,19.37,0,0,1,0-19.32,18.16,18.16,0,0,1,7.13-6.74,22.54,22.54,0,0,1,20.44,0,18.59,18.59,0,0,1,0,32.8,22.54,22.54,0,0,1-20.44,0ZM242,428.61a10.64,10.64,0,0,0,4.09-4.14,13.06,13.06,0,0,0,0-12.08,10.64,10.64,0,0,0-4.09-4.14,12.22,12.22,0,0,0-11.66,0,10.64,10.64,0,0,0-4.09,4.14,13.06,13.06,0,0,0,0,12.08,10.64,10.64,0,0,0,4.09,4.14,12.22,12.22,0,0,0,11.66,0Z"/><path class="cls-22" d="M285.66,436.65l-7-10.15h-7.75v10.15h-8.44V400.21h15.78a20.19,20.19,0,0,1,8.41,1.61,12.07,12.07,0,0,1,7.42,11.61,11.91,11.91,0,0,1-7.5,11.51l8.17,11.71Zm-2.13-27.93a8.89,8.89,0,0,0-5.78-1.64h-6.87v12.7h6.87a8.78,8.78,0,0,0,5.78-1.66,6.57,6.57,0,0,0,0-9.4Z"/><path class="cls-23" d="M333.87,436.65l-.05-21.87-10.72,18h-3.8l-10.68-17.55v21.4h-7.91V400.21h7l13.64,22.64,13.43-22.64h6.92l.11,36.44Z"/><path class="cls-24" d="M374.43,428.84H357.51l-3.23,7.81h-8.64l16.24-36.44h8.33l16.3,36.44h-8.85Zm-2.65-6.4-5.78-14-5.78,14Z"/><path class="cls-25" d="M390.31,400.21h8.43v29.57H417v6.87H390.31Z"/><path class="cls-26" d="M248.54,170.45c-19.52,0-20-16.53-20-16.7l4.06-.07c0,.52.47,12.71,15.91,12.71s15.89-12.19,15.9-12.71l4.07.07C268.5,153.92,268.05,170.45,248.54,170.45Z"/></svg>