<svg xmlns="http://www.w3.org/2000/svg" xmlns:xlink="http://www.w3.org/1999/xlink" viewBox="0 0 500 500"><defs><style>.cls-1{fill:none;}.cls-2{fill:url(#linear-gradient);}.cls-3{clip-path:url(#clip-path);}.cls-4{fill:url(#linear-gradient-2);}.cls-5{clip-path:url(#clip-path-2);}.cls-6{fill:url(#linear-gradient-4);}.cls-7{clip-path:url(#clip-path-3);}.cls-8{fill:url(#linear-gradient-5);}</style><linearGradient id="linear-gradient" x1="296.21" y1="305.64" x2="296.21" y2="322.14" gradientUnits="userSpaceOnUse"><stop offset="0" stop-color="#7df5d0"/><stop offset="1" stop-color="#209c8c"/></linearGradient><clipPath id="clip-path"><path class="cls-1" d="M206.64,244.79l3.06,4.72v42.7l-3.06,4.72h41.85V284.1l-4.72,3.06H220.3V275.75H241V266H220.3V254.56h23.47l4.72,3.06V244.79Zm45,26.07A26.07,26.07,0,0,0,291.48,293l7.58,3.92V271H285.4l3.06,4.72v7.12A16.05,16.05,0,1,1,290.39,261l8-6a26.07,26.07,0,0,0-46.72,15.9m49.77-26.07,3.06,4.72v42.7l-3.06,4.72h41.85V284.1l-4.72,3.06H315.1V275.75h20.68V266H315.1V254.56h23.47l4.72,3.06V244.79Zm74,0,2.9,4.64v22.42l-29.07-27.06v47.49l-2.9,4.64H362.2l-2.9-4.64V269.87l29.07,27.06V249.44l2.9-4.64Zm31.45,10.08h8.27a12.69,12.69,0,0,1,12.66,12.66v6c0,7-6.4,13.36-13.36,13.36h-7.57Zm-13.25-10.08,3.06,4.64v42.84l-3.06,4.64h21.53c10.13,0,22.86-10.46,22.86-21.8v-9.69c0-11.35-12-20.64-22.16-20.64Zm82.29,3.06c-10.71-3.16-19-3.73-24.13-.56-4.75,2.93-8.18,5.94-7.42,12.84.61,5.45,1.41,8.38,9.64,12.07,4.2,1.88,8.57,3.39,12.85,5.09,9,3.21,7,9.59-2.23,9.94-7.68.29-14.61-1.93-21.06-5.47v15.16l4.72-3.06c7,1.31,13.78,3.48,19.85,2.52,6.36-1,13.88-4.9,14.28-13q0-.41,0-.8v-.16c0-8.34-6.27-12.13-14.48-14.8-4.1-1.33-8.32-2.73-11.81-5.27s-2.39-7.4,1-8.29c6-1.6,16.48,1,23.52,5.88V244.79Zm-308.65-3.18v52.26h36.23V283.27l-4.72,3.06H177.86V240.05Zm78-36.63,6.28,7.57,6.28-7.57-6.28-7.57Zm-9.73,0a16,16,0,1,1,16,16,16,16,0,0,1-16-16m-10.47,0a26.48,26.48,0,1,0,26.48-26.48A26.48,26.48,0,0,0,225.08,208m68.75,2h11.64c3.8,0,6.92,3.64,6.92,8.09s-3.11,8.09-6.92,8.09H293.83Zm0-20.14h9.94a5.91,5.91,0,0,1,0,11.82h-9.94Zm-13.66-8.32,3.06,4.72v43.53l-3.06,4.72h24.72c10,0,18-7.38,18-16.41a15.92,15.92,0,0,0-6-12.78,14.57,14.57,0,0,0,3.21-9.54c0-7.83-7.26-14.23-16.24-14.23Zm45.07,0,3.06,4.72v43.53l-3.06,4.72H342l-3.06-4.72V186.28l3.06-4.72Zm18.58,0,3.06,4.72v48.25h36.23V220.87l-4.72,3.06H357.48V186.28l3.06-4.72Zm42.44,0,3.06,4.72v43.53l-3.06,4.72h41.85V220.87l-4.72,3.06H399.93V213.35h20.68v-10.6H399.93V192.17H423.4l4.72,3.06V181.56Zm-166.34-4.43-26.57,31.12-26.57-31.12v56.32l10.6-4.62V205l16,18.7,16-18.7v23.81l10.6,4.62Z"/></clipPath><linearGradient id="linear-gradient-2" x1="206.58" y1="1120.52" x2="207.5" y2="1120.6" gradientTransform="matrix(-100.72, 0, 0, 100.72, 21157.42, -112625.26)" xlink:href="#linear-gradient"/><clipPath id="clip-path-2"><path class="cls-2" d="M171.13,315.12h3.13a14.78,14.78,0,0,1,3.43.24,2.36,2.36,0,0,1,1.21.78,2,2,0,0,1,.42,1.3,2,2,0,0,1-.54,1.45,2.51,2.51,0,0,1-1.4.68,20.27,20.27,0,0,1-2.65.1h-3.58Zm0-6.74h2.22q2.72,0,3.3.06a2.32,2.32,0,0,1,1.45.59,1.73,1.73,0,0,1,.49,1.28,1.68,1.68,0,0,1-.57,1.32,2.7,2.7,0,0,1-1.56.61c-.37,0-1.3.06-2.8.06h-2.53Zm-3.88-2.83v17h6.52q3.7,0,4.66-.12a6,6,0,0,0,2.59-.81,4.74,4.74,0,0,0,1.66-1.76,4.6,4.6,0,0,0,.61-2.26,3.82,3.82,0,0,0-.94-2.57,5.15,5.15,0,0,0-2.68-1.55,4.37,4.37,0,0,0,2-1.49,3.63,3.63,0,0,0,.72-2.18,3.52,3.52,0,0,0-.59-2,4.65,4.65,0,0,0-1.47-1.42,5.47,5.47,0,0,0-2-.7,25.31,25.31,0,0,0-3.39-.17Zm38.09,4,2.41,6.29H203Zm-1.83-4-6.74,17h3.72l1.44-3.87h7l1.5,3.87h3.78l-6.95-17Zm36.39,0v11.4L232,305.55h-3.76v17h3.59V311.38l7.76,11.18h3.87v-17Zm81.31,9.57h3.12a14.79,14.79,0,0,1,3.43.24,2.36,2.36,0,0,1,1.21.78,2,2,0,0,1,.42,1.3,2,2,0,0,1-.54,1.45,2.51,2.51,0,0,1-1.4.68,20.26,20.26,0,0,1-2.65.1h-3.58Zm0-6.74h2.22q2.72,0,3.3.06a2.32,2.32,0,0,1,1.45.59,1.73,1.73,0,0,1,.49,1.28,1.68,1.68,0,0,1-.57,1.32,2.71,2.71,0,0,1-1.56.61q-.55.06-2.81.06h-2.53Zm-3.88-2.83v17h6.52q3.7,0,4.66-.12a6,6,0,0,0,2.59-.81,4.75,4.75,0,0,0,1.66-1.76,4.59,4.59,0,0,0,.61-2.26,3.82,3.82,0,0,0-.94-2.57,5.15,5.15,0,0,0-2.68-1.55,4.36,4.36,0,0,0,2-1.49,3.63,3.63,0,0,0,.72-2.18,3.51,3.51,0,0,0-.59-2,4.64,4.64,0,0,0-1.47-1.42,5.48,5.48,0,0,0-2-.7,25.28,25.28,0,0,0-3.39-.17Zm38.09,4,2.41,6.29h-4.75Zm-1.83-4-6.74,17h3.72l1.44-3.87h7l1.5,3.87h3.78l-6.95-17Zm36.39,0v11.4l-7.88-11.4h-3.75v17h3.58V311.38l7.76,11.18h3.87v-17Zm-128.59.54a8.11,8.11,0,0,0-3.67,3.17,9,9,0,0,0-1.25,4.73,9.42,9.42,0,0,0,1.12,4.54,7.56,7.56,0,0,0,3.35,3.21,11.51,11.51,0,0,0,5.23,1.12,12.93,12.93,0,0,0,4.67-.79A6.54,6.54,0,0,0,274,319a11.94,11.94,0,0,0,1-5.3h-9v2.64h3.48c0,1.06-.46,2.45-3.59,2.45-2.34,0-3.61-2.74-3.61-4.9s.75-5.4,3.65-5.67a4,4,0,0,1,4.3,2.71l3.85.06a6,6,0,0,0-2.58-4.38,10,10,0,0,0-5.57-1.33,10.94,10.94,0,0,0-4.58.85m150.09-.31a8.11,8.11,0,0,0-3.67,3.17,9,9,0,0,0-1.25,4.73,9.42,9.42,0,0,0,1.12,4.54,7.56,7.56,0,0,0,3.35,3.21,11.51,11.51,0,0,0,5.23,1.12,12.9,12.9,0,0,0,4.67-.8,6.54,6.54,0,0,0,3.17-3.1,11.93,11.93,0,0,0,1-5.3h-9V316h3.48c0,1.06-.46,2.45-3.59,2.45-2.34,0-3.61-2.74-3.61-4.9s.74-5.4,3.65-5.67a4,4,0,0,1,4.3,2.71l3.85.06a6,6,0,0,0-2.58-4.38,10,10,0,0,0-5.57-1.33,10.94,10.94,0,0,0-4.58.85"/></clipPath><linearGradient id="linear-gradient-4" x1="213.51" y1="1126.64" x2="213.51" y2="1126.54" gradientTransform="matrix(0, 304.39, 304.39, 0, -342629.46, -64676.11)" xlink:href="#linear-gradient"/><clipPath id="clip-path-3"><path class="cls-1" d="M17.43,322.58H49.62l-32.19-32Zm0-73v7.7c0,13.42,3.66,17.05,9.52,22.87L61,314c5.53,5.49,8.69,8.63,21.72,8.63h61.83l-30.92-30.69V239.75L87.36,265.82,61.1,239.75v56.43L40.27,275.5V219.07L17.43,196.4Zm66.88-66.88H33.21l54.15,53.75,26.91-26.71,20.18,20v53.43l22.84,22.67V248c0-13.42-3.66-17.05-9.52-22.87l-34-33.78c-5.53-5.49-8.69-8.63-21.72-8.63Zm40.8,0,32.19,32v-32Z"/></clipPath><linearGradient id="linear-gradient-5" x1="210.64" y1="1124.71" x2="211.42" y2="1124.71" gradientTransform="matrix(0, 229.22, 229.22, 0, -257712.71, -48118.71)" xlink:href="#linear-gradient"/></defs><title>asset</title><g id="Layer_2" data-name="Layer 2"><g class="cls-3"><rect class="cls-4" x="250.97" y="74.78" width="147.27" height="324.92" transform="translate(59.98 539.94) rotate(-85)"/></g><path class="cls-2" d="M171.13,315.12h3.13a14.78,14.78,0,0,1,3.43.24,2.36,2.36,0,0,1,1.21.78,2,2,0,0,1,.42,1.3,2,2,0,0,1-.54,1.45,2.51,2.51,0,0,1-1.4.68,20.27,20.27,0,0,1-2.65.1h-3.58Zm0-6.74h2.22q2.72,0,3.3.06a2.32,2.32,0,0,1,1.45.59,1.73,1.73,0,0,1,.49,1.28,1.68,1.68,0,0,1-.57,1.32,2.7,2.7,0,0,1-1.56.61c-.37,0-1.3.06-2.8.06h-2.53Zm-3.88-2.83v17h6.52q3.7,0,4.66-.12a6,6,0,0,0,2.59-.81,4.74,4.74,0,0,0,1.66-1.76,4.6,4.6,0,0,0,.61-2.26,3.82,3.82,0,0,0-.94-2.57,5.15,5.15,0,0,0-2.68-1.55,4.37,4.37,0,0,0,2-1.49,3.63,3.63,0,0,0,.72-2.18,3.52,3.52,0,0,0-.59-2,4.65,4.65,0,0,0-1.47-1.42,5.47,5.47,0,0,0-2-.7,25.31,25.31,0,0,0-3.39-.17Zm38.09,4,2.41,6.29H203Zm-1.83-4-6.74,17h3.72l1.44-3.87h7l1.5,3.87h3.78l-6.95-17Zm36.39,0v11.4L232,305.55h-3.76v17h3.59V311.38l7.76,11.18h3.87v-17Zm81.31,9.57h3.12a14.79,14.79,0,0,1,3.43.24,2.36,2.36,0,0,1,1.21.78,2,2,0,0,1,.42,1.3,2,2,0,0,1-.54,1.45,2.51,2.51,0,0,1-1.4.68,20.26,20.26,0,0,1-2.65.1h-3.58Zm0-6.74h2.22q2.72,0,3.3.06a2.32,2.32,0,0,1,1.45.59,1.73,1.73,0,0,1,.49,1.28,1.68,1.68,0,0,1-.57,1.32,2.71,2.71,0,0,1-1.56.61q-.55.06-2.81.06h-2.53Zm-3.88-2.83v17h6.52q3.7,0,4.66-.12a6,6,0,0,0,2.59-.81,4.75,4.75,0,0,0,1.66-1.76,4.59,4.59,0,0,0,.61-2.26,3.82,3.82,0,0,0-.94-2.57,5.15,5.15,0,0,0-2.68-1.55,4.36,4.36,0,0,0,2-1.49,3.63,3.63,0,0,0,.72-2.18,3.51,3.51,0,0,0-.59-2,4.64,4.64,0,0,0-1.47-1.42,5.48,5.48,0,0,0-2-.7,25.28,25.28,0,0,0-3.39-.17Zm38.09,4,2.41,6.29h-4.75Zm-1.83-4-6.74,17h3.72l1.44-3.87h7l1.5,3.87h3.78l-6.95-17Zm36.39,0v11.4l-7.88-11.4h-3.75v17h3.58V311.38l7.76,11.18h3.87v-17Zm-128.59.54a8.11,8.11,0,0,0-3.67,3.17,9,9,0,0,0-1.25,4.73,9.42,9.42,0,0,0,1.12,4.54,7.56,7.56,0,0,0,3.35,3.21,11.51,11.51,0,0,0,5.23,1.12,12.93,12.93,0,0,0,4.67-.79A6.54,6.54,0,0,0,274,319a11.94,11.94,0,0,0,1-5.3h-9v2.64h3.48c0,1.06-.46,2.45-3.59,2.45-2.34,0-3.61-2.74-3.61-4.9s.75-5.4,3.65-5.67a4,4,0,0,1,4.3,2.71l3.85.06a6,6,0,0,0-2.58-4.38,10,10,0,0,0-5.57-1.33,10.94,10.94,0,0,0-4.58.85m150.09-.31a8.11,8.11,0,0,0-3.67,3.17,9,9,0,0,0-1.25,4.73,9.42,9.42,0,0,0,1.12,4.54,7.56,7.56,0,0,0,3.35,3.21,11.51,11.51,0,0,0,5.23,1.12,12.9,12.9,0,0,0,4.67-.8,6.54,6.54,0,0,0,3.17-3.1,11.93,11.93,0,0,0,1-5.3h-9V316h3.48c0,1.06-.46,2.45-3.59,2.45-2.34,0-3.61-2.74-3.61-4.9s.74-5.4,3.65-5.67a4,4,0,0,1,4.3,2.71l3.85.06a6,6,0,0,0-2.58-4.38,10,10,0,0,0-5.57-1.33,10.94,10.94,0,0,0-4.58.85"/><g class="cls-5"><rect class="cls-6" x="282.75" y="184.71" width="26.92" height="258.37" transform="translate(-27.84 598.97) rotate(-88)"/></g><g class="cls-7"><rect class="cls-8" x="-6.7" y="158.58" width="188.12" height="188.12" transform="translate(-105.18 67.2) rotate(-27)"/></g></g></svg>