<svg xmlns="http://www.w3.org/2000/svg" xmlns:xlink="http://www.w3.org/1999/xlink" viewBox="0 0 500 500"><defs><style>.cls-1{fill:none;}.cls-2{fill:url(#linear-gradient);}.cls-3{fill:url(#linear-gradient-2);}.cls-4{fill:url(#linear-gradient-3);}.cls-5{fill:url(#linear-gradient-4);}.cls-6{fill:url(#linear-gradient-5);}.cls-7{fill:url(#linear-gradient-6);}.cls-8{clip-path:url(#clip-path);}.cls-9{fill:url(#linear-gradient-7);}</style><linearGradient id="linear-gradient" x1="286.44" y1="92.6" x2="345.9" y2="92.6" gradientUnits="userSpaceOnUse"><stop offset="0" stop-color="#7df5d0"/><stop offset="1" stop-color="#209c8c"/></linearGradient><linearGradient id="linear-gradient-2" x1="243.86" y1="463.12" x2="287.74" y2="463.12" xlink:href="#linear-gradient"/><linearGradient id="linear-gradient-3" x1="203.49" y1="233.23" x2="396.32" y2="233.23" xlink:href="#linear-gradient"/><linearGradient id="linear-gradient-4" x1="157.5" y1="63.39" x2="216.95" y2="63.39" xlink:href="#linear-gradient"/><linearGradient id="linear-gradient-5" x1="107.07" y1="127.45" x2="258.51" y2="127.45" xlink:href="#linear-gradient"/><linearGradient id="linear-gradient-6" x1="215.65" y1="361.5" x2="299.9" y2="361.5" xlink:href="#linear-gradient"/><clipPath id="clip-path"><path class="cls-1" d="M537.43,322.58h32.19l-32.19-32Zm0-73v7.7c0,13.42,3.66,17.05,9.52,22.87L581,314c5.53,5.49,8.69,8.63,21.72,8.63h61.83l-30.92-30.69V239.75l-26.26,26.07L581.1,239.75v56.43L560.27,275.5V219.07L537.43,196.4Zm66.88-66.88h-51.1l54.15,53.75,26.91-26.71,20.18,20v53.43l22.84,22.67V248c0-13.42-3.66-17.05-9.52-22.87l-34-33.78c-5.53-5.49-8.69-8.63-21.72-8.63Zm40.8,0,32.19,32v-32Z"/></clipPath><linearGradient id="linear-gradient-7" x1="730.64" y1="1124.71" x2="731.42" y2="1124.71" gradientTransform="matrix(0, 229.22, 229.22, 0, -257192.72, -167310.62)" xlink:href="#linear-gradient"/></defs><title>asset</title><g id="Layer_1" data-name="Layer 1"><ellipse id="_Path_" data-name="&lt;Path&gt;" class="cls-2" cx="316.17" cy="92.6" rx="29.73" ry="32.86"/><g id="_Group_" data-name="&lt;Group&gt;"><path id="_Path_2" data-name="&lt;Path&gt;" class="cls-3" d="M243.86,441.89a310.8,310.8,0,0,0,43.88,48.53,269.09,269.09,0,0,1-38.55-54.6Q246.46,439,243.86,441.89Z"/><path id="_Path_3" data-name="&lt;Path&gt;" class="cls-4" d="M250.94,105.21C280.12,145,297.14,188.8,239.4,250.87c-57.51,61.82-35.73,129.28-5.28,176.82,2.13-3.12,4.29-6.44,6.46-9.93-16.78-39.94-22.81-90.1,17.57-133.78,47.43-51.3,120.78-77.61,138.17-245.19C396.32,38.78,346.26,198.39,250.94,105.21Z"/></g><g id="_Group_2" data-name="&lt;Group&gt;"><ellipse id="_Path_4" data-name="&lt;Path&gt;" class="cls-5" cx="187.22" cy="63.39" rx="29.73" ry="32.86"/><path id="_Path_5" data-name="&lt;Path&gt;" class="cls-6" d="M258.51,215.56C207.39,156.7,224.24,114.5,252.46,76,157.14,169.18,107.07,9.57,107.07,9.57c16.29,157,81.72,190,128.92,235.75A175.58,175.58,0,0,0,258.51,215.56Z"/><path id="_Path_6" data-name="&lt;Path&gt;" class="cls-7" d="M265.82,285c39,83.56-50.17,176.24-50.17,176.24s117.4-100,75-199.43C281.89,269.52,273.54,277,265.82,285Z"/></g></g><g id="Layer_2" data-name="Layer 2"><g class="cls-8"><rect class="cls-9" x="513.3" y="158.58" width="188.12" height="188.12" transform="translate(-48.5 303.27) rotate(-27)"/></g></g></svg>