<svg id="Layer_1" data-name="Layer 1" xmlns="http://www.w3.org/2000/svg" xmlns:xlink="http://www.w3.org/1999/xlink" viewBox="0 0 500 500"><defs><style>.cls-1{fill:url(#linear-gradient);}.cls-2{fill:url(#linear-gradient-2);}.cls-3{fill:url(#linear-gradient-3);}.cls-4{fill:url(#linear-gradient-4);}.cls-5{fill:url(#linear-gradient-5);}.cls-6{fill:url(#linear-gradient-6);}.cls-7{fill:url(#linear-gradient-7);}.cls-8{fill:url(#linear-gradient-8);}.cls-9{fill:url(#linear-gradient-9);}.cls-10{fill:url(#linear-gradient-10);}.cls-11{fill:url(#linear-gradient-11);}.cls-12{fill:url(#linear-gradient-12);}.cls-13{fill:url(#linear-gradient-13);}.cls-14{fill:url(#linear-gradient-14);}.cls-15{fill:url(#linear-gradient-15);}.cls-16{fill:url(#linear-gradient-16);}.cls-17{fill:url(#linear-gradient-17);}.cls-18{fill:url(#linear-gradient-18);}.cls-19{fill:url(#linear-gradient-19);}.cls-20{fill:url(#linear-gradient-20);}.cls-21{fill:url(#linear-gradient-21);}.cls-22{fill:url(#linear-gradient-22);}.cls-23{fill:url(#linear-gradient-23);}.cls-24{fill:url(#linear-gradient-24);}.cls-25{fill:url(#linear-gradient-25);}.cls-26{fill:url(#linear-gradient-26);}.cls-27{fill:url(#linear-gradient-27);}.cls-28{fill:url(#linear-gradient-28);}.cls-29{fill:url(#linear-gradient-29);}.cls-30{fill:url(#linear-gradient-30);}.cls-31{fill:url(#linear-gradient-31);}.cls-32{fill:url(#linear-gradient-32);}.cls-33{fill:url(#linear-gradient-33);}.cls-34{fill:url(#linear-gradient-34);}.cls-35{fill:url(#linear-gradient-35);}.cls-36{fill:url(#linear-gradient-36);}.cls-37{fill:url(#linear-gradient-37);}.cls-38{fill:url(#linear-gradient-38);}.cls-39{fill:url(#linear-gradient-39);}.cls-40{fill:url(#linear-gradient-40);}.cls-41{fill:url(#linear-gradient-41);}.cls-42{fill:url(#linear-gradient-42);}.cls-43{fill:url(#linear-gradient-43);}.cls-44{fill:url(#linear-gradient-44);}.cls-45{fill:url(#linear-gradient-45);}.cls-46{fill:url(#linear-gradient-46);}.cls-47{fill:url(#linear-gradient-47);}.cls-48{fill:url(#linear-gradient-48);}.cls-49{fill:url(#linear-gradient-49);}.cls-50{fill:url(#linear-gradient-50);}</style><linearGradient id="linear-gradient" x1="147.79" y1="351.72" x2="151.62" y2="418.36" gradientUnits="userSpaceOnUse"><stop offset="0" stop-color="#7df6d2"/><stop offset="1" stop-color="#1f9c8b"/></linearGradient><linearGradient id="linear-gradient-2" x1="182.6" y1="349.72" x2="186.43" y2="416.36" xlink:href="#linear-gradient"/><linearGradient id="linear-gradient-3" x1="225.56" y1="347.25" x2="229.39" y2="413.89" xlink:href="#linear-gradient"/><linearGradient id="linear-gradient-4" x1="267.24" y1="344.85" x2="271.07" y2="411.49" xlink:href="#linear-gradient"/><linearGradient id="linear-gradient-5" x1="305.33" y1="342.67" x2="309.16" y2="409.3" xlink:href="#linear-gradient"/><linearGradient id="linear-gradient-6" x1="347.18" y1="340.26" x2="351.01" y2="406.9" xlink:href="#linear-gradient"/><linearGradient id="linear-gradient-7" x1="168.78" y1="411.78" x2="170.32" y2="468.46" xlink:href="#linear-gradient"/><linearGradient id="linear-gradient-8" x1="206.39" y1="410.76" x2="207.92" y2="467.44" xlink:href="#linear-gradient"/><linearGradient id="linear-gradient-9" x1="245.35" y1="409.71" x2="246.88" y2="466.39" xlink:href="#linear-gradient"/><linearGradient id="linear-gradient-10" x1="285.7" y1="408.62" x2="287.23" y2="465.3" xlink:href="#linear-gradient"/><linearGradient id="linear-gradient-11" x1="323.44" y1="407.6" x2="324.97" y2="464.28" xlink:href="#linear-gradient"/><linearGradient id="linear-gradient-12" x1="43.57" y1="175.51" x2="379.82" y2="179.34" xlink:href="#linear-gradient"/><linearGradient id="linear-gradient-13" x1="42.48" y1="270.37" x2="378.74" y2="274.2" xlink:href="#linear-gradient"/><linearGradient id="linear-gradient-14" x1="42.44" y1="274.53" x2="378.69" y2="278.36" xlink:href="#linear-gradient"/><linearGradient id="linear-gradient-15" x1="42.44" y1="274.22" x2="378.7" y2="278.05" xlink:href="#linear-gradient"/><linearGradient id="linear-gradient-16" x1="43.65" y1="168.07" x2="379.91" y2="171.9" xlink:href="#linear-gradient"/><linearGradient id="linear-gradient-17" x1="43.65" y1="167.69" x2="379.91" y2="171.52" xlink:href="#linear-gradient"/><linearGradient id="linear-gradient-18" x1="43.35" y1="193.98" x2="379.61" y2="197.81" xlink:href="#linear-gradient"/><linearGradient id="linear-gradient-19" x1="43.58" y1="174.36" x2="379.83" y2="178.19" xlink:href="#linear-gradient"/><linearGradient id="linear-gradient-20" x1="42.5" y1="269.22" x2="378.75" y2="273.05" xlink:href="#linear-gradient"/><linearGradient id="linear-gradient-21" x1="42.45" y1="273.38" x2="378.71" y2="277.21" xlink:href="#linear-gradient"/><linearGradient id="linear-gradient-22" x1="42.45" y1="273.07" x2="378.71" y2="276.9" xlink:href="#linear-gradient"/><linearGradient id="linear-gradient-23" x1="43.66" y1="166.92" x2="379.92" y2="170.75" xlink:href="#linear-gradient"/><linearGradient id="linear-gradient-24" x1="43.67" y1="166.54" x2="379.92" y2="170.37" xlink:href="#linear-gradient"/><linearGradient id="linear-gradient-25" x1="43.37" y1="192.83" x2="379.62" y2="196.66" xlink:href="#linear-gradient"/><linearGradient id="linear-gradient-26" x1="43.55" y1="176.66" x2="379.81" y2="180.49" xlink:href="#linear-gradient"/><linearGradient id="linear-gradient-27" x1="42.47" y1="271.53" x2="378.73" y2="275.36" xlink:href="#linear-gradient"/><linearGradient id="linear-gradient-28" x1="42.42" y1="275.68" x2="378.68" y2="279.51" xlink:href="#linear-gradient"/><linearGradient id="linear-gradient-29" x1="42.43" y1="275.37" x2="378.68" y2="279.2" xlink:href="#linear-gradient"/><linearGradient id="linear-gradient-30" x1="43.64" y1="169.23" x2="379.89" y2="173.06" xlink:href="#linear-gradient"/><linearGradient id="linear-gradient-31" x1="43.64" y1="168.84" x2="379.9" y2="172.67" xlink:href="#linear-gradient"/><linearGradient id="linear-gradient-32" x1="43.34" y1="195.13" x2="379.6" y2="198.96" xlink:href="#linear-gradient"/><linearGradient id="linear-gradient-33" x1="44.6" y1="84.52" x2="380.86" y2="88.34" xlink:href="#linear-gradient"/><linearGradient id="linear-gradient-34" x1="44.11" y1="127.37" x2="380.37" y2="131.2" xlink:href="#linear-gradient"/><linearGradient id="linear-gradient-35" x1="43.46" y1="184.8" x2="379.71" y2="188.63" xlink:href="#linear-gradient"/><linearGradient id="linear-gradient-36" x1="43.46" y1="184.69" x2="379.72" y2="188.52" xlink:href="#linear-gradient"/><linearGradient id="linear-gradient-37" x1="44.69" y1="77.08" x2="380.94" y2="80.91" xlink:href="#linear-gradient"/><linearGradient id="linear-gradient-38" x1="44.69" y1="76.69" x2="380.95" y2="80.52" xlink:href="#linear-gradient"/><linearGradient id="linear-gradient-39" x1="44.39" y1="102.98" x2="380.65" y2="106.81" xlink:href="#linear-gradient"/><linearGradient id="linear-gradient-40" x1="44.61" y1="83.36" x2="380.87" y2="87.19" xlink:href="#linear-gradient"/><linearGradient id="linear-gradient-41" x1="44.13" y1="126.22" x2="380.38" y2="130.05" xlink:href="#linear-gradient"/><linearGradient id="linear-gradient-42" x1="43.47" y1="183.65" x2="379.73" y2="187.48" xlink:href="#linear-gradient"/><linearGradient id="linear-gradient-43" x1="43.47" y1="183.54" x2="379.73" y2="187.37" xlink:href="#linear-gradient"/><linearGradient id="linear-gradient-44" x1="44.7" y1="75.92" x2="380.95" y2="79.75" xlink:href="#linear-gradient"/><linearGradient id="linear-gradient-45" x1="44.7" y1="75.54" x2="380.96" y2="79.37" xlink:href="#linear-gradient"/><linearGradient id="linear-gradient-46" x1="44.4" y1="101.83" x2="380.66" y2="105.66" xlink:href="#linear-gradient"/><linearGradient id="linear-gradient-47" x1="44.55" y1="89.4" x2="380.8" y2="93.23" xlink:href="#linear-gradient"/><linearGradient id="linear-gradient-48" x1="44.51" y1="92.56" x2="380.77" y2="96.39" xlink:href="#linear-gradient"/><linearGradient id="linear-gradient-49" x1="43.85" y1="150.93" x2="380.1" y2="154.76" xlink:href="#linear-gradient"/><linearGradient id="linear-gradient-50" x1="43.89" y1="147.1" x2="380.14" y2="150.93" xlink:href="#linear-gradient"/></defs><path class="cls-1" d="M158.08,362.05a12,12,0,0,1,7.42,11.61,12.67,12.67,0,0,1-1.92,7,12.22,12.22,0,0,1-5.5,4.58,20.52,20.52,0,0,1-8.41,1.59h-7.34v10.05H133.9V360.44h15.77A20.19,20.19,0,0,1,158.08,362.05ZM155,378.32a6.53,6.53,0,0,0,0-9.37,8.78,8.78,0,0,0-5.77-1.64h-6.88V380h6.88A8.84,8.84,0,0,0,155,378.32Z"/><path class="cls-2" d="M193.67,389.07H176.75l-3.23,7.81h-8.64l16.24-36.44h8.33l16.3,36.44H196.9Zm-2.66-6.4-5.78-14-5.78,14Z"/><path class="cls-3" d="M209.55,360.44H226.1a23.23,23.23,0,0,1,10.49,2.26,17,17,0,0,1,7.09,6.38,19.47,19.47,0,0,1,0,19.16,17,17,0,0,1-7.09,6.38,23.23,23.23,0,0,1-10.49,2.26H209.55ZM225.69,390a12.26,12.26,0,0,0,8.72-3,12.1,12.1,0,0,0,0-16.5,12.26,12.26,0,0,0-8.72-3.05H218V390Z"/><path class="cls-4" d="M256.59,393.18q-4.35-4.32-4.35-12.34v-20.4h8.43v20.09q0,9.8,8.13,9.79a7.59,7.59,0,0,0,6-2.37q2.09-2.37,2.09-7.42V360.44h8.33v20.4q0,8-4.35,12.34t-12.16,4.33C263.54,397.51,259.48,396.06,256.59,393.18Z"/><path class="cls-5" d="M316.8,389.07H299.88l-3.23,7.81H288l16.24-36.44h8.33l16.3,36.44H320Zm-2.66-6.4-5.78-14-5.78,14Z"/><path class="cls-6" d="M366.1,360.44v36.44h-6.92L341,374.75v22.13h-8.33V360.44h7l18.12,22.12V360.44Z"/><path class="cls-7" d="M161.21,458.81a19.7,19.7,0,0,1-6.49-3.05l2.87-6.35a19.2,19.2,0,0,0,5.57,2.76,20.71,20.71,0,0,0,6.45,1,10.31,10.31,0,0,0,5.31-1.06,3.23,3.23,0,0,0,1.72-2.84,2.72,2.72,0,0,0-1-2.16,7.85,7.85,0,0,0-2.61-1.38c-1.05-.35-2.49-.73-4.29-1.15a59.13,59.13,0,0,1-6.82-2,11,11,0,0,1-4.56-3.17,8.61,8.61,0,0,1-1.9-5.83,10.21,10.21,0,0,1,1.72-5.76,11.57,11.57,0,0,1,5.18-4.08,21.09,21.09,0,0,1,8.46-1.51,28.24,28.24,0,0,1,6.82.83,20.25,20.25,0,0,1,5.83,2.39l-2.6,6.41a20.3,20.3,0,0,0-10.1-2.86,9.5,9.5,0,0,0-5.23,1.14,3.49,3.49,0,0,0-1.69,3,3,3,0,0,0,1.95,2.79,31.26,31.26,0,0,0,6,1.79,59.13,59.13,0,0,1,6.82,2,11.36,11.36,0,0,1,4.56,3.12,8.42,8.42,0,0,1,1.9,5.78,9.94,9.94,0,0,1-1.75,5.7,11.74,11.74,0,0,1-5.23,4.09,21.31,21.31,0,0,1-8.49,1.51A29.81,29.81,0,0,1,161.21,458.81Z"/><path class="cls-8" d="M194.84,455.66q-4.35-4.32-4.35-12.34V422.91h8.44V443q0,9.78,8.12,9.79a7.63,7.63,0,0,0,6-2.37c1.38-1.58,2.08-4.05,2.08-7.42v-20.1h8.33v20.41q0,8-4.35,12.34T207,460Q199.19,460,194.84,455.66Z"/><path class="cls-9" d="M255.05,451.55H238.13l-3.23,7.81h-8.64l16.24-36.45h8.33l16.3,36.45h-8.85Zm-2.66-6.41-5.77-13.95-5.78,13.95Z"/><path class="cls-10" d="M294.15,459.36l-7-10.16h-7.76v10.16h-8.43V422.91H286.7a20.19,20.19,0,0,1,8.41,1.62,12.48,12.48,0,0,1,5.5,4.58,12.66,12.66,0,0,1,1.92,7,11.85,11.85,0,0,1-7.5,11.5l8.18,11.72ZM292,431.42a8.84,8.84,0,0,0-5.77-1.64h-6.88v12.71h6.88a8.73,8.73,0,0,0,5.77-1.67,6.57,6.57,0,0,0,0-9.4Z"/><path class="cls-11" d="M333.2,451.55H316.28l-3.23,7.81h-8.64l16.24-36.45H329l16.3,36.45h-8.86Zm-2.66-6.41-5.78-13.95L319,445.14Z"/><path class="cls-12" d="M251.35,224.15a45.92,45.92,0,0,1-27.57-9.1,46.28,46.28,0,1,1,54.64.37A46,46,0,0,1,251.35,224.15Zm0-88.53a42.26,42.26,0,1,0,42.27,42.26A42.31,42.31,0,0,0,251.35,135.62Z"/><path class="cls-13" d="M298.32,333.47H203.58a2,2,0,0,1-2-1.68C189.89,259.22,213,223.92,223.47,212.1a2,2,0,0,1,2.7-.27,42.29,42.29,0,0,0,49.9.33,2,2,0,0,1,2.69.31c10.35,11.85,33.18,47.2,21.54,119.32A2,2,0,0,1,298.32,333.47Zm-93-4h91.32c10.34-66.71-9.39-100.45-19.72-113a46.34,46.34,0,0,1-51.59-.35C214.86,228.63,194.89,262.35,205.29,329.46Z"/><path class="cls-14" d="M251.19,304.53a1.89,1.89,0,0,1-.73-.14c-.2-.07-19.64-7.68-32.71-6.57a2,2,0,0,1-2.18-2v-44.5a2,2,0,0,1,1.78-2c1-.12,25.68-2.81,35.4,9.16a2,2,0,0,1,.45,1.26v42.79a2,2,0,0,1-.88,1.66A2,2,0,0,1,251.19,304.53Zm-30.7-10.84c10.59,0,23.21,4,28.7,6V260.48c-7.25-8.05-24.1-7.68-29.61-7.32V293.7Z"/><path class="cls-15" d="M251.51,304.53a2,2,0,0,1-1.13-.34,2,2,0,0,1-.88-1.66V259.74a2,2,0,0,1,.45-1.26c9.72-12,34.36-9.28,35.41-9.16a2,2,0,0,1,1.77,2v44.5a2,2,0,0,1-.64,1.48,2,2,0,0,1-1.53.52c-13.08-1.11-32.52,6.5-32.71,6.57A1.91,1.91,0,0,1,251.51,304.53Zm2-44v39.17c5.65-2,18.85-6.19,29.61-5.95V253.16C277.61,252.8,260.77,252.43,253.51,260.48Z"/><circle class="cls-16" cx="234.48" cy="170.25" r="5.73"/><circle class="cls-17" cx="268.23" cy="170.25" r="5.73"/><path class="cls-18" d="M251.2,209.83c-5.63,0-10.21-6.05-10.21-13.48s4.58-13.49,10.21-13.49,10.2,6,10.2,13.49S256.82,209.83,251.2,209.83Zm0-23c-3.36,0-6.2,4.34-6.2,9.48s2.84,9.47,6.2,9.47,6.19-4.34,6.19-9.47S254.55,186.87,251.2,186.87Z"/><path class="cls-19" d="M352.47,224.15a45.94,45.94,0,0,1-27.57-9.1,46.27,46.27,0,1,1,54.65.37A46,46,0,0,1,352.47,224.15Zm0-88.53a42.26,42.26,0,1,0,42.27,42.26A42.31,42.31,0,0,0,352.47,135.62Z"/><path class="cls-20" d="M399.44,333.47H304.7a2,2,0,0,1-2-1.68c-11.7-72.57,11.4-107.88,21.87-119.69a2,2,0,0,1,2.7-.27,42.31,42.31,0,0,0,49.91.33,2,2,0,0,1,2.68.31c10.36,11.85,33.18,47.2,21.55,119.32A2,2,0,0,1,399.44,333.47Zm-93-4h91.31c10.34-66.71-9.39-100.45-19.71-113a46.35,46.35,0,0,1-51.6-.35C316,228.63,296,262.35,306.42,329.46Z"/><path class="cls-21" d="M352.32,304.53a1.91,1.91,0,0,1-.74-.14c-.19-.07-19.64-7.68-32.71-6.57a2,2,0,0,1-2.18-2v-44.5a2,2,0,0,1,1.78-2c1-.12,25.68-2.81,35.41,9.16a2,2,0,0,1,.45,1.26v42.79a2,2,0,0,1-.88,1.66A2,2,0,0,1,352.32,304.53Zm-30.7-10.84c10.59,0,23.21,4,28.69,6V260.48c-7.25-8.05-24.1-7.68-29.6-7.32V293.7Z"/><path class="cls-22" d="M352.63,304.53a2,2,0,0,1-1.13-.34,2,2,0,0,1-.88-1.66V259.74a2,2,0,0,1,.45-1.26c9.73-12,34.37-9.28,35.41-9.16a2,2,0,0,1,1.78,2v44.5a2,2,0,0,1-2.18,2c-13.08-1.11-32.52,6.5-32.71,6.57A1.91,1.91,0,0,1,352.63,304.53Zm2-44v39.17c5.64-2,18.84-6.19,29.6-5.95V253.16C378.73,252.8,361.89,252.43,354.64,260.48Z"/><circle class="cls-23" cx="335.6" cy="170.25" r="5.73"/><circle class="cls-24" cx="369.35" cy="170.25" r="5.73"/><path class="cls-25" d="M352.32,209.83c-5.63,0-10.21-6.05-10.21-13.48s4.58-13.49,10.21-13.49,10.21,6,10.21,13.49S358,209.83,352.32,209.83Zm0-23c-3.36,0-6.2,4.34-6.2,9.48s2.84,9.47,6.2,9.47,6.19-4.34,6.19-9.47S355.68,186.87,352.32,186.87Z"/><path class="cls-26" d="M150.23,224.15a46,46,0,0,1-27.58-9.1,46.28,46.28,0,1,1,54.65.37A46,46,0,0,1,150.23,224.15Zm0-88.53a42.26,42.26,0,1,0,42.26,42.26A42.31,42.31,0,0,0,150.23,135.62Z"/><path class="cls-27" d="M197.2,333.47H102.46a2,2,0,0,1-2-1.68c-11.7-72.57,11.4-107.87,21.88-119.69a2,2,0,0,1,2.7-.27,42.29,42.29,0,0,0,49.9.33,2,2,0,0,1,2.69.31c10.35,11.85,33.17,47.2,21.54,119.32A2,2,0,0,1,197.2,333.47Zm-93-4h91.31c10.35-66.71-9.39-100.45-19.71-113a46.34,46.34,0,0,1-51.59-.35C113.73,228.63,93.77,262.35,104.17,329.46Z"/><path class="cls-28" d="M150.07,304.53a1.91,1.91,0,0,1-.74-.14c-.19-.07-19.64-7.68-32.71-6.57a2,2,0,0,1-2.18-2v-44.5a2,2,0,0,1,1.78-2c1-.12,25.69-2.81,35.41,9.16a2,2,0,0,1,.45,1.26v42.79a2,2,0,0,1-.88,1.66A2,2,0,0,1,150.07,304.53Zm-30.7-10.84c10.59,0,23.21,4,28.69,6V260.48c-7.25-8.05-24.09-7.68-29.6-7.32V293.7Z"/><path class="cls-29" d="M150.38,304.53a2,2,0,0,1-1.12-.34,2,2,0,0,1-.88-1.66V259.74a2,2,0,0,1,.45-1.26c9.72-12,34.36-9.28,35.4-9.16a2,2,0,0,1,1.78,2v44.5a2,2,0,0,1-.65,1.48,2,2,0,0,1-1.53.52c-13.07-1.11-32.51,6.5-32.71,6.57A1.91,1.91,0,0,1,150.38,304.53Zm2-44v39.17c5.64-2,18.85-6.19,29.61-5.95V253.16C176.49,252.8,159.64,252.43,152.39,260.48Z"/><circle class="cls-30" cx="133.35" cy="170.25" r="5.73"/><circle class="cls-31" cx="167.1" cy="170.25" r="5.73"/><path class="cls-32" d="M150.07,209.83c-5.63,0-10.21-6.05-10.21-13.48s4.58-13.49,10.21-13.49,10.21,6,10.21,13.49S155.7,209.83,150.07,209.83Zm0-23c-3.36,0-6.19,4.34-6.19,9.48s2.83,9.47,6.19,9.47,6.2-4.34,6.2-9.47S153.43,186.87,150.07,186.87Z"/><path class="cls-33" d="M200.79,132.57a45.91,45.91,0,0,1-27.58-9.11,46.28,46.28,0,1,1,54.65.37A45.9,45.9,0,0,1,200.79,132.57Zm0-88.54A42.26,42.26,0,1,0,243.06,86.3,42.31,42.31,0,0,0,200.79,44Z"/><path class="cls-34" d="M236.36,138.23a2,2,0,0,1-1.76-1,79.37,79.37,0,0,0-8.26-12.29,46.33,46.33,0,0,1-51.6-.34,77.62,77.62,0,0,0-8.42,12.4,2,2,0,1,1-3.51-1.93,80.29,80.29,0,0,1,10.1-14.5,2,2,0,0,1,2.7-.27,42.31,42.31,0,0,0,49.91.33,2,2,0,0,1,2.68.31,81.47,81.47,0,0,1,9.92,14.36,2,2,0,0,1-.8,2.73A2,2,0,0,1,236.36,138.23Z"/><path class="cls-35" d="M200.63,213a1.91,1.91,0,0,1-.74-.14A126.09,126.09,0,0,0,184,208a2,2,0,1,1,.9-3.92,128.38,128.38,0,0,1,13.77,4V168.9a19.26,19.26,0,0,0-7.72-4.89,2,2,0,0,1,1.4-3.76,22.39,22.39,0,0,1,9.88,6.65,2,2,0,0,1,.45,1.26V211a2,2,0,0,1-.88,1.66A2,2,0,0,1,200.63,213Z"/><path class="cls-36" d="M201,213a2,2,0,0,1-1.13-.34,2,2,0,0,1-.88-1.66V168.16a2,2,0,0,1,.45-1.26,22.39,22.39,0,0,1,9.88-6.65,2,2,0,1,1,1.4,3.76A19.19,19.19,0,0,0,203,168.9v39.17a128,128,0,0,1,13.78-4,2,2,0,0,1,.89,3.92,127.21,127.21,0,0,0-15.94,4.84A1.89,1.89,0,0,1,201,213Z"/><circle class="cls-37" cx="183.91" cy="78.66" r="5.73"/><circle class="cls-38" cx="217.67" cy="78.66" r="5.73"/><path class="cls-39" d="M200.63,118.25c-5.63,0-10.2-6-10.2-13.49s4.57-13.48,10.2-13.48,10.21,6,10.21,13.48S206.26,118.25,200.63,118.25Zm0-23c-3.35,0-6.19,4.34-6.19,9.47s2.84,9.47,6.19,9.47,6.2-4.33,6.2-9.47S204,95.29,200.63,95.29Z"/><path class="cls-40" d="M302.06,132.57a45.88,45.88,0,0,1-27.57-9.11,46.27,46.27,0,1,1,54.65.37A46,46,0,0,1,302.06,132.57Zm0-88.54A42.31,42.31,0,0,0,259.8,86.3a42.27,42.27,0,0,0,67,34.28A42.27,42.27,0,0,0,302.06,44Z"/><path class="cls-41" d="M337.63,138.23a2,2,0,0,1-1.76-1,78.66,78.66,0,0,0-8.26-12.29,46.33,46.33,0,0,1-51.6-.34A76.92,76.92,0,0,0,267.6,137a2,2,0,0,1-3.52-1.93,79.47,79.47,0,0,1,10.11-14.5,2,2,0,0,1,2.69-.27,42.31,42.31,0,0,0,49.91.33,2,2,0,0,1,2.69.31,81.44,81.44,0,0,1,9.91,14.36,2,2,0,0,1-.8,2.73A1.94,1.94,0,0,1,337.63,138.23Z"/><path class="cls-42" d="M301.91,213a1.91,1.91,0,0,1-.74-.14A126.09,126.09,0,0,0,285.24,208a2,2,0,0,1,.89-3.92,128.38,128.38,0,0,1,13.77,4V168.9a19.19,19.19,0,0,0-7.72-4.89,2,2,0,0,1,1.4-3.76,22.49,22.49,0,0,1,9.89,6.65,2,2,0,0,1,.44,1.26V211a2,2,0,0,1-.88,1.66A2,2,0,0,1,301.91,213Z"/><path class="cls-43" d="M302.22,213a2,2,0,0,1-1.13-.34,2,2,0,0,1-.88-1.66V168.16a2,2,0,0,1,.45-1.26,22.45,22.45,0,0,1,9.88-6.65,2,2,0,1,1,1.4,3.76,19.22,19.22,0,0,0-7.71,4.89v39.17a127.68,127.68,0,0,1,13.77-4,2,2,0,0,1,.9,3.92A125.93,125.93,0,0,0,303,212.81,1.91,1.91,0,0,1,302.22,213Z"/><circle class="cls-44" cx="285.19" cy="78.66" r="5.73"/><circle class="cls-45" cx="318.94" cy="78.66" r="5.73"/><path class="cls-46" d="M301.91,118.25c-5.63,0-10.21-6-10.21-13.49s4.58-13.48,10.21-13.48,10.21,6,10.21,13.48S307.54,118.25,301.91,118.25Zm0-23c-3.36,0-6.2,4.34-6.2,9.47s2.84,9.47,6.2,9.47,6.19-4.33,6.19-9.47S305.26,95.29,301.91,95.29Z"/><path class="cls-47" d="M402.33,103a.28.28,0,0,0,0-.09.5.5,0,0,0,.05-.13q2.48-12.14,5-24.28c.06-.28-.88-.34-.91-.35a182.41,182.41,0,0,1-24.6-3.53c-1.08-.23-4.68.09-5,1.47a116.38,116.38,0,0,1-7.23,22.62c-3.78-1.34-8.74-.66-11.32,2.24a5.44,5.44,0,0,0-1,5.5c1,2.38,3.66,2.75,6,2.51a11.6,11.6,0,0,0,7.41-3.33c2.28-2.44,3.51-6,4.79-9q2.26-5.37,4-10.93,10.57.28,21.14.47l-3.15,15.38a14.81,14.81,0,0,0-7.25,1.28c-2.48,1.16-5,4.3-3.35,7.12,1.83,3.13,6.88,1.91,9.56.84a10.88,10.88,0,0,0,4.43-3.07C401.93,106.41,401.92,104.64,402.33,103ZM380.85,83.81c-.26,0-.54,0-.82,0q.95-3.24,1.73-6.54A191.49,191.49,0,0,0,401.87,80c-.3,1.44-.59,2.87-.89,4.31Q390.92,84.1,380.85,83.81Z"/><path class="cls-48" d="M104.86,90.7c.45-.67,3.36.35,3.81.55-.9-.39.63-.48,1.08-.67a7.67,7.67,0,0,0,1.41-.83,8.88,8.88,0,0,0,2.62-3.33c1.13-2.29,1.56-4.84,2.43-7.23a12.16,12.16,0,0,1,3.94-5.67c1.95-1.52,4.31-2.49,5.58-4.72.64-1.14,6,.49,5.92,1.79a134.08,134.08,0,0,0,2.9,32.78c5.7-1.68,15,1.22,13.94,8.5-1,6.6-9.91,8.79-14.78,5-2.45-1.91-2.89-6.28-3.64-9.12-1-3.9-1.88-7.85-2.56-11.83a133.08,133.08,0,0,1-1.84-20.21c-.15.11-.3.24-.44.36-2.78,2.43-3.4,6.09-4.48,9.43-.94,2.94-2.45,5.91-5.42,7.23-2.8,1.25-6,.75-8.7-.42C106.07,92.08,104.31,91.5,104.86,90.7Z"/><path class="cls-49" d="M92.73,166.73c2.58-2.33,4.46-5.42,4.19-9a10.81,10.81,0,0,0-9.81-9.56,8.08,8.08,0,0,0-1.1,0c-.91-2.46-1.77-4.94-2.52-7.47l-.36-1.2a29.84,29.84,0,0,0,5.94-8.18c1.72-3.75,1.83-8,1.6-12-.14-2.34-.48-5.34-2.4-6.95-2.17-1.84-5.17-.64-7.28.67a10.8,10.8,0,0,0-4.75,6.6c-2.1,7.32-.31,15,1.71,22.18-1.79,1.82-3.66,3.58-5.36,5.49-2.87,3.22-6.26,7.46-5.8,12.06s4.81,9.41,8.89,11.22A14.73,14.73,0,0,0,87.81,170a32.93,32.93,0,0,1,.81,9.59,19.25,19.25,0,0,1-.92,4.93A10.58,10.58,0,0,1,86.51,187c-.17.26-.45.55-.6.83l-.2.18c-.16,0-.39.07-.7.15a10.84,10.84,0,0,1-6.28-1.51c2.72-1.5,5.2-3.84,4.89-6.91a4.7,4.7,0,0,0-3.37-4c-2.07-.53-4.38.62-6.06,1.72-3.53,2.31-5.26,6.68-2.49,10.37s8.49,4.34,12.5,2.83c8.31-3.12,10.17-11.42,9.31-19.41A36.18,36.18,0,0,0,92.73,166.73ZM88.63,154a9.57,9.57,0,0,1,3,8.93c-.61-1.89-1.31-3.76-2.05-5.61l-1.51-3.79C88.27,153.66,88.46,153.82,88.63,154ZM80.4,122.21a26.65,26.65,0,0,1,.68-4.34,15.83,15.83,0,0,1,.77-2.42c.09-.21.23-.44.35-.66a5.11,5.11,0,0,1,1.65,1,6.47,6.47,0,0,1,1.06,2,17.48,17.48,0,0,1,.77,5.47c.08,4.94-.64,9.3-3.36,13.35C81,131.91,80,127,80.4,122.21Zm.22,45.28a16.41,16.41,0,0,1-8.42-9.25C70.81,154.1,73.43,150,76,147c.84-1,1.73-2,2.65-2.93.59,1.9,1.26,3.78,2,5.64a13.32,13.32,0,0,0-5.67,5.24,6.74,6.74,0,0,0,4.77,9.84c1.12.17,2.47-.7,3.35-1.3.19-.13,2.13-1.72,1.27-1.85a6.18,6.18,0,0,1-5-7.7,3.24,3.24,0,0,1,1.93-2.44c2.16,5.53,4.52,11,6.06,16.7a5.84,5.84,0,0,1-.63.13A11.69,11.69,0,0,1,80.62,167.49Z"/><path class="cls-50" d="M429,166.73c2.59-2.33,4.47-5.42,4.2-9a10.81,10.81,0,0,0-9.81-9.56,8.08,8.08,0,0,0-1.1,0c-.91-2.46-1.78-4.94-2.53-7.47-.11-.4-.23-.8-.35-1.2a30.26,30.26,0,0,0,5.94-8.18c1.71-3.75,1.82-8,1.59-12-.13-2.34-.48-5.34-2.39-6.95-2.18-1.84-5.18-.64-7.28.67a10.86,10.86,0,0,0-4.76,6.6c-2.09,7.32-.31,15,1.72,22.18-1.8,1.82-3.66,3.58-5.36,5.49-2.87,3.22-6.26,7.46-5.8,12.06s4.8,9.41,8.89,11.22c3.91,1.74,8.33,1.2,12.12-.55a32.94,32.94,0,0,1,.82,9.59,19.69,19.69,0,0,1-.92,4.93,11.39,11.39,0,0,1-1.19,2.55c-.17.26-.45.55-.6.83a1.9,1.9,0,0,0-.2.18c-.17,0-.39.07-.71.15a10.82,10.82,0,0,1-6.27-1.51c2.72-1.5,5.2-3.84,4.89-6.91a4.72,4.72,0,0,0-3.37-4c-2.07-.53-4.38.62-6.06,1.72-3.54,2.31-5.26,6.68-2.5,10.37s8.5,4.34,12.51,2.83c8.31-3.12,10.17-11.42,9.31-19.41A36.2,36.2,0,0,0,429,166.73ZM424.94,154a9.59,9.59,0,0,1,3,8.93c-.61-1.89-1.32-3.76-2-5.61-.51-1.26-1-2.53-1.51-3.79Zm-8.23-31.77a25.61,25.61,0,0,1,.68-4.34,15.83,15.83,0,0,1,.77-2.42,6.07,6.07,0,0,1,.35-.66,5.22,5.22,0,0,1,1.65,1,6.44,6.44,0,0,1,1,2,17.19,17.19,0,0,1,.77,5.47c.08,4.94-.63,9.3-3.35,13.35C417.35,131.91,416.35,127,416.71,122.21Zm.22,45.28a16.41,16.41,0,0,1-8.42-9.25c-1.39-4.14,1.23-8.2,3.78-11.28.83-1,1.73-2,2.65-2.93.59,1.9,1.26,3.78,2,5.64a13.29,13.29,0,0,0-5.68,5.24,6.74,6.74,0,0,0,4.77,9.84c1.13.17,2.48-.7,3.36-1.3.18-.13,2.12-1.72,1.27-1.85a6.17,6.17,0,0,1-5-7.7,3.24,3.24,0,0,1,1.93-2.44c2.15,5.53,4.51,11,6.06,16.7a6,6,0,0,1-.64.13A11.65,11.65,0,0,1,416.93,167.49Z"/></svg>