<svg xmlns="http://www.w3.org/2000/svg" xmlns:xlink="http://www.w3.org/1999/xlink" viewBox="0 0 500 500"><defs><style>.cls-1{fill:url(#linear-gradient);}.cls-2{fill:url(#linear-gradient-2);}.cls-3{fill:url(#linear-gradient-3);}.cls-4{stroke:#fff;stroke-miterlimit:10;fill:url(#linear-gradient-4);}</style><linearGradient id="linear-gradient" x1="19.85" y1="190.06" x2="225.27" y2="190.06" gradientUnits="userSpaceOnUse"><stop offset="0" stop-color="#7df5d0"/><stop offset="1" stop-color="#209c8c"/></linearGradient><linearGradient id="linear-gradient-2" x1="132.03" y1="341.85" x2="337.59" y2="341.85" xlink:href="#linear-gradient"/><linearGradient id="linear-gradient-3" x1="278.81" y1="109.57" x2="483.68" y2="109.57" xlink:href="#linear-gradient"/><linearGradient id="linear-gradient-4" x1="19.71" y1="318.7" x2="178.04" y2="318.7" xlink:href="#linear-gradient"/></defs><title>asset</title><g id="Layer_9" data-name="Layer 9"><path class="cls-1" d="M225.27,189.26a23.72,23.72,0,0,1-23.66,23.82c-11.52-2-15.18-6.73-23.51-10.53v52.08a9.84,9.84,0,0,0,.08,1.23A11.24,11.24,0,0,1,167.58,266a5.28,5.28,0,0,0-.63,0H114.64s0,0,0,0h-.44l0-.06c3.73-8.75,9.46-15.38,9.49-23a7,7,0,0,0,0-.9,23.47,23.47,0,0,0-46.92.76c2,11.37,6.64,15,10.41,23.22H31.14l-.71,0h0a11.1,11.1,0,0,1-4.32-1.17l-.11-.05-.13-.06-.24-.14a4.47,4.47,0,0,1-.42-.24L24.6,264a11.29,11.29,0,0,1-4.75-9.2V234.17h0V148.66h0v-23.3a11.29,11.29,0,0,1,11.29-11.28H166.95a11.27,11.27,0,0,1,5.05,1.19,11.13,11.13,0,0,1,1.11.66c.19.13.37.25.54.39a11.13,11.13,0,0,1,4.5,7.82,10,10,0,0,0-.05,1.06v50h0v.08c8.87-3.76,15.59-9.6,23.34-9.62a7.21,7.21,0,0,1,.91,0A23.73,23.73,0,0,1,225.27,189.26Z"/><path class="cls-2" d="M337.59,277.13V406.57a11.27,11.27,0,0,1-11.28,11.28H272.5c1.94-4.67,4.19-7.88,6.22-11.35a38.44,38.44,0,0,0,5.12-13.82h0a23.73,23.73,0,0,0-47.44-.84,7.09,7.09,0,0,0,0,.91c0,8.25,6.59,15.38,10.28,25.12H190.5a11.28,11.28,0,0,1-11.29-11.28V354.41c-8.34,3.81-12,8.56-23.53,10.54a23.73,23.73,0,0,1-.73-47.45,7.12,7.12,0,0,1,.91,0c7.75,0,14.48,5.86,23.35,9.63v-50a11.28,11.28,0,0,1,11.29-11.28h56.31c-2,4.29-4.19,7.34-6.16,10.84a37.91,37.91,0,0,0-4.48,12.72h0a23.73,23.73,0,0,0,47.45.84,6.9,6.9,0,0,0,0-.89c0-4.32-1.8-8.31-4-12.54-1.81-3.42-3.92-7-5.61-11h52.3A11.27,11.27,0,0,1,337.59,277.13Z"/><path class="cls-3" d="M375.67,7.6,479.1,83a11.15,11.15,0,0,1,2.44,15.58l-31.35,43c-2.6-4.28-3.86-7.94-5.45-11.59a38,38,0,0,0-8.06-12.14h0a23.46,23.46,0,0,0-28.31,37.41,7,7,0,0,0,.71.55c6.59,4.81,16.13,3.69,26.07,6.42l-32.72,44.88a11.16,11.16,0,0,1-15.59,2.45l-41.68-30.39c-1.82,8.88-.16,14.58-5.29,24.94A23.47,23.47,0,0,1,301.51,177a7,7,0,0,1,.52-.73c4.54-6.18,13.12-8.16,21.3-13l-39.94-29.12A11.16,11.16,0,0,1,281,118.56l32.81-45c2.28,4.07,3.43,7.63,5.08,11.24a37.49,37.49,0,0,0,7.55,11h0a23.47,23.47,0,0,0,28.32-37.42,6.82,6.82,0,0,0-.7-.54c-3.45-2.52-7.69-3.41-12.37-4.08-3.79-.55-7.87-.94-12-1.92L360.09,10A11.15,11.15,0,0,1,375.67,7.6Z"/><path class="cls-4" d="M178,407.79A11.26,11.26,0,0,1,166.81,418H31a11.12,11.12,0,0,1-5.28-1.31,11.28,11.28,0,0,1-6-10V386.11h0V300.6h0V277.3A11.29,11.29,0,0,1,31,266H87.06c-3.76-8.21-8.44-11.85-10.41-23.22a23.47,23.47,0,0,1,46.92-.76,7,7,0,0,1,0,.9c0,7.67-5.79,14.32-9.51,23.1h.44s0,0,0,0h52.31A11.27,11.27,0,0,1,178,276.07a10,10,0,0,0-.05,1.06v50c-1.11-.48-2.2-1-3.26-1.5-7.31-3.64-13.3-8.1-20.08-8.12a4.37,4.37,0,0,0-.91,0,23.71,23.71,0,0,0-20.83,14,23.47,23.47,0,0,0-2.1,9.65,23.72,23.72,0,0,0,23.66,23.82c11.52-2,15.18-6.73,23.52-10.53v52.15A9.84,9.84,0,0,0,178,407.79Z"/></g></svg>