<svg xmlns="http://www.w3.org/2000/svg" xmlns:xlink="http://www.w3.org/1999/xlink" viewBox="0 0 500 500"><defs><style>.cls-1{fill:url(#linear-gradient);}.cls-2{fill:#fff;}.cls-3{fill:url(#linear-gradient-2);}.cls-4{fill:url(#linear-gradient-3);}.cls-5{fill:url(#linear-gradient-4);}.cls-6{fill:url(#linear-gradient-5);}.cls-7{fill:url(#linear-gradient-6);}.cls-8{fill:url(#linear-gradient-7);}.cls-9{fill:url(#linear-gradient-8);}.cls-10{fill:url(#linear-gradient-9);}.cls-11{fill:url(#linear-gradient-10);}.cls-12{fill:url(#linear-gradient-11);}.cls-13{fill:url(#linear-gradient-12);}.cls-14{fill:url(#linear-gradient-13);}.cls-15{fill:url(#linear-gradient-14);}.cls-16{fill:url(#linear-gradient-15);}.cls-17{fill:url(#linear-gradient-16);}</style><linearGradient id="linear-gradient" x1="244.87" y1="63.18" x2="244.87" y2="297.5" gradientUnits="userSpaceOnUse"><stop offset="0" stop-color="#7df5d0"/><stop offset="1" stop-color="#209c8c"/></linearGradient><linearGradient id="linear-gradient-2" x1="109.97" y1="323.83" x2="109.97" y2="369.68" xlink:href="#linear-gradient"/><linearGradient id="linear-gradient-3" x1="159.14" y1="324.59" x2="159.14" y2="368.92" xlink:href="#linear-gradient"/><linearGradient id="linear-gradient-4" x1="206.67" y1="323.83" x2="206.67" y2="369.68" xlink:href="#linear-gradient"/><linearGradient id="linear-gradient-5" x1="255.85" y1="324.59" x2="255.85" y2="368.92" xlink:href="#linear-gradient"/><linearGradient id="linear-gradient-6" x1="300.27" y1="323.83" x2="300.27" y2="369.68" xlink:href="#linear-gradient"/><linearGradient id="linear-gradient-7" x1="344.76" y1="324.59" x2="344.76" y2="368.92" xlink:href="#linear-gradient"/><linearGradient id="linear-gradient-8" x1="394.56" y1="324.59" x2="394.56" y2="368.92" xlink:href="#linear-gradient"/><linearGradient id="linear-gradient-9" x1="115.04" y1="400.58" x2="115.04" y2="444.91" xlink:href="#linear-gradient"/><linearGradient id="linear-gradient-10" x1="157.02" y1="400.58" x2="157.02" y2="444.91" xlink:href="#linear-gradient"/><linearGradient id="linear-gradient-11" x1="201.99" y1="400.58" x2="201.99" y2="444.91" xlink:href="#linear-gradient"/><linearGradient id="linear-gradient-12" x1="242.58" y1="400.58" x2="242.58" y2="444.91" xlink:href="#linear-gradient"/><linearGradient id="linear-gradient-13" x1="286.34" y1="400.58" x2="286.34" y2="445.67" xlink:href="#linear-gradient"/><linearGradient id="linear-gradient-14" x1="332.79" y1="400.58" x2="332.79" y2="444.91" xlink:href="#linear-gradient"/><linearGradient id="linear-gradient-15" x1="359.92" y1="400.58" x2="359.92" y2="444.91" xlink:href="#linear-gradient"/><linearGradient id="linear-gradient-16" x1="390.51" y1="399.82" x2="390.51" y2="445.67" xlink:href="#linear-gradient"/></defs><title>asset</title><g id="Layer_13" data-name="Layer 13"><rect class="cls-1" x="151.77" y="63.18" width="186.21" height="234.31" rx="40.08" ry="40.08"/><rect class="cls-2" x="173.82" y="106.63" width="81.92" height="13.97" rx="4.75" ry="4.75"/><rect class="cls-2" x="173.82" y="150.08" width="139.66" height="13.97" rx="6.2" ry="6.2"/><rect class="cls-2" x="173.82" y="191.98" width="139.66" height="13.97" rx="6.2" ry="6.2"/><rect class="cls-2" x="173.82" y="238.53" width="139.66" height="13.97" rx="6.2" ry="6.2"/><path class="cls-3" d="M121.24,346.06h9.37v18a30.58,30.58,0,0,1-17.92,5.64c-13.93,0-24.19-9.56-24.19-22.92s10.26-22.92,24.38-22.92c7.79,0,14.25,2.66,18.55,7.66l-6.59,6.08a15,15,0,0,0-11.46-5c-8.61,0-14.5,5.76-14.5,14.18s5.89,14.18,14.37,14.18a16.29,16.29,0,0,0,8-1.9Z"/><path class="cls-4" d="M169.31,359.42H148.73l-3.93,9.5H134.29L154,324.59h10.13L184,368.92H173.23Zm-3.23-7.79-7-17-7,17Z"/><path class="cls-5" d="M217.94,346.06h9.37v18a30.58,30.58,0,0,1-17.92,5.64c-13.93,0-24.19-9.56-24.19-22.92s10.26-22.92,24.38-22.92c7.79,0,14.25,2.66,18.55,7.66l-6.59,6.08a15,15,0,0,0-11.46-5c-8.61,0-14.5,5.76-14.5,14.18s5.89,14.18,14.37,14.18a16.29,16.29,0,0,0,8-1.9Z"/><path class="cls-6" d="M266,359.42H245.43l-3.93,9.5H231l19.76-44.33h10.13l19.82,44.33H269.94Zm-3.23-7.79-7-17-7,17Z"/><path class="cls-7" d="M281.84,364.55l3.48-7.73A26.07,26.07,0,0,0,300,361.44c6.08,0,8.55-2,8.55-4.75,0-8.3-25.77-2.6-25.77-19.06,0-7.54,6.08-13.8,18.68-13.8,5.57,0,11.27,1.33,15.39,3.93l-3.17,7.79a25,25,0,0,0-12.29-3.48c-6.08,0-8.42,2.28-8.42,5.07,0,8.17,25.77,2.53,25.77,18.81,0,7.41-6.14,13.74-18.81,13.74C292.86,369.68,285.77,367.59,281.84,364.55Z"/><path class="cls-8" d="M354.92,359.42H334.34l-3.93,9.5H319.9l19.76-44.33h10.13l19.82,44.33H358.85Zm-3.23-7.79-7-17-7,17Z"/><path class="cls-9" d="M414.89,324.59v44.33h-8.42L384.37,342v26.91H374.24V324.59h8.48l22,26.91V324.59Z"/><path class="cls-10" d="M109.91,408.94H95.72v-8.36h38.63v8.36H120.17v36H109.91Z"/><path class="cls-11" d="M174.18,436.68v8.23H139.86V400.58h33.5v8.23h-23.3v9.62h20.58v8H150.06v10.26Z"/><path class="cls-12" d="M210.6,444.91,202,432.56h-9.44v12.35H182.36V400.58h19.19c11.84,0,19.25,6.14,19.25,16.08a14.41,14.41,0,0,1-9.12,14l9.94,14.25Zm-9.63-36h-8.36v15.45H201c6.27,0,9.44-2.91,9.44-7.73S207.24,408.94,201,408.94Z"/><path class="cls-13" d="M237.45,408.94H223.26v-8.36h38.63v8.36H247.71v36H237.45Z"/><path class="cls-14" d="M266.26,425.41V400.58h10.26V425c0,8.42,3.67,11.9,9.88,11.9s9.88-3.48,9.88-11.9V400.58h10.13v24.82c0,13-7.47,20.26-20.07,20.26S266.26,438.45,266.26,425.41Z"/><path class="cls-15" d="M316.55,400.58H326.8v36H349v8.36H316.55Z"/><path class="cls-16" d="M354.8,400.58h10.26v44.33H354.8Z"/><path class="cls-17" d="M372.08,440.54l3.48-7.73a26.07,26.07,0,0,0,14.63,4.62c6.08,0,8.55-2,8.55-4.75,0-8.3-25.77-2.6-25.77-19.06,0-7.54,6.08-13.8,18.68-13.8,5.57,0,11.27,1.33,15.39,3.93l-3.17,7.79a25,25,0,0,0-12.28-3.48c-6.08,0-8.42,2.28-8.42,5.07,0,8.17,25.77,2.53,25.77,18.81,0,7.41-6.14,13.74-18.81,13.74C383.1,445.67,376,443.58,372.08,440.54Z"/></g></svg>