<svg id="Layer_1" data-name="Layer 1" xmlns="http://www.w3.org/2000/svg" xmlns:xlink="http://www.w3.org/1999/xlink" viewBox="0 0 500 500"><defs><style>.cls-1{fill:url(#linear-gradient);}.cls-2{fill:url(#linear-gradient-2);}.cls-3{fill:url(#linear-gradient-3);}</style><linearGradient id="linear-gradient" x1="56.54" y1="90.65" x2="262.62" y2="268.73" gradientUnits="userSpaceOnUse"><stop offset="0" stop-color="#7df6d2"/><stop offset="1" stop-color="#1f9c8b"/></linearGradient><linearGradient id="linear-gradient-2" x1="90.45" y1="342.01" x2="405" y2="202.1" xlink:href="#linear-gradient"/><linearGradient id="linear-gradient-3" x1="90.37" y1="247.58" x2="229.77" y2="295.07" xlink:href="#linear-gradient"/></defs><path class="cls-1" d="M195.06,261.63h0c-1.14.73-6.2,3.35-14.09-1.22a40.74,40.74,0,0,1-9.73-8.33C156.4,235.43,116,114.6,106,96.46c-9-16.35-2.34-20.92-1-21.63,1.56-.67,9.2-2.85,16.29,14.24,3.93,9.46,22.89,40.4,41.52,71.91,19,32.18,37.67,65,39.6,76.06C205.87,256.92,196.82,261,195.06,261.63Z"/><path class="cls-2" d="M354.32,153.79c-34.82-24.7-80-33.26-122-29.17-12.86,1.25-25.88,2.54-38,7s-23.5,12.42-29.26,24a39,39,0,0,0-2.21,5.42c19,32.18,37.67,65,39.6,76.06,3.43,19.88-5.62,24-7.38,24.59h0c-1.14.73-6.2,3.35-14.09-1.22-5,9-13.74,15.79-23,20.71-10.67,5.7-22.3,9.46-32.93,15.25-15.08,8.2-28.14,20.78-34.94,36.55s-6.76,34.81,2,49.59c10.25,17.37,30.18,26.43,49.47,32.32,70.9,21.67,159.41,11,219.72-34.7,25.1-19,43-47.12,50.2-77.73a128.34,128.34,0,0,0,3.25-28.58C415,228.37,391.82,180.39,354.32,153.79ZM160.73,388.32a25.66,25.66,0,1,1,25.66-25.66A25.66,25.66,0,0,1,160.73,388.32Zm163.1-214.88a25.66,25.66,0,1,1-25.66,25.66A25.66,25.66,0,0,1,323.83,173.44Zm-84.4,227.1a25.66,25.66,0,1,1,25.66-25.66A25.66,25.66,0,0,1,239.43,400.54Zm5.36-201.44a25.66,25.66,0,1,1,25.66-25.66A25.65,25.65,0,0,1,244.79,199.1Zm79,172.51A25.66,25.66,0,1,1,349.49,346,25.66,25.66,0,0,1,323.83,371.61ZM364,296.77a25.66,25.66,0,1,1,25.66-25.66A25.66,25.66,0,0,1,364,296.77Z"/><path class="cls-3" d="M218.93,265.41c3.7,4.93,3.66,11.67,2.84,17.78s-2.24,12.36-.76,18.34a20,20,0,0,0,18.42,14.77c-6.2,4.35-14.5,4.88-21.79,2.87s-13.77-6.27-19.74-10.93c-5-3.89-9.81-8.19-13.16-13.57s-5.1-12-3.57-18.15C184.37,263.69,209.81,253.25,218.93,265.41Z"/></svg>