<svg id="Layer_1" data-name="Layer 1" xmlns="http://www.w3.org/2000/svg" xmlns:xlink="http://www.w3.org/1999/xlink" viewBox="0 0 500 500"><defs><style>.cls-1{fill:url(#linear-gradient);}.cls-2{fill:url(#linear-gradient-2);}.cls-3{fill:url(#linear-gradient-3);}.cls-4{fill:url(#linear-gradient-4);}.cls-5{fill:url(#linear-gradient-5);}.cls-6{fill:url(#linear-gradient-6);}.cls-7{fill:url(#linear-gradient-7);}.cls-8{fill:url(#linear-gradient-8);}.cls-9{fill:url(#linear-gradient-9);}.cls-10{fill:url(#linear-gradient-10);}.cls-11{fill:url(#linear-gradient-11);}.cls-12{fill:url(#linear-gradient-12);}.cls-13{fill:url(#linear-gradient-13);}.cls-14{fill:url(#linear-gradient-14);}.cls-15{fill:url(#linear-gradient-15);}</style><linearGradient id="linear-gradient" x1="-125.96" y1="202.23" x2="411.46" y2="200.74" gradientUnits="userSpaceOnUse"><stop offset="0" stop-color="#7df6d2"/><stop offset="1" stop-color="#1f9c8b"/></linearGradient><linearGradient id="linear-gradient-2" x1="117.41" y1="250.48" x2="416.91" y2="243.77" xlink:href="#linear-gradient"/><linearGradient id="linear-gradient-3" x1="117.45" y1="252.12" x2="416.95" y2="245.41" xlink:href="#linear-gradient"/><linearGradient id="linear-gradient-4" x1="115.31" y1="156.63" x2="414.8" y2="149.91" xlink:href="#linear-gradient"/><linearGradient id="linear-gradient-5" x1="115.34" y1="157.91" x2="414.83" y2="151.19" xlink:href="#linear-gradient"/><linearGradient id="linear-gradient-6" x1="176.02" y1="335.25" x2="176.78" y2="404.95" xlink:href="#linear-gradient"/><linearGradient id="linear-gradient-7" x1="213.77" y1="334.83" x2="214.54" y2="404.53" xlink:href="#linear-gradient"/><linearGradient id="linear-gradient-8" x1="256.77" y1="334.36" x2="257.54" y2="404.06" xlink:href="#linear-gradient"/><linearGradient id="linear-gradient-9" x1="299" y1="333.9" x2="299.77" y2="403.6" xlink:href="#linear-gradient"/><linearGradient id="linear-gradient-10" x1="332.73" y1="333.52" x2="333.5" y2="403.23" xlink:href="#linear-gradient"/><linearGradient id="linear-gradient-11" x1="180.42" y1="395.37" x2="181.95" y2="475.03" xlink:href="#linear-gradient"/><linearGradient id="linear-gradient-12" x1="220.22" y1="394.61" x2="221.75" y2="474.27" xlink:href="#linear-gradient"/><linearGradient id="linear-gradient-13" x1="266.98" y1="393.71" x2="268.51" y2="473.37" xlink:href="#linear-gradient"/><linearGradient id="linear-gradient-14" x1="300.42" y1="393.07" x2="301.95" y2="472.73" xlink:href="#linear-gradient"/><linearGradient id="linear-gradient-15" x1="328.48" y1="392.53" x2="330.02" y2="472.19" xlink:href="#linear-gradient"/></defs><path class="cls-1" d="M316.81,328H193.5a65.28,65.28,0,0,1-65.21-65.21V139.52A65.28,65.28,0,0,1,193.5,74.31H316.81A65.28,65.28,0,0,1,382,139.52V262.83A65.28,65.28,0,0,1,316.81,328ZM193.5,86.73a52.85,52.85,0,0,0-52.79,52.79V262.83a52.85,52.85,0,0,0,52.79,52.79H316.81a52.85,52.85,0,0,0,52.78-52.79V139.52a52.85,52.85,0,0,0-52.78-52.79Z"/><path class="cls-2" d="M165.84,206.81h67.22v83.67H209.51a43.67,43.67,0,0,1-43.67-43.67Z"/><path class="cls-3" d="M344.46,206.81v40a43.67,43.67,0,0,1-43.67,43.67H244V206.81Z"/><path class="cls-4" d="M249.25,111.87l33.43,83.67H165.84v-40a43.67,43.67,0,0,1,43.67-43.67Z"/><path class="cls-5" d="M344.46,155.54v40h-50l-33.43-83.67h39.74A43.67,43.67,0,0,1,344.46,155.54Z"/><path class="cls-6" d="M167.89,391.62a19.75,19.75,0,0,1-6.48-3.05l2.87-6.35a19.59,19.59,0,0,0,5.57,2.76,21,21,0,0,0,6.45,1,10.3,10.3,0,0,0,5.31-1.07,3.22,3.22,0,0,0,1.72-2.84,2.75,2.75,0,0,0-1-2.16,7.85,7.85,0,0,0-2.61-1.38c-1.06-.34-2.49-.73-4.29-1.14a59.13,59.13,0,0,1-6.82-2,11.11,11.11,0,0,1-4.56-3.18,8.54,8.54,0,0,1-1.9-5.83,10.12,10.12,0,0,1,1.72-5.75A11.53,11.53,0,0,1,169,356.6a21.26,21.26,0,0,1,8.46-1.51,27.82,27.82,0,0,1,6.82.84,20,20,0,0,1,5.83,2.39l-2.6,6.4a20.44,20.44,0,0,0-10.1-2.86,9.38,9.38,0,0,0-5.23,1.15,3.5,3.5,0,0,0-1.7,3,2.93,2.93,0,0,0,2,2.78,30.21,30.21,0,0,0,6,1.8,59.73,59.73,0,0,1,6.82,2,11.26,11.26,0,0,1,4.55,3.12,8.36,8.36,0,0,1,1.9,5.78,10,10,0,0,1-1.74,5.7,11.74,11.74,0,0,1-5.23,4.09,21.49,21.49,0,0,1-8.49,1.51A29.88,29.88,0,0,1,167.89,391.62Z"/><path class="cls-7" d="M230.92,355.72v36.44h-8.44V377.22H205.93v14.94h-8.44V355.72h8.44v14.37h16.55V355.72Z"/><path class="cls-8" d="M247,390.34a18.09,18.09,0,0,1-7.13-6.74,19.37,19.37,0,0,1,0-19.32,18.09,18.09,0,0,1,7.13-6.74,22.52,22.52,0,0,1,20.43,0,18.58,18.58,0,0,1,0,32.8,22.52,22.52,0,0,1-20.43,0ZM263,384.12a10.71,10.71,0,0,0,4.09-4.14,13.06,13.06,0,0,0,0-12.08,10.71,10.71,0,0,0-4.09-4.14,12.22,12.22,0,0,0-11.66,0,10.64,10.64,0,0,0-4.09,4.14,13.06,13.06,0,0,0,0,12.08,10.64,10.64,0,0,0,4.09,4.14,12.22,12.22,0,0,0,11.66,0Z"/><path class="cls-9" d="M306.72,392.16l-7-10.15h-7.76v10.15H283.5V355.72h15.78a20.3,20.3,0,0,1,8.4,1.61,12,12,0,0,1,7.42,11.61,11.89,11.89,0,0,1-7.49,11.51l8.17,11.71Zm-2.13-27.93a8.89,8.89,0,0,0-5.78-1.64h-6.88v12.7h6.88a8.78,8.78,0,0,0,5.78-1.66,6.59,6.59,0,0,0,0-9.4Z"/><path class="cls-10" d="M328.8,362.59H317.13v-6.87h31.76v6.87H337.23v29.57H328.8Z"/><path class="cls-11" d="M173.36,452.84a18.08,18.08,0,0,1-7.08-6.71,19.56,19.56,0,0,1,0-19.42,18,18,0,0,1,7.08-6.72,22.57,22.57,0,0,1,18.69-.75,17,17,0,0,1,6.43,4.79l-5.41,5a11.68,11.68,0,0,0-9.17-4.27,12.21,12.21,0,0,0-6,1.49,10.61,10.61,0,0,0-4.13,4.14,13,13,0,0,0,0,12.08,10.52,10.52,0,0,0,4.13,4.13,12.21,12.21,0,0,0,6,1.49,11.6,11.6,0,0,0,9.17-4.32l5.41,5A16.94,16.94,0,0,1,192,453.6a21.47,21.47,0,0,1-8.59,1.66A20.86,20.86,0,0,1,173.36,452.84Z"/><path class="cls-12" d="M210.79,452.82a18.18,18.18,0,0,1-7.13-6.75A18.58,18.58,0,0,1,210.79,420a22.54,22.54,0,0,1,20.44,0,18.6,18.6,0,0,1,0,32.8,22.62,22.62,0,0,1-20.44,0Zm16.07-6.23a10.59,10.59,0,0,0,4.08-4.13,13,13,0,0,0,0-12.08,10.68,10.68,0,0,0-4.08-4.14,12.17,12.17,0,0,0-11.67,0,10.68,10.68,0,0,0-4.08,4.14,13,13,0,0,0,0,12.08,10.59,10.59,0,0,0,4.08,4.13,12.17,12.17,0,0,0,11.67,0Z"/><path class="cls-13" d="M280.48,454.64l-.05-21.87-10.73,18h-3.8l-10.67-17.55v21.4h-7.91V418.19h7l13.64,22.65,13.44-22.65h6.92l.1,36.45Z"/><path class="cls-14" d="M297,418.19h8.43v36.45H297Z"/><path class="cls-15" d="M321.48,452.84a18.08,18.08,0,0,1-7.08-6.71,19.56,19.56,0,0,1,0-19.42,18,18,0,0,1,7.08-6.72,22.57,22.57,0,0,1,18.69-.75A17,17,0,0,1,346.6,424l-5.41,5a11.68,11.68,0,0,0-9.17-4.27,12.18,12.18,0,0,0-6,1.49,10.48,10.48,0,0,0-4.13,4.14,13,13,0,0,0,0,12.08,10.39,10.39,0,0,0,4.13,4.13,12.18,12.18,0,0,0,6,1.49,11.6,11.6,0,0,0,9.17-4.32l5.41,5a16.94,16.94,0,0,1-6.45,4.84,21.47,21.47,0,0,1-8.59,1.66A20.86,20.86,0,0,1,321.48,452.84Z"/></svg>