<svg id="Layer_1" data-name="Layer 1" xmlns="http://www.w3.org/2000/svg" xmlns:xlink="http://www.w3.org/1999/xlink" viewBox="0 0 500 500"><defs><style>.cls-1{fill:url(#linear-gradient);}.cls-2{fill:url(#linear-gradient-2);}.cls-3{fill:url(#linear-gradient-3);}.cls-4{fill:url(#linear-gradient-4);}.cls-5{fill:url(#linear-gradient-5);}.cls-6{fill:url(#linear-gradient-6);}.cls-7{fill:url(#linear-gradient-7);}.cls-8{fill:url(#linear-gradient-8);}.cls-9{fill:url(#linear-gradient-9);}.cls-10{fill:url(#linear-gradient-10);}.cls-11{fill:url(#linear-gradient-11);}.cls-12{fill:url(#linear-gradient-12);}.cls-13{fill:url(#linear-gradient-13);}.cls-14{fill:url(#linear-gradient-14);}.cls-15{fill:url(#linear-gradient-15);}.cls-16{fill:url(#linear-gradient-16);}.cls-17{fill:url(#linear-gradient-17);}</style><linearGradient id="linear-gradient" x1="371.06" y1="328.34" x2="277.1" y2="172.08" gradientUnits="userSpaceOnUse"><stop offset="0" stop-color="#7df6d2"/><stop offset="1" stop-color="#1f9c8b"/></linearGradient><linearGradient id="linear-gradient-2" x1="150.59" y1="359.72" x2="357.57" y2="257.72" xlink:href="#linear-gradient"/><linearGradient id="linear-gradient-3" x1="369.44" y1="329.31" x2="275.48" y2="173.06" xlink:href="#linear-gradient"/><linearGradient id="linear-gradient-4" x1="167.54" y1="82.61" x2="307.18" y2="114.36" xlink:href="#linear-gradient"/><linearGradient id="linear-gradient-5" x1="179.67" y1="108.55" x2="312.97" y2="138.87" xlink:href="#linear-gradient"/><linearGradient id="linear-gradient-6" x1="142.41" y1="293.16" x2="402.48" y2="-15.23" xlink:href="#linear-gradient"/><linearGradient id="linear-gradient-7" x1="146.41" y1="296.53" x2="406.48" y2="-11.85" xlink:href="#linear-gradient"/><linearGradient id="linear-gradient-8" x1="194.42" y1="344.44" x2="187.27" y2="397.03" xlink:href="#linear-gradient"/><linearGradient id="linear-gradient-9" x1="231.94" y1="349.54" x2="224.79" y2="402.13" xlink:href="#linear-gradient"/><linearGradient id="linear-gradient-10" x1="270.87" y1="354.83" x2="263.72" y2="407.42" xlink:href="#linear-gradient"/><linearGradient id="linear-gradient-11" x1="305.35" y1="359.51" x2="298.2" y2="412.11" xlink:href="#linear-gradient"/><linearGradient id="linear-gradient-12" x1="163.95" y1="408.5" x2="162.42" y2="468.24" xlink:href="#linear-gradient"/><linearGradient id="linear-gradient-13" x1="188.8" y1="409.13" x2="187.27" y2="468.88" xlink:href="#linear-gradient"/><linearGradient id="linear-gradient-14" x1="218.35" y1="409.89" x2="216.82" y2="469.63" xlink:href="#linear-gradient"/><linearGradient id="linear-gradient-15" x1="258.88" y1="410.93" x2="257.35" y2="470.67" xlink:href="#linear-gradient"/><linearGradient id="linear-gradient-16" x1="297.9" y1="411.93" x2="296.37" y2="471.67" xlink:href="#linear-gradient"/><linearGradient id="linear-gradient-17" x1="334.84" y1="412.88" x2="333.31" y2="472.62" xlink:href="#linear-gradient"/></defs><path class="cls-1" d="M271.08,165.21a71.22,71.22,0,0,1-26.47,6.73l-6.69-11,50.25-24.47h0l4.53,12A71.48,71.48,0,0,1,271.08,165.21Z"/><path class="cls-2" d="M144.62,343.42a3.9,3.9,0,0,1-2.39-7c17.26-13.31,35.1-27.08,55.59-36.24,23.17-10.35,46.81-12.79,66.58-6.87a142.86,142.86,0,0,1,15.47,6c3.76,1.63,7.65,3.31,11.51,4.65,10.12,3.54,18.71,4,25.54,1.42s10.9-11.05,9-18.81a3.89,3.89,0,0,1,7.57-1.83c2.8,11.64-3.28,23.9-13.83,27.91-8.59,3.27-19,2.82-30.88-1.33-4.12-1.44-8.14-3.18-12-4.86a133.53,133.53,0,0,0-14.62-5.66c-18-5.39-39.7-3.07-61.16,6.52-19.65,8.78-37.12,22.26-54,35.3A3.91,3.91,0,0,1,144.62,343.42Z"/><path class="cls-3" d="M295.79,156.69a74.78,74.78,0,0,1-46.64,22.71L314.3,286.51s5.75,3.83,15.44-.89S340,274,340,274Zm.2,59.64a6.67,6.67,0,0,1-8.92-3.07l-7.85-16.13a6.67,6.67,0,0,1,3.07-8.92,6.6,6.6,0,0,1,2.91-.68,6.68,6.68,0,0,1,6,3.76l7.86,16.13A6.67,6.67,0,0,1,296,216.33Z"/><path class="cls-4" d="M248.62,119.1A128.51,128.51,0,0,1,198,131.44a50.94,50.94,0,0,1,91.56-44.59A128.41,128.41,0,0,1,248.62,119.1Z"/><path class="cls-5" d="M266.71,156.22a51,51,0,0,1-64.45-17.16,134.81,134.81,0,0,0,49.77-13,135.11,135.11,0,0,0,40.89-31.18A50.94,50.94,0,0,1,266.71,156.22Z"/><path class="cls-6" d="M226.85,226.65Q224.32,217,221,207.54c-1.26-3.56-2.6-7.1-4-10.59-1-2.35-1.68-6-4.87-5.75-3,.27-6.28,2.36-9,3.51q-5.11,2.19-10.17,4.47-10.43,4.73-20.62,9.89c-1.11.56-5.2,3.67-4.34,5.23q4.54,8.2,8.93,16.5c1.87,3.53,4,7.11,5.79,10.79-5.82,2.2-11.82,7.78-11.44,13.87a8.17,8.17,0,0,0,4.95,7.15c3.47,1.3,6.92-.67,9.5-2.91,2.86-2.47,5.37-5.71,6.09-9.49.83-4.38-1-8.76-2.84-12.63-4.33-8.93-9.14-17.67-13.95-26.36q6.57-3.22,13.23-6.27,4.53-2.05,9.09-4c2.89-1.24,6.27-3.31,9.37-3.9s3.9,3.75,4.81,6q1.91,4.69,3.61,9.48c2,5.59,3.75,11.26,5.3,17a4.69,4.69,0,0,0-.43.82,22.63,22.63,0,0,0-6.27,6.13c-2.63,3.7-5.35,11.33,1.14,12.65,5.33,1.08,10.79-4,13.41-8.08A11.45,11.45,0,0,0,226.85,226.65Zm-41.32,29.66c-1.27,2-4.29.83-5.8-.5a7.63,7.63,0,0,1-2.6-5.62,6.11,6.11,0,0,1,.19-1.65c.05-.17.35-.77.47-1.11.32-.14.85-.46,1-.52a10.12,10.12,0,0,1,2.44-.53,5.46,5.46,0,0,0,2.86-1.63c.42,1,.8,2,1.13,3.08C186,250.1,187,254.09,185.53,256.31Zm38.82-17.58c.14,1.6-.46,2.77-.7,4.26l-.13.07c-.56-.1-1.7.45-2.35.44-3.12-.05-4.87-2.26-4.4-5.28a10.24,10.24,0,0,1,1-3.38c.91-1,3-.73,4.15-.56a1.68,1.68,0,0,0,.79-.15A10.22,10.22,0,0,1,224.35,238.73Z"/><path class="cls-7" d="M344.86,46.92c-3.77-.41-7.33,1.36-11.11.51-3.26-.73-6.15-2.65-8.89-4.47-1.21-.81-5,5.06-4.07,6.3a162.26,162.26,0,0,1,20.84,35.29A12,12,0,0,0,336,86.89c-3.1,2.39-6.11,6.63-6.46,10.64-.4,4.64,4,6.37,7.89,6.9,4.57.63,8.15-.41,10.87-4.27a11.55,11.55,0,0,0,1.62-11.33,143.91,143.91,0,0,0-6.8-16.41A162.64,162.64,0,0,0,332.7,54c2.22-.08,4.36-.64,6.7-.74,8.2-.38,13,7.31,15.44,14,.34,1,5-4,4.38-5.78C356.82,54.81,352.62,47.77,344.86,46.92Zm1.07,48.82a14,14,0,0,1,.46,1.94c0,.07,0,.14,0,.21-1,0-4.46.3-4.88.24A14.56,14.56,0,0,1,337,96.94a5.07,5.07,0,0,1-3-3.37,3.6,3.6,0,0,1,0-1.13l.12-.1a5.67,5.67,0,0,1,1.5-.79c2.77-1.13,5.68-1,8.58-.69l0,.1C344.83,92.54,345.45,94.12,345.93,95.74Z"/><path class="cls-8" d="M181.13,393.47a19.55,19.55,0,0,1-6.48-3.05l2.86-6.35a19.2,19.2,0,0,0,5.57,2.76,21,21,0,0,0,6.46,1,10.25,10.25,0,0,0,5.31-1.07,3.21,3.21,0,0,0,1.71-2.83,2.69,2.69,0,0,0-1-2.16,7.54,7.54,0,0,0-2.6-1.38c-1.06-.35-2.5-.73-4.3-1.15a59.13,59.13,0,0,1-6.82-2,11.18,11.18,0,0,1-4.56-3.17,8.64,8.64,0,0,1-1.9-5.84,10.2,10.2,0,0,1,1.72-5.75,11.59,11.59,0,0,1,5.18-4.09,21.27,21.27,0,0,1,8.46-1.5,27.75,27.75,0,0,1,6.82.83,20,20,0,0,1,5.83,2.39l-2.6,6.41a20.32,20.32,0,0,0-10.1-2.87,9.49,9.49,0,0,0-5.23,1.15,3.49,3.49,0,0,0-1.69,3,2.94,2.94,0,0,0,2,2.78,30.43,30.43,0,0,0,6,1.8,59.13,59.13,0,0,1,6.82,2,11.36,11.36,0,0,1,4.56,3.12,8.42,8.42,0,0,1,1.9,5.78,10,10,0,0,1-1.75,5.7,11.74,11.74,0,0,1-5.23,4.09,21.28,21.28,0,0,1-8.49,1.51A29.81,29.81,0,0,1,181.13,393.47Z"/><path class="cls-9" d="M218.14,392.19a18.16,18.16,0,0,1-9.71-16.4,18.43,18.43,0,0,1,2.58-9.66,18.22,18.22,0,0,1,7.13-6.74,22.62,22.62,0,0,1,20.44,0,18.59,18.59,0,0,1,0,32.8,22.54,22.54,0,0,1-20.44,0ZM234.2,386a10.64,10.64,0,0,0,4.09-4.14,13,13,0,0,0,0-12.08,10.64,10.64,0,0,0-4.09-4.14,12.22,12.22,0,0,0-11.66,0,10.68,10.68,0,0,0-4.08,4.14,13,13,0,0,0,0,12.08,10.68,10.68,0,0,0,4.08,4.14,12.22,12.22,0,0,0,11.66,0Z"/><path class="cls-10" d="M254.67,357.57h8.43v29.57h18.27V394h-26.7Z"/><path class="cls-11" d="M292.91,392.19a18.18,18.18,0,0,1-7.14-6.74,19.44,19.44,0,0,1,0-19.32,18.18,18.18,0,0,1,7.14-6.74,22.6,22.6,0,0,1,20.43,0,18.59,18.59,0,0,1,0,32.8,22.52,22.52,0,0,1-20.43,0ZM309,386a10.61,10.61,0,0,0,4.08-4.14,13,13,0,0,0,0-12.08,10.61,10.61,0,0,0-4.08-4.14,12.22,12.22,0,0,0-11.66,0,10.64,10.64,0,0,0-4.09,4.14,13.06,13.06,0,0,0,0,12.08,10.64,10.64,0,0,0,4.09,4.14A12.22,12.22,0,0,0,309,386Z"/><path class="cls-12" d="M154.24,455.94a19.7,19.7,0,0,1-6.49-3l2.87-6.35a19.72,19.72,0,0,0,5.57,2.76,21,21,0,0,0,6.45,1,10.3,10.3,0,0,0,5.31-1.07,3.22,3.22,0,0,0,1.72-2.84,2.73,2.73,0,0,0-1-2.16,7.85,7.85,0,0,0-2.61-1.38c-1.05-.34-2.49-.73-4.29-1.14a59.13,59.13,0,0,1-6.82-2,11.11,11.11,0,0,1-4.56-3.18,8.59,8.59,0,0,1-1.9-5.83A10.2,10.2,0,0,1,150.2,425a11.59,11.59,0,0,1,5.18-4.09,21.26,21.26,0,0,1,8.46-1.51,28.24,28.24,0,0,1,6.82.83,20.26,20.26,0,0,1,5.83,2.4l-2.6,6.4a20.41,20.41,0,0,0-10.1-2.86,9.41,9.41,0,0,0-5.23,1.15,3.49,3.49,0,0,0-1.69,3,3,3,0,0,0,1.95,2.78,30.43,30.43,0,0,0,6,1.8,61.45,61.45,0,0,1,6.82,2,11.48,11.48,0,0,1,4.56,3.13,8.41,8.41,0,0,1,1.9,5.78,10,10,0,0,1-1.75,5.7,11.74,11.74,0,0,1-5.23,4.09,21.49,21.49,0,0,1-8.49,1.51A29.46,29.46,0,0,1,154.24,455.94Z"/><path class="cls-13" d="M183.83,420.05h8.44v36.44h-8.44Z"/><path class="cls-14" d="M234.33,420.05v36.44h-6.92l-18.17-22.13v22.13h-8.33V420.05h7L226,442.17V420.05Z"/><path class="cls-15" d="M267.6,437.7h7.71v14.78a22.15,22.15,0,0,1-6.87,3.44,26.69,26.69,0,0,1-7.86,1.2,21.35,21.35,0,0,1-10.21-2.42,18.12,18.12,0,0,1-7.11-6.72,19.63,19.63,0,0,1,0-19.42,18.05,18.05,0,0,1,7.16-6.72,21.78,21.78,0,0,1,10.31-2.42,22.55,22.55,0,0,1,8.7,1.62,17.15,17.15,0,0,1,6.56,4.68l-5.42,5a12.51,12.51,0,0,0-9.42-4.11,12.9,12.9,0,0,0-6.2,1.45,10.5,10.5,0,0,0-4.21,4.12,12.94,12.94,0,0,0,0,12.13,10.63,10.63,0,0,0,4.19,4.14,12.36,12.36,0,0,0,6.11,1.48,13.67,13.67,0,0,0,6.56-1.56Z"/><path class="cls-16" d="M311.34,449.72v6.77H283.12V420.05h27.54v6.76H291.5v7.92h16.92v6.56H291.5v8.43Z"/><path class="cls-17" d="M341.27,456.49l-7-10.15h-7.75v10.15h-8.44V420.05h15.78a20.19,20.19,0,0,1,8.41,1.61,12.07,12.07,0,0,1,7.42,11.61,11.91,11.91,0,0,1-7.5,11.51l8.17,11.71Zm-2.13-27.93a8.89,8.89,0,0,0-5.78-1.64h-6.87v12.7h6.87a8.78,8.78,0,0,0,5.78-1.66,6.57,6.57,0,0,0,0-9.4Z"/></svg>