<svg id="Layer_1" data-name="Layer 1" xmlns="http://www.w3.org/2000/svg" xmlns:xlink="http://www.w3.org/1999/xlink" viewBox="0 0 500 500"><defs><style>.cls-1{fill:url(#linear-gradient);}.cls-2{fill:url(#linear-gradient-2);}.cls-3{fill:url(#linear-gradient-3);}.cls-4{fill:url(#linear-gradient-4);}.cls-5{fill:url(#linear-gradient-5);}.cls-6{fill:url(#linear-gradient-6);}.cls-7{fill:url(#linear-gradient-7);}.cls-8{fill:url(#linear-gradient-8);}.cls-9{fill:url(#linear-gradient-9);}.cls-10{fill:url(#linear-gradient-10);}.cls-11{fill:url(#linear-gradient-11);}.cls-12{fill:url(#linear-gradient-12);}.cls-13{fill:url(#linear-gradient-13);}.cls-14{fill:url(#linear-gradient-14);}.cls-15{fill:url(#linear-gradient-15);}</style><linearGradient id="linear-gradient" x1="135.27" y1="167.06" x2="373.23" y2="163.99" gradientUnits="userSpaceOnUse"><stop offset="0" stop-color="#7df6d2"/><stop offset="1" stop-color="#1f9c8b"/></linearGradient><linearGradient id="linear-gradient-2" x1="250.78" y1="342.78" x2="250.1" y2="249.5" xlink:href="#linear-gradient"/><linearGradient id="linear-gradient-3" x1="123.19" y1="331.2" x2="128.81" y2="392.47" xlink:href="#linear-gradient"/><linearGradient id="linear-gradient-4" x1="157.17" y1="328.08" x2="162.79" y2="389.36" xlink:href="#linear-gradient"/><linearGradient id="linear-gradient-5" x1="188.12" y1="325.25" x2="193.74" y2="386.52" xlink:href="#linear-gradient"/><linearGradient id="linear-gradient-6" x1="230.38" y1="321.37" x2="236" y2="382.65" xlink:href="#linear-gradient"/><linearGradient id="linear-gradient-7" x1="272.92" y1="317.47" x2="278.54" y2="378.75" xlink:href="#linear-gradient"/><linearGradient id="linear-gradient-8" x1="329.51" y1="312.28" x2="335.13" y2="373.56" xlink:href="#linear-gradient"/><linearGradient id="linear-gradient-9" x1="368.57" y1="308.7" x2="374.19" y2="369.98" xlink:href="#linear-gradient"/><linearGradient id="linear-gradient-10" x1="147.94" y1="387.98" x2="149.47" y2="452.32" xlink:href="#linear-gradient"/><linearGradient id="linear-gradient-11" x1="187.7" y1="387.03" x2="189.24" y2="451.37" xlink:href="#linear-gradient"/><linearGradient id="linear-gradient-12" x1="234.46" y1="385.92" x2="235.99" y2="450.26" xlink:href="#linear-gradient"/><linearGradient id="linear-gradient-13" x1="277.44" y1="384.9" x2="278.97" y2="449.24" xlink:href="#linear-gradient"/><linearGradient id="linear-gradient-14" x1="316.69" y1="383.96" x2="318.22" y2="448.3" xlink:href="#linear-gradient"/><linearGradient id="linear-gradient-15" x1="353.73" y1="383.08" x2="355.27" y2="447.42" xlink:href="#linear-gradient"/></defs><path class="cls-1" d="M261.62,133.25a5,5,0,0,0,5,5h46.75v10.36H266.62a5,5,0,0,0,0,10h46.75V169H266.62a5,5,0,0,0,0,10h46.75v10.36H266.62a5,5,0,0,0,0,10h46.75v4.74c0,1.91-.09,3.8-.25,5.67a3.49,3.49,0,0,0-.65-.05H266.62a5,5,0,0,0,0,10H311.4A62.65,62.65,0,0,1,226.88,262c-1.34-.55-2.66-1.15-3.95-1.8a62.75,62.75,0,0,1-32.83-40.47h44.8a5,5,0,1,0,0-10H189a3.39,3.39,0,0,0-.64.05c-.17-1.87-.26-3.76-.26-5.67v-4.74H234.9a5,5,0,0,0,0-10H188.14V179H234.9a5,5,0,0,0,0-10H188.14V158.61H234.9a5,5,0,0,0,0-10H188.14V138.25H234.9a5,5,0,0,0,0-10H188.14v-1.17a62.62,62.62,0,0,1,125.23,0v1.17H266.62A5,5,0,0,0,261.62,133.25Z"/><path class="cls-2" d="M250.36,308.8c-25,.09-54.42-11.57-27.43-48.64,1.29.65,2.61,1.25,3.95,1.8a62.47,62.47,0,0,0,51.13-1.5C304.62,297.29,275.25,308.89,250.36,308.8Z"/><path class="cls-3" d="M117.37,371.89a19.55,19.55,0,0,1-6.48-3.05l2.86-6.35a19.72,19.72,0,0,0,5.57,2.76,21,21,0,0,0,6.46,1,10.35,10.35,0,0,0,5.31-1.07,3.22,3.22,0,0,0,1.72-2.83,2.73,2.73,0,0,0-1-2.17,7.8,7.8,0,0,0-2.6-1.38c-1.06-.34-2.49-.72-4.3-1.14a59.13,59.13,0,0,1-6.82-2,11,11,0,0,1-4.55-3.18,8.54,8.54,0,0,1-1.9-5.83,10.19,10.19,0,0,1,1.71-5.75,11.64,11.64,0,0,1,5.18-4.09,21.26,21.26,0,0,1,8.46-1.51,27.76,27.76,0,0,1,6.82.84,20,20,0,0,1,5.84,2.39L137,345a20.29,20.29,0,0,0-10.1-2.87,9.41,9.41,0,0,0-5.23,1.15,3.49,3.49,0,0,0-1.69,3,2.94,2.94,0,0,0,2,2.78,30.43,30.43,0,0,0,6,1.8,59.13,59.13,0,0,1,6.82,2,11.36,11.36,0,0,1,4.56,3.12,8.42,8.42,0,0,1,1.9,5.78,9.91,9.91,0,0,1-1.75,5.7,11.69,11.69,0,0,1-5.23,4.09,21.42,21.42,0,0,1-8.49,1.51A29.81,29.81,0,0,1,117.37,371.89Z"/><path class="cls-4" d="M154,342.86H142.33V336h31.76v6.87H162.43v29.57H154Z"/><path class="cls-5" d="M200.8,364.62H183.88l-3.23,7.81H172L188.25,336h8.33l16.3,36.44H204Zm-2.66-6.4-5.77-14-5.78,14Z"/><path class="cls-6" d="M250.1,336v36.44h-6.92L225,350.31v22.12h-8.33V336h7l18.11,22.13V336Z"/><path class="cls-7" d="M258.75,336H275.3a23.23,23.23,0,0,1,10.49,2.26,17,17,0,0,1,7.09,6.38,19.47,19.47,0,0,1,0,19.16,17,17,0,0,1-7.09,6.38,23.23,23.23,0,0,1-10.49,2.26H258.75Zm16.14,29.52a12.26,12.26,0,0,0,8.72-3.05,12.1,12.1,0,0,0,0-16.5,12.26,12.26,0,0,0-8.72-3h-7.71v22.6Z"/><path class="cls-8" d="M320.52,368.74q-4.35-4.32-4.35-12.34V336h8.44v20.1q0,9.78,8.12,9.78a7.61,7.61,0,0,0,6-2.37c1.39-1.57,2.08-4.05,2.08-7.41V336h8.33V356.4q0,8-4.35,12.34t-12.15,4.32Q324.87,373.06,320.52,368.74Z"/><path class="cls-9" d="M381.69,337.6a13.08,13.08,0,0,1,5.5,18.62,12.35,12.35,0,0,1-5.5,4.58,20.47,20.47,0,0,1-8.4,1.59H366v10h-8.44V336h15.78A20.3,20.3,0,0,1,381.69,337.6Zm-3.09,16.27a5.7,5.7,0,0,0,2-4.66,5.77,5.77,0,0,0-2-4.71,8.89,8.89,0,0,0-5.78-1.64H366v12.65h6.87A8.83,8.83,0,0,0,378.6,353.87Z"/><path class="cls-10" d="M140.75,433.11a17.94,17.94,0,0,1-7.08-6.71,19.56,19.56,0,0,1,0-19.42,18,18,0,0,1,7.08-6.72,21.05,21.05,0,0,1,10.12-2.42,21.27,21.27,0,0,1,8.57,1.67,17.11,17.11,0,0,1,6.43,4.79l-5.42,5a11.65,11.65,0,0,0-9.16-4.26,12.15,12.15,0,0,0-6,1.48,10.57,10.57,0,0,0-4.14,4.14,13.06,13.06,0,0,0,0,12.08,10.57,10.57,0,0,0,4.14,4.14,12.15,12.15,0,0,0,6,1.48,11.58,11.58,0,0,0,9.16-4.32l5.42,5a17,17,0,0,1-6.46,4.84,21.44,21.44,0,0,1-8.59,1.66A20.85,20.85,0,0,1,140.75,433.11Z"/><path class="cls-11" d="M178.18,433.09a18.09,18.09,0,0,1-7.13-6.74,19.37,19.37,0,0,1,0-19.32,18.09,18.09,0,0,1,7.13-6.74,22.52,22.52,0,0,1,20.43,0,18.58,18.58,0,0,1,0,32.8,22.6,22.6,0,0,1-20.43,0Zm16.06-6.22a10.64,10.64,0,0,0,4.09-4.14,13.06,13.06,0,0,0,0-12.08,10.64,10.64,0,0,0-4.09-4.14,12.22,12.22,0,0,0-11.66,0,10.64,10.64,0,0,0-4.09,4.14,13.06,13.06,0,0,0,0,12.08,10.64,10.64,0,0,0,4.09,4.14,12.22,12.22,0,0,0,11.66,0Z"/><path class="cls-12" d="M247.87,434.91,247.81,413l-10.72,18h-3.8l-10.67-17.55v21.4H214.7V398.47h7l13.64,22.64,13.43-22.64h6.93l.1,36.44Z"/><path class="cls-13" d="M292.64,428.14v6.77H264.42V398.47H292v6.76H272.8v7.92h16.92v6.56H272.8v8.43Z"/><path class="cls-14" d="M299.36,398.47h16.55a23.23,23.23,0,0,1,10.49,2.26,16.94,16.94,0,0,1,7.08,6.38,19.4,19.4,0,0,1,0,19.16,16.94,16.94,0,0,1-7.08,6.38,23.23,23.23,0,0,1-10.49,2.26H299.36ZM315.5,428a12.26,12.26,0,0,0,8.72-3.05,12.1,12.1,0,0,0,0-16.5,12.26,12.26,0,0,0-8.72-3.05h-7.71V428Z"/><path class="cls-15" d="M358.29,422v12.91h-8.43v-13l-14.11-23.42h8.95l9.74,16.19,9.73-16.19h8.28Z"/></svg>