<svg xmlns="http://www.w3.org/2000/svg" xmlns:xlink="http://www.w3.org/1999/xlink" viewBox="0 0 500 500"><defs><style>.cls-1{fill:#fff;}.cls-2{fill:url(#linear-gradient);}.cls-3{fill:url(#linear-gradient-2);}.cls-4{fill:url(#linear-gradient-4);}.cls-5{fill:url(#linear-gradient-5);}.cls-6{fill:url(#linear-gradient-6);}.cls-7{fill:url(#linear-gradient-7);}.cls-8{fill:url(#linear-gradient-8);}.cls-9{fill:url(#linear-gradient-9);}.cls-10{fill:url(#linear-gradient-10);}.cls-11{fill:url(#linear-gradient-11);}.cls-12{fill:url(#linear-gradient-12);}.cls-13{fill:url(#linear-gradient-13);}.cls-14{fill:url(#linear-gradient-14);}.cls-15{fill:url(#linear-gradient-15);}.cls-16{fill:url(#linear-gradient-16);}.cls-17{fill:url(#linear-gradient-17);}</style><linearGradient id="linear-gradient" x1="47.61" y1="285.23" x2="163.29" y2="285.23" gradientUnits="userSpaceOnUse"><stop offset="0" stop-color="#7df5d0"/><stop offset="1" stop-color="#209c8c"/></linearGradient><linearGradient id="linear-gradient-2" x1="284.14" y1="233.44" x2="291.89" y2="233.44" xlink:href="#linear-gradient"/><linearGradient id="linear-gradient-4" x1="100.24" y1="190.07" x2="280.85" y2="190.07" xlink:href="#linear-gradient"/><linearGradient id="linear-gradient-5" x1="271.72" y1="364.02" x2="386.01" y2="257.15" xlink:href="#linear-gradient"/><linearGradient id="linear-gradient-6" x1="281.64" y1="265.94" x2="396.3" y2="121.97" xlink:href="#linear-gradient"/><linearGradient id="linear-gradient-7" x1="267.47" y1="254.66" x2="382.13" y2="110.68" xlink:href="#linear-gradient"/><linearGradient id="linear-gradient-8" x1="224.81" y1="325.89" x2="272.91" y2="325.89" xlink:href="#linear-gradient"/><linearGradient id="linear-gradient-9" x1="70.13" y1="382.93" x2="70.13" y2="424.7" xlink:href="#linear-gradient"/><linearGradient id="linear-gradient-10" x1="109.69" y1="382.93" x2="109.69" y2="424.7" xlink:href="#linear-gradient"/><linearGradient id="linear-gradient-11" x1="152.72" y1="382.93" x2="152.72" y2="424.7" xlink:href="#linear-gradient"/><linearGradient id="linear-gradient-12" x1="186.61" y1="382.93" x2="186.61" y2="424.7" xlink:href="#linear-gradient"/><linearGradient id="linear-gradient-13" x1="215.43" y1="382.21" x2="215.43" y2="425.41" xlink:href="#linear-gradient"/><linearGradient id="linear-gradient-14" x1="279.84" y1="382.93" x2="279.84" y2="424.7" xlink:href="#linear-gradient"/><linearGradient id="linear-gradient-15" x1="329.45" y1="382.93" x2="329.45" y2="424.7" xlink:href="#linear-gradient"/><linearGradient id="linear-gradient-16" x1="361.73" y1="382.93" x2="361.73" y2="425.41" xlink:href="#linear-gradient"/><linearGradient id="linear-gradient-17" x1="402.64" y1="382.93" x2="402.64" y2="424.7" xlink:href="#linear-gradient"/></defs><title>asset</title><g id="Layer_7" data-name="Layer 7"><path class="cls-1" d="M217.9,284.15a72.22,72.22,0,0,0,7.51-1.7c2.84-.82,5.68-1.77,8.46-2.78q3.41-1.33,6.63-2.84c.19-.06.25-.13.44-.19a106.25,106.25,0,0,0,10.79-6,30.33,30.33,0,0,0,3.47-2.33c.76-.51,1.58-1.07,2.27-1.64l2.84-2.08a104.39,104.39,0,0,0,7.89-7.13,96.92,96.92,0,0,0,21-31.18,94.5,94.5,0,0,0,7.51-36.8,94.35,94.35,0,0,0-58.57-88.23,95.13,95.13,0,0,0-36.73-7.07c-3,0-6.12.19-9.28.44-1.58.19-3.22.44-4.8.63a101,101,0,0,0-22.72,6.44,96.75,96.75,0,0,0-31.05,21l-.06.06a103.1,103.1,0,0,0-11.36,13.51c-.63,1-1.33,2-1.89,2.9a101.07,101.07,0,0,0-6,10.79c-.06.06-.06.19-.13.25-1.14,2.4-2.08,4.86-3,7.32s-1.83,5.36-2.59,8a72.22,72.22,0,0,0-1.7,7.51c-.38,1.77-.69,3.6-.95,5.36-.13.88-.19,1.7-.25,2.52L210,285.35A66.09,66.09,0,0,0,217.9,284.15Z"/><path class="cls-1" d="M413.28,224.86a72.22,72.22,0,0,0,4.11-6.52c1.43-2.59,2.77-5.27,4-7.94q1.47-3.35,2.68-6.69c.09-.18.09-.27.18-.45a106.25,106.25,0,0,0,3.39-11.87,30.33,30.33,0,0,0,.8-4.11c.18-.89.36-1.87.45-2.77l.54-3.48a104.39,104.39,0,0,0,.54-10.62,96.92,96.92,0,0,0-7.23-36.86A94.5,94.5,0,0,0,402,102.22a94.35,94.35,0,0,0-103.81-21,95.13,95.13,0,0,0-31,21c-2.14,2.14-4.2,4.46-6.25,6.87-1,1.25-2,2.59-2.95,3.84a101,101,0,0,0-11.51,20.62,96.75,96.75,0,0,0-7.14,36.77v.09A103.1,103.1,0,0,0,240.93,188c.27,1.16.45,2.32.71,3.39A101.07,101.07,0,0,0,245,203.26c0,.09.09.18.09.27.89,2.5,2,4.91,3,7.32s2.5,5.09,3.84,7.5a72.22,72.22,0,0,0,4.11,6.52c1,1.52,2.05,3,3.12,4.46.54.71,1.07,1.34,1.61,2H408.55A66.09,66.09,0,0,0,413.28,224.86Z"/><path class="cls-2" d="M163.29,278.59a1.2,1.2,0,0,1-.18.8,2.57,2.57,0,0,1-2,1.42c-1.25.09-2.4.27-3.56.45-10.06,1.69-18.7,6.68-26.72,13.36-9.17,7.75-17.54,17.72-25.92,27.79-2.67,3.21-5.34,6.41-7.84,9.35s-5.17,5.88-7.93,8.82l-.09.18h-.09a6,6,0,0,1-2.23,1.69,6.51,6.51,0,0,1-2.94.71,46.79,46.79,0,0,1-8.19-.71,40.15,40.15,0,0,1-7.39-2.23A35.36,35.36,0,0,1,57.76,333a36.55,36.55,0,0,1-7.21-10.42,34.32,34.32,0,0,1-2.23-7.39,46.8,46.8,0,0,1-.71-8.19,7.86,7.86,0,0,1,.62-2.94,7.27,7.27,0,0,1,1.87-2.4h.09v-.09c5.7-5.34,11.76-10.42,17.72-15.41l.09-.09c10.06-8.46,20.13-16.83,27.79-26.09,6.86-8.1,11.84-16.92,13.54-27.07a22.91,22.91,0,0,0,.53-3.56,2.3,2.3,0,0,1,2.23-2,92.81,92.81,0,0,0,20.48,30.81,91.41,91.41,0,0,0,28.68,19.59A20.29,20.29,0,0,0,163.29,278.59Z"/><path class="cls-3" d="M286.64,231c-.8,1.6-1.6,3.21-2.49,4.81h5.43a47.8,47.8,0,0,0,2.32-4.81Z"/><path class="cls-3" d="M286.64,231c-.8,1.6-1.6,3.21-2.49,4.81h5.43a47.8,47.8,0,0,0,2.32-4.81Z"/><path class="cls-4" d="M280.85,249.65a12.74,12.74,0,0,1-1,1.34c-.62.8-1.25,1.69-2,2.49-2,2.49-4.27,4.9-6.59,7.21l-.09.09-.09.09c-2.4,2.32-4.81,4.63-7.39,6.68-1.25,1.07-2.58,2-3.92,3s-2.49,1.87-3.74,2.67a90.14,90.14,0,0,1-13.36,7.57,104,104,0,0,1-18.26,6.59,46.51,46.51,0,0,1-4.81,1.07c-1.34.27-2.76.53-4.1.71a52.89,52.89,0,0,1-6.41.89h-.36c-2.94.27-5.79.45-8.73.45a99.8,99.8,0,0,1-38.38-7.39,35.22,35.22,0,0,1-4.19-1.87,58.7,58.7,0,0,1-6.68-3.38,96.75,96.75,0,0,1-21.55-16.3.09.09,0,0,1-.09-.09,99,99,0,0,1-16.48-21.82,68.45,68.45,0,0,1-3.38-6.77c-.62-1.25-1.16-2.49-1.69-3.83a98.6,98.6,0,0,1-7.39-38.47c0-2.94.18-5.79.45-8.73v-.45A86.72,86.72,0,0,1,103,168a23.13,23.13,0,0,1,.89-3.56,31.8,31.8,0,0,1,.89-3.12,36.55,36.55,0,0,1,1.34-4.1,92.21,92.21,0,0,1,3.83-9.26c1.25-2.58,2.49-5.08,4-7.57.71-1.25,1.42-2.49,2.23-3.65a66,66,0,0,1,5.08-7.21c.89-1.16,1.78-2.32,2.76-3.47,1.87-2.23,3.92-4.45,6.06-6.59v-.09a101.12,101.12,0,0,1,71.16-29.74A100.56,100.56,0,0,1,239.7,97a95.57,95.57,0,0,1,17.54,9.44c1.34.8,2.58,1.69,3.92,2.67-1,1.25-2,2.58-2.94,3.83-1.25-1-2.49-1.87-3.83-2.76a94.53,94.53,0,0,0-53.17-15.76,97.2,97.2,0,0,0-36.69,7.48,96.18,96.18,0,0,0-31.08,20.93l-.09.09a92.22,92.22,0,0,0-11.13,13.36q-1.87,2.67-3.47,5.34a22.51,22.51,0,0,0-1.16,2c-1.16,2-2.23,4.1-3.21,6.14-.09.09-.09.27-.18.36s-.18.45-.27.62a54.39,54.39,0,0,0-2.4,5.88,85.65,85.65,0,0,0-3.12,9.17c-.62,2.4-1.16,4.9-1.69,7.3-.53,2.67-.89,5.25-1.16,7.93l104.2,104.2c1.43-.18,2.85-.36,4.28-.62a42.07,42.07,0,0,0,4.63-.8,45,45,0,0,0,4.72-1.07c1.25-.27,2.4-.62,3.65-1a52,52,0,0,0,5.25-1.78,17.86,17.86,0,0,0,2.32-.89,51.51,51.51,0,0,0,6.06-2.58c.09,0,.18-.09.27-.09a97.06,97.06,0,0,0,14-8.19,68.52,68.52,0,0,0,6.59-5.08,77.27,77.27,0,0,0,6.32-5.79h.09q3.21-3.21,6.14-6.68c1-1.25,2-2.58,2.94-3.83C278.26,247.78,279.51,248.76,280.85,249.65Z"/><path class="cls-5" d="M370.8,262.47a21.69,21.69,0,0,0-2.14,2.85c-5.88,8.19-8.55,17.9-9.44,28.32-1.07,11.93.09,24.94,1.25,37.94.45,4.19.8,8.37,1.07,12.11.27,3.92.53,7.93.71,11.93v.18a7.83,7.83,0,0,1-.36,2.85,7.6,7.6,0,0,1-1.69,2.58,42.05,42.05,0,0,1-6.32,5.25,31,31,0,0,1-6.77,3.56,33.75,33.75,0,0,1-12.47,2.32,34.44,34.44,0,0,1-12.47-2.32,33.14,33.14,0,0,1-6.77-3.56,47,47,0,0,1-6.32-5.25,8.86,8.86,0,0,1-1.6-2.58,7.09,7.09,0,0,1-.36-3v-.09c.27-7.84.89-15.67,1.6-23.42v-.18c.8-9.44,1.69-18.79,1.69-27.87,0-3.47-.18-6.86-.45-10.24-1-10.51-3.65-20.31-9.62-28.59a20.41,20.41,0,0,0-2.14-2.94,2.3,2.3,0,0,1,0-3h.09a94.5,94.5,0,0,0,36.34,7.3,92.19,92.19,0,0,0,34.11-6.41c.71-.27,1.34-.53,2-.8a1.94,1.94,0,0,1,.45.71A2.36,2.36,0,0,1,370.8,262.47Z"/><path class="cls-6" d="M239.17,199.78c.45,1.69,1,3.3,1.51,4.9.45,1.16.8,2.23,1.34,3.3C240.95,205.3,240,202.54,239.17,199.78Zm182,10.42c.45-1.07.89-2,1.34-3.12s1-2.4,1.34-3.56Q422.67,206.86,421.2,210.2Z"/><path class="cls-7" d="M427,131.65A99.2,99.2,0,0,0,264,98.88a91.1,91.1,0,0,0-6.77,7.57c-1,1.25-2,2.49-2.85,3.74a97.55,97.55,0,0,0-12,21.46,101.25,101.25,0,0,0-7.57,38.56v.09c0,2.14.09,4.27.18,6.32.09,1.25.18,2.49.36,3.74.09,1.07.18,2.14.36,3.3a24.55,24.55,0,0,0,.53,3.56,16.52,16.52,0,0,0,.53,3,46.51,46.51,0,0,0,1.07,4.81,41,41,0,0,0,1.34,4.72c.8,2.76,1.78,5.52,2.85,8.19a41.47,41.47,0,0,0,2.32,5.43,79,79,0,0,0,3.74,7.21,77.63,77.63,0,0,0,4.63,7.3,77.88,77.88,0,0,0,5.17,6.95c2,2.4,4,4.63,6.14,6.86a95.91,95.91,0,0,0,10.06,8.91c1.25,1,2.58,1.87,3.83,2.85a103.85,103.85,0,0,0,18.52,10.15c1.25.53,2.58,1.07,3.92,1.6,2.32.89,4.72,1.6,7.21,2.32a95.75,95.75,0,0,0,26.89,3.83h.27a95.59,95.59,0,0,0,26.81-3.83c2.4-.62,4.81-1.42,7.12-2.23,1.42-.53,2.76-1.07,4.19-1.69a98.85,98.85,0,0,0,32.42-21.91,85.49,85.49,0,0,0,6.06-6.68c.18-.18.36-.45.53-.62,1.51-2,3-3.92,4.45-6a3.79,3.79,0,0,1,.45-.62,74.68,74.68,0,0,0,4.45-7.21q2-3.47,3.74-7.21a3.78,3.78,0,0,0,.53-1.25,57.31,57.31,0,0,0,2.67-6.41,5.44,5.44,0,0,0,.45-1.07A105.63,105.63,0,0,0,433.22,187c.18-1.07.36-2.14.45-3.3s.27-2.23.36-3.3c.18-1.25.27-2.58.36-3.92.09-2,.18-4,.18-6v-.27A101.25,101.25,0,0,0,427,131.65Zm2.23,49.25-.53,3.47c-.09.89-.27,1.87-.45,2.76a30.27,30.27,0,0,1-.8,4.1,106,106,0,0,1-3.38,11.84c-.09.18-.09.27-.18.45-.36,1.16-.89,2.4-1.34,3.56s-.89,2-1.34,3.12c-1.25,2.67-2.58,5.34-4,7.93a72.06,72.06,0,0,1-4.1,6.5,65.94,65.94,0,0,1-4.72,6.41H261c-.53-.62-1.07-1.25-1.6-2-1.07-1.42-2.14-2.94-3.12-4.45a72.06,72.06,0,0,1-4.1-6.5c-1.34-2.4-2.67-5-3.83-7.48s-2.14-4.81-3-7.3c0-.09-.09-.18-.09-.27a100.84,100.84,0,0,1-3.38-11.84c-.27-1.07-.45-2.23-.71-3.38a102.87,102.87,0,0,1-1.51-17.54v-.09a96.54,96.54,0,0,1,7.12-36.69,100.8,100.8,0,0,1,11.49-20.57c1-1.25,2-2.58,2.94-3.83,2-2.4,4.1-4.72,6.23-6.86a94.91,94.91,0,0,1,30.9-20.93,95.1,95.1,0,0,1,124.23,52.19,96.7,96.7,0,0,1,7.21,36.78A104.15,104.15,0,0,1,429.22,180.9Z"/><path class="cls-8" d="M231.85,308.88a24.06,24.06,0,1,1-7,17A24,24,0,0,1,231.85,308.88Z"/><path class="cls-9" d="M65.3,390.81H51.93v-7.88h36.4v7.88H75V424.7H65.3Z"/><path class="cls-10" d="M125.86,416.94v7.76H93.52V382.93h31.56v7.76h-22v9.07h19.39v7.52H103.13v9.67Z"/><path class="cls-11" d="M171.87,382.93V424.7h-7.94l-20.82-25.36V424.7h-9.55V382.93h8l20.76,25.36V382.93Z"/><path class="cls-12" d="M181.77,382.93h9.67V424.7h-9.67Z"/><path class="cls-13" d="M198.06,420.58l3.28-7.28a24.57,24.57,0,0,0,13.78,4.36c5.73,0,8.06-1.91,8.06-4.47,0-7.82-24.28-2.45-24.28-18,0-7.1,5.73-13,17.6-13,5.25,0,10.62,1.25,14.5,3.7l-3,7.34A23.59,23.59,0,0,0,216.44,390c-5.73,0-7.94,2.15-7.94,4.77,0,7.7,24.28,2.39,24.28,17.72,0,7-5.79,12.95-17.72,12.95C208.45,425.41,201.76,423.44,198.06,420.58Z"/><path class="cls-14" d="M294.31,424.7l-.06-25.06L282,420.28H277.6l-12.23-20.11V424.7H256.3V382.93h8l15.63,26,15.39-26h7.94l.12,41.77Z"/><path class="cls-15" d="M345.62,416.94v7.76H313.28V382.93h31.56v7.76h-22v9.07h19.39v7.52H322.89v9.67Z"/><path class="cls-16" d="M347.41,419.33l5.37-6.44c2.27,3,4.77,4.59,7.76,4.59,3.88,0,5.91-2.33,5.91-6.92V390.69H351.77v-7.76h24.28V410c0,10.32-5.19,15.39-15,15.39C355.41,425.41,350.46,423.27,347.41,419.33Z"/><path class="cls-17" d="M412.21,415.75H392.82l-3.7,9h-9.91l18.62-41.77h9.55l18.68,41.77H415.91Zm-3-7.34-6.62-16-6.62,16Z"/></g></svg>