<svg id="Layer_1" data-name="Layer 1" xmlns="http://www.w3.org/2000/svg" xmlns:xlink="http://www.w3.org/1999/xlink" viewBox="0 0 500 500"><defs><style>.cls-1{fill:url(#linear-gradient);}.cls-2{fill:url(#linear-gradient-2);}.cls-3{fill:url(#linear-gradient-3);}.cls-4{fill:url(#linear-gradient-4);}.cls-5{fill:url(#linear-gradient-5);}.cls-6{fill:url(#linear-gradient-6);}.cls-7{fill:url(#linear-gradient-7);}.cls-8{fill:url(#linear-gradient-8);}.cls-9{fill:url(#linear-gradient-9);}.cls-10{fill:url(#linear-gradient-10);}.cls-11{fill:url(#linear-gradient-11);}.cls-12{fill:url(#linear-gradient-12);}</style><linearGradient id="linear-gradient" x1="58.04" y1="379.34" x2="58.04" y2="426.96" gradientUnits="userSpaceOnUse"><stop offset="0" stop-color="#7df6d2"/><stop offset="1" stop-color="#1f9c8b"/></linearGradient><linearGradient id="linear-gradient-2" x1="85.19" y1="379.34" x2="85.19" y2="426.96" xlink:href="#linear-gradient"/><linearGradient id="linear-gradient-3" x1="116.38" y1="379.34" x2="116.38" y2="426.96" xlink:href="#linear-gradient"/><linearGradient id="linear-gradient-4" x1="155.17" y1="379.34" x2="155.17" y2="426.96" xlink:href="#linear-gradient"/><linearGradient id="linear-gradient-5" x1="193.54" y1="379.34" x2="193.54" y2="426.96" xlink:href="#linear-gradient"/><linearGradient id="linear-gradient-6" x1="250.36" y1="379.34" x2="250.36" y2="426.96" xlink:href="#linear-gradient"/><linearGradient id="linear-gradient-7" x1="286.26" y1="379.34" x2="286.26" y2="426.96" xlink:href="#linear-gradient"/><linearGradient id="linear-gradient-8" x1="323.8" y1="379.34" x2="323.8" y2="426.96" xlink:href="#linear-gradient"/><linearGradient id="linear-gradient-9" x1="367.48" y1="379.34" x2="367.48" y2="426.96" xlink:href="#linear-gradient"/><linearGradient id="linear-gradient-10" x1="406.27" y1="379.34" x2="406.27" y2="426.96" xlink:href="#linear-gradient"/><linearGradient id="linear-gradient-11" x1="444.48" y1="379.34" x2="444.48" y2="426.96" xlink:href="#linear-gradient"/><linearGradient id="linear-gradient-12" x1="81.36" y1="212.45" x2="418.64" y2="212.45" xlink:href="#linear-gradient"/></defs><path class="cls-1" d="M78,386.57,62.18,423H53.85L38.13,386.57h9.11l11.09,26,11.25-26Z"/><path class="cls-2" d="M81,386.57h8.43V423H81Z"/><path class="cls-3" d="M98.05,386.57h16.56a23.26,23.26,0,0,1,10.49,2.26,16.94,16.94,0,0,1,7.08,6.38,19.4,19.4,0,0,1,0,19.16,16.94,16.94,0,0,1-7.08,6.38A23.26,23.26,0,0,1,114.61,423H98.05Zm16.14,29.52a12.24,12.24,0,0,0,8.72-3,12.07,12.07,0,0,0,0-16.5,12.24,12.24,0,0,0-8.72-3.05h-7.7v22.6Z"/><path class="cls-4" d="M169.28,416.24V423H141.06V386.57H168.6v6.77H149.44v7.91h16.92v6.56H149.44v8.43Z"/><path class="cls-5" d="M183.31,421.19a18.18,18.18,0,0,1-7.14-6.74,19.44,19.44,0,0,1,0-19.32,18.18,18.18,0,0,1,7.14-6.74,22.52,22.52,0,0,1,20.43,0,18.58,18.58,0,0,1,0,32.8,22.52,22.52,0,0,1-20.43,0ZM199.37,415a10.71,10.71,0,0,0,4.09-4.14,13.06,13.06,0,0,0,0-12.08,10.71,10.71,0,0,0-4.09-4.14,12.22,12.22,0,0,0-11.66,0,10.64,10.64,0,0,0-4.09,4.14,13.06,13.06,0,0,0,0,12.08,10.64,10.64,0,0,0,4.09,4.14,12.22,12.22,0,0,0,11.66,0Z"/><path class="cls-6" d="M258.75,388.18a13.06,13.06,0,0,1,5.49,18.61,12.33,12.33,0,0,1-5.49,4.59,20.52,20.52,0,0,1-8.41,1.58H243V423h-8.44V386.57h15.78A20.35,20.35,0,0,1,258.75,388.18Zm-3.1,16.27a5.7,5.7,0,0,0,2-4.66,5.76,5.76,0,0,0-2-4.71,8.89,8.89,0,0,0-5.78-1.64H243v12.65h6.87A8.89,8.89,0,0,0,255.65,404.45Z"/><path class="cls-7" d="M300.37,416.24V423H272.15V386.57h27.54v6.77H280.53v7.91h16.93v6.56H280.53v8.43Z"/><path class="cls-8" d="M340.51,386.57V423h-6.92l-18.17-22.12V423h-8.33V386.57h7l18.12,22.12V386.57Z"/><path class="cls-9" d="M349.15,386.57h16.56a23.26,23.26,0,0,1,10.49,2.26,16.94,16.94,0,0,1,7.08,6.38,19.4,19.4,0,0,1,0,19.16,16.94,16.94,0,0,1-7.08,6.38A23.26,23.26,0,0,1,365.71,423H349.15Zm16.14,29.52a12.24,12.24,0,0,0,8.72-3,12.07,12.07,0,0,0,0-16.5,12.24,12.24,0,0,0-8.72-3.05h-7.7v22.6Z"/><path class="cls-10" d="M420.38,416.24V423H392.16V386.57H419.7v6.77H400.54v7.91h16.92v6.56H400.54v8.43Z"/><path class="cls-11" d="M440.37,408.69l-4.9,5.11V423h-8.38V386.57h8.38v17l16.15-17H461l-15.1,16.24,16,20.2H452Z"/><path class="cls-12" d="M393.7,76.37H106.3a24.94,24.94,0,0,0-24.94,24.94V323.6a25,25,0,0,0,24.94,24.94H393.7a25,25,0,0,0,24.94-24.94V101.31A24.94,24.94,0,0,0,393.7,76.37ZM259.4,97.69h33.8v33.8H259.4Zm-52.6,0h33.8v33.8H206.8ZM135.41,327.22h-33.8v-33.8h33.8Zm0-195.73h-33.8V97.69h33.8ZM188,327.22h-33.8v-33.8H188Zm0-195.73h-33.8V97.69H188ZM240.6,327.22H206.8v-33.8h33.8Zm52.6,0H259.4v-33.8h33.8Zm-5.54-102-30.29,17.49L227.09,260.2A14.76,14.76,0,0,1,205,247.42V177.48a14.76,14.76,0,0,1,22.13-12.78l30.28,17.49,30.29,17.49A14.74,14.74,0,0,1,287.66,225.22Zm58.13,102H312v-33.8h33.8Zm0-195.73H312V97.69h33.8Zm52.6,195.73h-33.8v-33.8h33.8Zm0-195.73h-33.8V97.69h33.8Z"/></svg>